<svg width="300" height="130" viewBox="0 0 300 130" fill="none" xmlns="http://www.w3.org/2000/svg">
<rect width="300" height="130" fill="white"/>
<g filter="url(#filter0_i_5_12)">
<path d="M225 51.5625C227.066 51.5625 228.741 49.9675 228.741 48C228.741 46.0325 227.066 44.4375 225 44.4375C222.934 44.4375 221.259 46.0325 221.259 48C221.259 49.9675 222.934 51.5625 225 51.5625Z" fill="#61DAFB"/>
<path d="M239.208 42.125C238.486 41.875 237.731 41.625 236.944 41.4063C237.141 40.6563 237.305 39.9062 237.436 39.1875C238.125 35.0625 237.37 32.1562 235.27 31.0312C234.647 30.6875 233.958 30.5312 233.17 30.5312C230.873 30.5312 227.953 32.1562 225 34.875C222.047 32.1562 219.127 30.5312 216.83 30.5312C216.042 30.5312 215.353 30.6875 214.73 31.0312C212.63 32.1875 211.875 35.0937 212.564 39.1875C212.695 39.9062 212.859 40.6563 213.056 41.4063C212.269 41.625 211.514 41.8437 210.792 42.125C206.691 43.625 204.459 45.6875 204.459 48C204.459 50.3125 206.723 52.375 210.792 53.875C211.514 54.125 212.269 54.375 213.056 54.5938C212.859 55.3438 212.695 56.0937 212.564 56.8125C211.875 60.9375 212.63 63.8438 214.73 64.9688C215.353 65.3125 216.042 65.4688 216.83 65.4688C219.159 65.4688 222.08 63.8438 225 61.125C227.953 63.8438 230.873 65.4688 233.17 65.4688C233.958 65.4688 234.647 65.3125 235.27 64.9688C237.37 63.8125 238.125 60.9062 237.436 56.8125C237.305 56.0937 237.141 55.3438 236.944 54.5938C237.731 54.375 238.486 54.1563 239.208 53.875C243.309 52.375 245.541 50.3125 245.541 48C245.541 45.6875 243.309 43.625 239.208 42.125V42.125ZM234.352 32.5937C235.697 33.3437 236.156 35.6562 235.598 38.9375C235.5 39.5937 235.336 40.2813 235.139 41C233.433 40.625 231.628 40.375 229.725 40.2187C228.609 38.7187 227.461 37.375 226.313 36.1562C228.741 33.875 231.202 32.3125 233.203 32.3125C233.63 32.3125 234.023 32.4062 234.352 32.5937V32.5937ZM230.677 51.125C230.086 52.125 229.397 53.125 228.675 54.125C227.461 54.2188 226.247 54.25 225 54.25C223.72 54.25 222.506 54.2188 221.325 54.125C220.603 53.125 219.947 52.125 219.356 51.125C218.733 50.0938 218.142 49.0313 217.617 48C218.142 46.9688 218.733 45.9063 219.356 44.875C219.947 43.875 220.636 42.875 221.358 41.875C222.572 41.7813 223.786 41.75 225.033 41.75C226.313 41.75 227.527 41.7813 228.708 41.875C229.43 42.875 230.086 43.875 230.677 44.875C231.3 45.9063 231.891 46.9688 232.416 48C231.858 49.0313 231.3 50.0625 230.677 51.125ZM233.4 50.0937C233.892 51.1875 234.286 52.25 234.647 53.3125C233.531 53.5625 232.35 53.75 231.103 53.9063C231.497 53.3125 231.923 52.6875 232.284 52.0313C232.678 51.375 233.039 50.7187 233.4 50.0937ZM225 58.5625C224.213 57.75 223.458 56.875 222.736 55.9688C223.491 56 224.245 56.0312 225 56.0312C225.755 56.0312 226.509 56 227.264 55.9688C226.542 56.875 225.788 57.75 225 58.5625ZM218.897 53.875C217.65 53.7188 216.469 53.5313 215.353 53.2813C215.714 52.25 216.108 51.1562 216.6 50.0625C216.961 50.6875 217.322 51.3437 217.716 51.9687C218.109 52.6562 218.503 53.25 218.897 53.875V53.875ZM216.6 45.9062C216.108 44.8125 215.714 43.75 215.353 42.6875C216.469 42.4375 217.65 42.25 218.897 42.0938C218.503 42.6875 218.077 43.3125 217.716 43.9688C217.322 44.625 216.961 45.2812 216.6 45.9062V45.9062ZM225 37.4375C225.788 38.25 226.542 39.125 227.264 40.0312C226.509 40 225.755 39.9687 225 39.9687C224.245 39.9687 223.491 40 222.736 40.0312C223.458 39.125 224.213 38.25 225 37.4375ZM232.284 44L231.103 42.125C232.35 42.2812 233.531 42.4687 234.647 42.7188C234.286 43.75 233.892 44.8438 233.4 45.9375C233.039 45.2813 232.678 44.625 232.284 44ZM214.402 38.9375C213.844 35.6562 214.303 33.3437 215.648 32.5937C215.977 32.4062 216.37 32.3125 216.797 32.3125C218.766 32.3125 221.227 33.8437 223.688 36.1562C222.539 37.3437 221.391 38.7187 220.275 40.2187C218.372 40.375 216.567 40.6562 214.861 41C214.664 40.2813 214.533 39.5937 214.402 38.9375V38.9375ZM206.297 48C206.297 46.5313 208.167 44.9688 211.448 43.8125C212.105 43.5625 212.827 43.3438 213.548 43.1563C214.073 44.7188 214.73 46.375 215.517 48.0312C214.73 49.6875 214.041 51.3125 213.548 52.875C209.02 51.625 206.297 49.75 206.297 48ZM215.648 63.4063C214.303 62.6563 213.844 60.3438 214.402 57.0625C214.5 56.4063 214.664 55.7188 214.861 55C216.567 55.375 218.372 55.625 220.275 55.7813C221.391 57.2813 222.539 58.625 223.688 59.8438C221.259 62.125 218.798 63.6875 216.797 63.6875C216.37 63.6875 215.977 63.5938 215.648 63.4063ZM235.598 57.0625C236.156 60.3438 235.697 62.6563 234.352 63.4063C234.023 63.5938 233.63 63.6875 233.203 63.6875C231.234 63.6875 228.773 62.1563 226.313 59.8438C227.461 58.6563 228.609 57.2813 229.725 55.7813C231.628 55.625 233.433 55.3438 235.139 55C235.336 55.7188 235.467 56.4063 235.598 57.0625V57.0625ZM238.552 52.1875C237.895 52.4375 237.173 52.6563 236.452 52.8438C235.927 51.2813 235.27 49.625 234.483 47.9688C235.27 46.3125 235.959 44.6875 236.452 43.125C240.98 44.375 243.703 46.25 243.703 48C243.703 49.4688 241.8 51.0313 238.552 52.1875Z" fill="#61DAFB"/>
</g>
<path d="M11 91V120H42V91H11ZM27.3975 115.711C26.94 116.581 26.0665 117.152 25.0544 117.428C23.4992 117.762 22.0117 117.572 20.9051 116.95C20.1646 116.525 19.5863 115.871 19.1937 115.117L21.5546 113.765C21.5752 113.773 21.6372 113.878 21.72 114.013C22.0211 114.485 22.2808 114.819 22.7912 115.054C23.2926 115.214 24.3935 115.316 24.8186 114.491C25.0782 114.071 24.9956 112.721 24.9956 111.228C24.9954 108.881 25.007 106.544 25.007 104.224H27.9109C27.9109 106.776 27.9258 109.193 27.9109 111.683C27.9171 113.21 28.0587 114.571 27.3975 115.711ZM39.4439 114.944C38.4345 118.173 32.8069 118.278 30.558 116.144C30.0829 115.642 29.785 115.38 29.5015 114.8C30.6967 114.157 30.6967 114.157 31.8595 113.527C32.4912 114.436 33.0752 114.935 34.126 115.14C35.5515 115.302 36.9857 114.844 36.664 113.428C36.3334 112.271 33.7451 111.99 31.9835 110.753C30.1952 109.629 29.7761 106.899 31.2457 105.339C31.7355 104.762 32.5708 104.331 33.4472 104.124L34.3618 104.014C36.1179 103.981 37.2156 104.414 38.0213 105.256C38.2455 105.469 38.4286 105.698 38.7708 106.195C37.8353 106.752 37.8383 106.747 36.4984 107.559C36.2122 106.982 35.7373 106.62 35.2353 106.463C34.4561 106.242 33.4735 106.482 33.2697 107.252C33.199 107.489 33.2136 107.71 33.326 108.102C33.6417 108.776 34.7011 109.069 35.6515 109.477C38.3871 110.515 39.3109 111.628 39.5381 112.953C39.7568 114.093 39.4853 114.833 39.4439 114.944Z" fill="#F0DB4F"/>
<g filter="url(#filter1_d_5_12)">
<mask id="path-4-outside-1_5_12" maskUnits="userSpaceOnUse" x="112" y="20" width="161" height="91" fill="black">
<rect fill="white" x="112" y="20" width="161" height="91"/>
<path d="M112.4 45.58L114.08 45.16V27.24L112.4 26.82V26.4H119.54C122.881 26.4 125.439 27.2587 127.212 28.976C129.004 30.6933 129.9 33.1013 129.9 36.2C129.9 39.2987 129.004 41.7067 127.212 43.424C125.439 45.1413 122.881 46 119.54 46H112.4V45.58ZM119.54 45.3C121.276 45.3 122.62 44.6 123.572 43.2C124.524 41.7813 125 39.448 125 36.2C125 32.952 124.524 30.628 123.572 29.228C122.62 27.8093 121.276 27.1 119.54 27.1H118.7V45.3H119.54ZM129.608 45.58L131.848 44.74L139.548 26.12H140.388L148.368 45.16L149.768 45.58V46H146.408C145.437 46 144.644 45.7853 144.028 45.356C143.412 44.908 142.955 44.3293 142.656 43.62L141.228 40.26H134.536L132.688 44.74L134.788 45.58V46H129.608V45.58ZM134.816 39.56H140.948L137.868 32.196L134.816 39.56ZM139.184 25L140.304 20.8H143.944L140.164 25H139.184ZM148.207 27.24L146.807 26.82V26.4H150.167C151.138 26.4 151.931 26.624 152.547 27.072C153.163 27.5013 153.63 28.0707 153.947 28.78L158.903 40.064L163.467 27.66L161.367 26.82V26.4H166.547V26.82L164.307 27.66L157.447 46.28H156.607L148.207 27.24ZM167.388 46V45.58L169.068 45.16V27.24L167.388 26.82V26.4H175.368V26.82L173.688 27.24V45.16L175.368 45.58V46H167.388ZM177.888 45.58L179.568 45.16V27.24L177.888 26.82V26.4H185.028C188.37 26.4 190.927 27.2587 192.7 28.976C194.492 30.6933 195.388 33.1013 195.388 36.2C195.388 39.2987 194.492 41.7067 192.7 43.424C190.927 45.1413 188.37 46 185.028 46H177.888V45.58ZM185.028 45.3C186.764 45.3 188.108 44.6 189.06 43.2C190.012 41.7813 190.488 39.448 190.488 36.2C190.488 32.952 190.012 30.628 189.06 29.228C188.108 27.8093 186.764 27.1 185.028 27.1H184.188V45.3H185.028ZM112.4 78V77.58L114.08 77.16V59.24L112.4 58.82V58.4H120.38V58.82L118.7 59.24V77.16L120.38 77.58V78H112.4ZM125.42 63.16V76.74L127.66 77.58V78H122.34V77.58L124.58 76.74V59.38L122.62 58.82V58.4H125.56C126.549 58.4 127.324 58.5773 127.884 58.932C128.444 59.2867 128.976 59.7627 129.48 60.36L138.44 70.86V59.66L136.2 58.82V58.4H141.52V58.82L139.28 59.66V78.42H138.44L125.42 63.16ZM151.327 78.42C149.908 78.42 148.601 78.0187 147.407 77.216C146.212 76.4133 145.26 75.2467 144.551 73.716C143.841 72.1667 143.487 70.328 143.487 68.2C143.487 66.0533 143.851 64.2147 144.579 62.684C145.325 61.1347 146.361 59.968 147.687 59.184C149.031 58.3813 150.58 57.98 152.335 57.98C153.399 57.98 154.472 58.288 155.555 58.904C155.965 59.128 156.376 59.4267 156.787 59.8C157.104 59.3147 157.431 58.932 157.767 58.652C158.103 58.4093 158.289 58.2787 158.327 58.26H159.027V63.58H157.907C157.664 62.684 157.3 61.872 156.815 61.144C156.367 60.4347 155.807 59.8467 155.135 59.38C154.481 58.9133 153.725 58.68 152.867 58.68C151.579 58.68 150.505 59.4267 149.647 60.92C148.807 62.4133 148.387 64.84 148.387 68.2C148.387 71.56 148.76 73.94 149.507 75.34C150.272 76.74 151.252 77.44 152.447 77.44C153.137 77.44 153.763 77.0667 154.323 76.32C154.528 76.04 154.743 75.6667 154.967 75.2V68.76L153.287 68.34V67.92H161.267V68.34L159.587 68.76V78.14H159.167C157.804 78.14 156.768 77.7667 156.059 77.02C155.741 76.684 155.517 76.3107 155.387 75.9C155.125 76.3667 154.817 76.7867 154.463 77.16C153.623 78 152.577 78.42 151.327 78.42ZM163.232 77.58L164.912 77.16V59.24L163.232 58.82V58.4H171.212V58.82L169.532 59.24V77.3H175.552C175.552 76.124 175.851 75.032 176.448 74.024C176.709 73.5947 177.017 73.24 177.372 72.96H178.212V78H163.232V77.58ZM188.735 78.42C186.906 78.42 185.3 78.028 183.919 77.244C182.556 76.4413 181.502 75.2747 180.755 73.744C180.008 72.2133 179.635 70.3653 179.635 68.2C179.635 66.0347 180.008 64.1867 180.755 62.656C181.502 61.1253 182.556 59.968 183.919 59.184C185.3 58.3813 186.906 57.98 188.735 57.98C190.564 57.98 192.16 58.3813 193.523 59.184C194.904 59.968 195.968 61.1253 196.715 62.656C197.462 64.1867 197.835 66.0347 197.835 68.2C197.835 70.3653 197.462 72.2133 196.715 73.744C195.968 75.2747 194.904 76.4413 193.523 77.244C192.16 78.028 190.564 78.42 188.735 78.42ZM188.735 77.86C189.463 77.86 190.135 77.552 190.751 76.936C191.386 76.32 191.908 75.2933 192.319 73.856C192.73 72.4187 192.935 70.5333 192.935 68.2C192.935 65.8667 192.73 63.9813 192.319 62.544C191.908 61.1067 191.386 60.08 190.751 59.464C190.135 58.848 189.463 58.54 188.735 58.54C188.007 58.54 187.326 58.848 186.691 59.464C186.075 60.08 185.562 61.1067 185.151 62.544C184.74 63.9813 184.535 65.8667 184.535 68.2C184.535 70.5333 184.74 72.4187 185.151 73.856C185.562 75.2933 186.075 76.32 186.691 76.936C187.326 77.552 188.007 77.86 188.735 77.86ZM200.502 77.58L202.182 77.16V59.24L200.502 58.82V58.4H207.642C210.983 58.4 213.54 59.2587 215.314 60.976C217.106 62.6933 218.002 65.1013 218.002 68.2C218.002 71.2987 217.106 73.7067 215.314 75.424C213.54 77.1413 210.983 78 207.642 78H200.502V77.58ZM207.642 77.3C209.378 77.3 210.722 76.6 211.674 75.2C212.626 73.7813 213.102 71.448 213.102 68.2C213.102 64.952 212.626 62.628 211.674 61.228C210.722 59.8093 209.378 59.1 207.642 59.1H206.802V77.3H207.642ZM223.73 77.58L225.41 77.16V70.72L219.67 59.24L218.27 58.82V58.4H221.77C222.74 58.4 223.515 58.6053 224.094 59.016C224.691 59.4267 225.176 60.0147 225.55 60.78L229.694 69.04L233.95 59.66L231.85 58.82V58.4H237.17V58.82L234.93 59.66L230.03 70.44V77.16L231.71 77.58V78H223.73V77.58ZM112.4 109.58L114.08 109.16V91.24L112.4 90.82V90.4H120.24C123.339 90.4 125.56 90.9133 126.904 91.94C128.248 92.948 128.92 94.4413 128.92 96.42C128.92 98.3987 128.248 99.9013 126.904 100.928C125.56 101.936 123.339 102.44 120.24 102.44H118.7V109.16L120.38 109.58V110H112.4V109.58ZM120.24 101.74C121.416 101.74 122.359 101.292 123.068 100.396C123.796 99.5 124.16 98.1747 124.16 96.42C124.16 94.684 123.796 93.368 123.068 92.472C122.359 91.5573 121.416 91.1 120.24 91.1H118.7V101.74H120.24ZM140.255 110.42C138.425 110.42 136.82 110.028 135.439 109.244C134.076 108.441 133.021 107.275 132.275 105.744C131.528 104.213 131.155 102.365 131.155 100.2C131.155 98.0347 131.528 96.1867 132.275 94.656C133.021 93.1253 134.076 91.968 135.439 91.184C136.82 90.3813 138.425 89.98 140.255 89.98C142.084 89.98 143.68 90.3813 145.043 91.184C146.424 91.968 147.488 93.1253 148.235 94.656C148.981 96.1867 149.355 98.0347 149.355 100.2C149.355 102.365 148.981 104.213 148.235 105.744C147.488 107.275 146.424 108.441 145.043 109.244C143.68 110.028 142.084 110.42 140.255 110.42ZM140.255 109.86C140.983 109.86 141.655 109.552 142.271 108.936C142.905 108.32 143.428 107.293 143.839 105.856C144.249 104.419 144.455 102.533 144.455 100.2C144.455 97.8667 144.249 95.9813 143.839 94.544C143.428 93.1067 142.905 92.08 142.271 91.464C141.655 90.848 140.983 90.54 140.255 90.54C139.527 90.54 138.845 90.848 138.211 91.464C137.595 92.08 137.081 93.1067 136.671 94.544C136.26 95.9813 136.055 97.8667 136.055 100.2C136.055 102.533 136.26 104.419 136.671 105.856C137.081 107.293 137.595 108.32 138.211 108.936C138.845 109.552 139.527 109.86 140.255 109.86ZM152.021 109.58L153.701 109.16V91.24L152.021 90.82V90.4H159.441C162.614 90.4 164.901 90.8853 166.301 91.856C167.701 92.808 168.401 94.1427 168.401 95.86C168.401 97.0173 168.093 97.96 167.477 98.688C166.861 99.3973 166.068 99.9293 165.097 100.284C164.07 100.676 162.978 100.881 161.821 100.9V101.04C162.512 101.077 163.118 101.18 163.641 101.348C164.948 101.759 165.834 102.496 166.301 103.56L168.821 109.16L170.221 109.58V110H166.301C164.77 110 163.65 109.207 162.941 107.62L160.141 101.32H158.321V109.16L160.281 109.58V110H152.021V109.58ZM159.441 100.62C160.748 100.62 161.774 100.209 162.521 99.388C163.268 98.5667 163.641 97.3907 163.641 95.86C163.641 94.3293 163.268 93.1533 162.521 92.332C161.774 91.5107 160.748 91.1 159.441 91.1H158.321V100.62H159.441ZM174.853 109.58L176.533 109.16V91.1H173.313C173.313 92.2387 173.005 93.3307 172.389 94.376C172.128 94.8053 171.829 95.16 171.493 95.44H170.653V90.4H187.033V95.44H186.193C185.838 95.16 185.53 94.8053 185.269 94.376C184.672 93.368 184.373 92.276 184.373 91.1H181.153V109.16L182.833 109.58V110H174.853V109.58ZM189.127 109.58L190.807 109.16V91.24L189.127 90.82V90.4H204.107V95.44H203.267C202.912 95.16 202.604 94.8053 202.343 94.376C201.745 93.368 201.447 92.276 201.447 91.1H195.427V99.92H198.647C198.777 99.2107 199.02 98.548 199.375 97.932C199.524 97.652 199.701 97.3813 199.907 97.12H200.747V103.42H199.907C199.701 103.159 199.524 102.888 199.375 102.608C199.02 101.992 198.777 101.329 198.647 100.62H195.427V109.16L197.107 109.58V110H189.127V109.58ZM214.63 110.42C212.8 110.42 211.195 110.028 209.814 109.244C208.451 108.441 207.396 107.275 206.65 105.744C205.903 104.213 205.53 102.365 205.53 100.2C205.53 98.0347 205.903 96.1867 206.65 94.656C207.396 93.1253 208.451 91.968 209.814 91.184C211.195 90.3813 212.8 89.98 214.63 89.98C216.459 89.98 218.055 90.3813 219.418 91.184C220.799 91.968 221.863 93.1253 222.61 94.656C223.356 96.1867 223.73 98.0347 223.73 100.2C223.73 102.365 223.356 104.213 222.61 105.744C221.863 107.275 220.799 108.441 219.418 109.244C218.055 110.028 216.459 110.42 214.63 110.42ZM214.63 109.86C215.358 109.86 216.03 109.552 216.646 108.936C217.28 108.32 217.803 107.293 218.214 105.856C218.624 104.419 218.83 102.533 218.83 100.2C218.83 97.8667 218.624 95.9813 218.214 94.544C217.803 93.1067 217.28 92.08 216.646 91.464C216.03 90.848 215.358 90.54 214.63 90.54C213.902 90.54 213.22 90.848 212.586 91.464C211.97 92.08 211.456 93.1067 211.046 94.544C210.635 95.9813 210.43 97.8667 210.43 100.2C210.43 102.533 210.635 104.419 211.046 105.856C211.456 107.293 211.97 108.32 212.586 108.936C213.22 109.552 213.902 109.86 214.63 109.86ZM226.396 109.58L228.076 109.16V91.24L226.396 90.82V90.4H234.376V90.82L232.696 91.24V109.3H238.716C238.716 108.124 239.015 107.032 239.612 106.024C239.873 105.595 240.181 105.24 240.536 104.96H241.376V110H226.396V109.58ZM243.486 110V109.58L245.166 109.16V91.24L243.486 90.82V90.4H251.466V90.82L249.786 91.24V109.16L251.466 109.58V110H243.486ZM263.219 110.42C261.39 110.42 259.785 110.028 258.403 109.244C257.041 108.441 255.986 107.275 255.239 105.744C254.493 104.213 254.119 102.365 254.119 100.2C254.119 98.0347 254.493 96.1867 255.239 94.656C255.986 93.1253 257.041 91.968 258.403 91.184C259.785 90.3813 261.39 89.98 263.219 89.98C265.049 89.98 266.645 90.3813 268.007 91.184C269.389 91.968 270.453 93.1253 271.199 94.656C271.946 96.1867 272.319 98.0347 272.319 100.2C272.319 102.365 271.946 104.213 271.199 105.744C270.453 107.275 269.389 108.441 268.007 109.244C266.645 110.028 265.049 110.42 263.219 110.42ZM263.219 109.86C263.947 109.86 264.619 109.552 265.235 108.936C265.87 108.32 266.393 107.293 266.803 105.856C267.214 104.419 267.419 102.533 267.419 100.2C267.419 97.8667 267.214 95.9813 266.803 94.544C266.393 93.1067 265.87 92.08 265.235 91.464C264.619 90.848 263.947 90.54 263.219 90.54C262.491 90.54 261.81 90.848 261.175 91.464C260.559 92.08 260.046 93.1067 259.635 94.544C259.225 95.9813 259.019 97.8667 259.019 100.2C259.019 102.533 259.225 104.419 259.635 105.856C260.046 107.293 260.559 108.32 261.175 108.936C261.81 109.552 262.491 109.86 263.219 109.86Z"/>
</mask>
<path d="M112.4 45.58L114.08 45.16V27.24L112.4 26.82V26.4H119.54C122.881 26.4 125.439 27.2587 127.212 28.976C129.004 30.6933 129.9 33.1013 129.9 36.2C129.9 39.2987 129.004 41.7067 127.212 43.424C125.439 45.1413 122.881 46 119.54 46H112.4V45.58ZM119.54 45.3C121.276 45.3 122.62 44.6 123.572 43.2C124.524 41.7813 125 39.448 125 36.2C125 32.952 124.524 30.628 123.572 29.228C122.62 27.8093 121.276 27.1 119.54 27.1H118.7V45.3H119.54ZM129.608 45.58L131.848 44.74L139.548 26.12H140.388L148.368 45.16L149.768 45.58V46H146.408C145.437 46 144.644 45.7853 144.028 45.356C143.412 44.908 142.955 44.3293 142.656 43.62L141.228 40.26H134.536L132.688 44.74L134.788 45.58V46H129.608V45.58ZM134.816 39.56H140.948L137.868 32.196L134.816 39.56ZM139.184 25L140.304 20.8H143.944L140.164 25H139.184ZM148.207 27.24L146.807 26.82V26.4H150.167C151.138 26.4 151.931 26.624 152.547 27.072C153.163 27.5013 153.63 28.0707 153.947 28.78L158.903 40.064L163.467 27.66L161.367 26.82V26.4H166.547V26.82L164.307 27.66L157.447 46.28H156.607L148.207 27.24ZM167.388 46V45.58L169.068 45.16V27.24L167.388 26.82V26.4H175.368V26.82L173.688 27.24V45.16L175.368 45.58V46H167.388ZM177.888 45.58L179.568 45.16V27.24L177.888 26.82V26.4H185.028C188.37 26.4 190.927 27.2587 192.7 28.976C194.492 30.6933 195.388 33.1013 195.388 36.2C195.388 39.2987 194.492 41.7067 192.7 43.424C190.927 45.1413 188.37 46 185.028 46H177.888V45.58ZM185.028 45.3C186.764 45.3 188.108 44.6 189.06 43.2C190.012 41.7813 190.488 39.448 190.488 36.2C190.488 32.952 190.012 30.628 189.06 29.228C188.108 27.8093 186.764 27.1 185.028 27.1H184.188V45.3H185.028ZM112.4 78V77.58L114.08 77.16V59.24L112.4 58.82V58.4H120.38V58.82L118.7 59.24V77.16L120.38 77.58V78H112.4ZM125.42 63.16V76.74L127.66 77.58V78H122.34V77.58L124.58 76.74V59.38L122.62 58.82V58.4H125.56C126.549 58.4 127.324 58.5773 127.884 58.932C128.444 59.2867 128.976 59.7627 129.48 60.36L138.44 70.86V59.66L136.2 58.82V58.4H141.52V58.82L139.28 59.66V78.42H138.44L125.42 63.16ZM151.327 78.42C149.908 78.42 148.601 78.0187 147.407 77.216C146.212 76.4133 145.26 75.2467 144.551 73.716C143.841 72.1667 143.487 70.328 143.487 68.2C143.487 66.0533 143.851 64.2147 144.579 62.684C145.325 61.1347 146.361 59.968 147.687 59.184C149.031 58.3813 150.58 57.98 152.335 57.98C153.399 57.98 154.472 58.288 155.555 58.904C155.965 59.128 156.376 59.4267 156.787 59.8C157.104 59.3147 157.431 58.932 157.767 58.652C158.103 58.4093 158.289 58.2787 158.327 58.26H159.027V63.58H157.907C157.664 62.684 157.3 61.872 156.815 61.144C156.367 60.4347 155.807 59.8467 155.135 59.38C154.481 58.9133 153.725 58.68 152.867 58.68C151.579 58.68 150.505 59.4267 149.647 60.92C148.807 62.4133 148.387 64.84 148.387 68.2C148.387 71.56 148.76 73.94 149.507 75.34C150.272 76.74 151.252 77.44 152.447 77.44C153.137 77.44 153.763 77.0667 154.323 76.32C154.528 76.04 154.743 75.6667 154.967 75.2V68.76L153.287 68.34V67.92H161.267V68.34L159.587 68.76V78.14H159.167C157.804 78.14 156.768 77.7667 156.059 77.02C155.741 76.684 155.517 76.3107 155.387 75.9C155.125 76.3667 154.817 76.7867 154.463 77.16C153.623 78 152.577 78.42 151.327 78.42ZM163.232 77.58L164.912 77.16V59.24L163.232 58.82V58.4H171.212V58.82L169.532 59.24V77.3H175.552C175.552 76.124 175.851 75.032 176.448 74.024C176.709 73.5947 177.017 73.24 177.372 72.96H178.212V78H163.232V77.58ZM188.735 78.42C186.906 78.42 185.3 78.028 183.919 77.244C182.556 76.4413 181.502 75.2747 180.755 73.744C180.008 72.2133 179.635 70.3653 179.635 68.2C179.635 66.0347 180.008 64.1867 180.755 62.656C181.502 61.1253 182.556 59.968 183.919 59.184C185.3 58.3813 186.906 57.98 188.735 57.98C190.564 57.98 192.16 58.3813 193.523 59.184C194.904 59.968 195.968 61.1253 196.715 62.656C197.462 64.1867 197.835 66.0347 197.835 68.2C197.835 70.3653 197.462 72.2133 196.715 73.744C195.968 75.2747 194.904 76.4413 193.523 77.244C192.16 78.028 190.564 78.42 188.735 78.42ZM188.735 77.86C189.463 77.86 190.135 77.552 190.751 76.936C191.386 76.32 191.908 75.2933 192.319 73.856C192.73 72.4187 192.935 70.5333 192.935 68.2C192.935 65.8667 192.73 63.9813 192.319 62.544C191.908 61.1067 191.386 60.08 190.751 59.464C190.135 58.848 189.463 58.54 188.735 58.54C188.007 58.54 187.326 58.848 186.691 59.464C186.075 60.08 185.562 61.1067 185.151 62.544C184.74 63.9813 184.535 65.8667 184.535 68.2C184.535 70.5333 184.74 72.4187 185.151 73.856C185.562 75.2933 186.075 76.32 186.691 76.936C187.326 77.552 188.007 77.86 188.735 77.86ZM200.502 77.58L202.182 77.16V59.24L200.502 58.82V58.4H207.642C210.983 58.4 213.54 59.2587 215.314 60.976C217.106 62.6933 218.002 65.1013 218.002 68.2C218.002 71.2987 217.106 73.7067 215.314 75.424C213.54 77.1413 210.983 78 207.642 78H200.502V77.58ZM207.642 77.3C209.378 77.3 210.722 76.6 211.674 75.2C212.626 73.7813 213.102 71.448 213.102 68.2C213.102 64.952 212.626 62.628 211.674 61.228C210.722 59.8093 209.378 59.1 207.642 59.1H206.802V77.3H207.642ZM223.73 77.58L225.41 77.16V70.72L219.67 59.24L218.27 58.82V58.4H221.77C222.74 58.4 223.515 58.6053 224.094 59.016C224.691 59.4267 225.176 60.0147 225.55 60.78L229.694 69.04L233.95 59.66L231.85 58.82V58.4H237.17V58.82L234.93 59.66L230.03 70.44V77.16L231.71 77.58V78H223.73V77.58ZM112.4 109.58L114.08 109.16V91.24L112.4 90.82V90.4H120.24C123.339 90.4 125.56 90.9133 126.904 91.94C128.248 92.948 128.92 94.4413 128.92 96.42C128.92 98.3987 128.248 99.9013 126.904 100.928C125.56 101.936 123.339 102.44 120.24 102.44H118.7V109.16L120.38 109.58V110H112.4V109.58ZM120.24 101.74C121.416 101.74 122.359 101.292 123.068 100.396C123.796 99.5 124.16 98.1747 124.16 96.42C124.16 94.684 123.796 93.368 123.068 92.472C122.359 91.5573 121.416 91.1 120.24 91.1H118.7V101.74H120.24ZM140.255 110.42C138.425 110.42 136.82 110.028 135.439 109.244C134.076 108.441 133.021 107.275 132.275 105.744C131.528 104.213 131.155 102.365 131.155 100.2C131.155 98.0347 131.528 96.1867 132.275 94.656C133.021 93.1253 134.076 91.968 135.439 91.184C136.82 90.3813 138.425 89.98 140.255 89.98C142.084 89.98 143.68 90.3813 145.043 91.184C146.424 91.968 147.488 93.1253 148.235 94.656C148.981 96.1867 149.355 98.0347 149.355 100.2C149.355 102.365 148.981 104.213 148.235 105.744C147.488 107.275 146.424 108.441 145.043 109.244C143.68 110.028 142.084 110.42 140.255 110.42ZM140.255 109.86C140.983 109.86 141.655 109.552 142.271 108.936C142.905 108.32 143.428 107.293 143.839 105.856C144.249 104.419 144.455 102.533 144.455 100.2C144.455 97.8667 144.249 95.9813 143.839 94.544C143.428 93.1067 142.905 92.08 142.271 91.464C141.655 90.848 140.983 90.54 140.255 90.54C139.527 90.54 138.845 90.848 138.211 91.464C137.595 92.08 137.081 93.1067 136.671 94.544C136.26 95.9813 136.055 97.8667 136.055 100.2C136.055 102.533 136.26 104.419 136.671 105.856C137.081 107.293 137.595 108.32 138.211 108.936C138.845 109.552 139.527 109.86 140.255 109.86ZM152.021 109.58L153.701 109.16V91.24L152.021 90.82V90.4H159.441C162.614 90.4 164.901 90.8853 166.301 91.856C167.701 92.808 168.401 94.1427 168.401 95.86C168.401 97.0173 168.093 97.96 167.477 98.688C166.861 99.3973 166.068 99.9293 165.097 100.284C164.07 100.676 162.978 100.881 161.821 100.9V101.04C162.512 101.077 163.118 101.18 163.641 101.348C164.948 101.759 165.834 102.496 166.301 103.56L168.821 109.16L170.221 109.58V110H166.301C164.77 110 163.65 109.207 162.941 107.62L160.141 101.32H158.321V109.16L160.281 109.58V110H152.021V109.58ZM159.441 100.62C160.748 100.62 161.774 100.209 162.521 99.388C163.268 98.5667 163.641 97.3907 163.641 95.86C163.641 94.3293 163.268 93.1533 162.521 92.332C161.774 91.5107 160.748 91.1 159.441 91.1H158.321V100.62H159.441ZM174.853 109.58L176.533 109.16V91.1H173.313C173.313 92.2387 173.005 93.3307 172.389 94.376C172.128 94.8053 171.829 95.16 171.493 95.44H170.653V90.4H187.033V95.44H186.193C185.838 95.16 185.53 94.8053 185.269 94.376C184.672 93.368 184.373 92.276 184.373 91.1H181.153V109.16L182.833 109.58V110H174.853V109.58ZM189.127 109.58L190.807 109.16V91.24L189.127 90.82V90.4H204.107V95.44H203.267C202.912 95.16 202.604 94.8053 202.343 94.376C201.745 93.368 201.447 92.276 201.447 91.1H195.427V99.92H198.647C198.777 99.2107 199.02 98.548 199.375 97.932C199.524 97.652 199.701 97.3813 199.907 97.12H200.747V103.42H199.907C199.701 103.159 199.524 102.888 199.375 102.608C199.02 101.992 198.777 101.329 198.647 100.62H195.427V109.16L197.107 109.58V110H189.127V109.58ZM214.63 110.42C212.8 110.42 211.195 110.028 209.814 109.244C208.451 108.441 207.396 107.275 206.65 105.744C205.903 104.213 205.53 102.365 205.53 100.2C205.53 98.0347 205.903 96.1867 206.65 94.656C207.396 93.1253 208.451 91.968 209.814 91.184C211.195 90.3813 212.8 89.98 214.63 89.98C216.459 89.98 218.055 90.3813 219.418 91.184C220.799 91.968 221.863 93.1253 222.61 94.656C223.356 96.1867 223.73 98.0347 223.73 100.2C223.73 102.365 223.356 104.213 222.61 105.744C221.863 107.275 220.799 108.441 219.418 109.244C218.055 110.028 216.459 110.42 214.63 110.42ZM214.63 109.86C215.358 109.86 216.03 109.552 216.646 108.936C217.28 108.32 217.803 107.293 218.214 105.856C218.624 104.419 218.83 102.533 218.83 100.2C218.83 97.8667 218.624 95.9813 218.214 94.544C217.803 93.1067 217.28 92.08 216.646 91.464C216.03 90.848 215.358 90.54 214.63 90.54C213.902 90.54 213.22 90.848 212.586 91.464C211.97 92.08 211.456 93.1067 211.046 94.544C210.635 95.9813 210.43 97.8667 210.43 100.2C210.43 102.533 210.635 104.419 211.046 105.856C211.456 107.293 211.97 108.32 212.586 108.936C213.22 109.552 213.902 109.86 214.63 109.86ZM226.396 109.58L228.076 109.16V91.24L226.396 90.82V90.4H234.376V90.82L232.696 91.24V109.3H238.716C238.716 108.124 239.015 107.032 239.612 106.024C239.873 105.595 240.181 105.24 240.536 104.96H241.376V110H226.396V109.58ZM243.486 110V109.58L245.166 109.16V91.24L243.486 90.82V90.4H251.466V90.82L249.786 91.24V109.16L251.466 109.58V110H243.486ZM263.219 110.42C261.39 110.42 259.785 110.028 258.403 109.244C257.041 108.441 255.986 107.275 255.239 105.744C254.493 104.213 254.119 102.365 254.119 100.2C254.119 98.0347 254.493 96.1867 255.239 94.656C255.986 93.1253 257.041 91.968 258.403 91.184C259.785 90.3813 261.39 89.98 263.219 89.98C265.049 89.98 266.645 90.3813 268.007 91.184C269.389 91.968 270.453 93.1253 271.199 94.656C271.946 96.1867 272.319 98.0347 272.319 100.2C272.319 102.365 271.946 104.213 271.199 105.744C270.453 107.275 269.389 108.441 268.007 109.244C266.645 110.028 265.049 110.42 263.219 110.42ZM263.219 109.86C263.947 109.86 264.619 109.552 265.235 108.936C265.87 108.32 266.393 107.293 266.803 105.856C267.214 104.419 267.419 102.533 267.419 100.2C267.419 97.8667 267.214 95.9813 266.803 94.544C266.393 93.1067 265.87 92.08 265.235 91.464C264.619 90.848 263.947 90.54 263.219 90.54C262.491 90.54 261.81 90.848 261.175 91.464C260.559 92.08 260.046 93.1067 259.635 94.544C259.225 95.9813 259.019 97.8667 259.019 100.2C259.019 102.533 259.225 104.419 259.635 105.856C260.046 107.293 260.559 108.32 261.175 108.936C261.81 109.552 262.491 109.86 263.219 109.86Z" fill="url(#paint0_linear_5_12)"/>
<path d="M112.4 45.58L112.376 45.483L112.3 45.5019V45.58H112.4ZM114.08 45.16L114.104 45.257L114.18 45.2381V45.16H114.08ZM114.08 27.24H114.18V27.1619L114.104 27.143L114.08 27.24ZM112.4 26.82H112.3V26.8981L112.376 26.917L112.4 26.82ZM112.4 26.4V26.3H112.3V26.4H112.4ZM127.212 28.976L127.142 29.0478L127.143 29.0482L127.212 28.976ZM127.212 43.424L127.143 43.3518L127.142 43.3522L127.212 43.424ZM112.4 46H112.3V46.1H112.4V46ZM123.572 43.2L123.655 43.2562L123.655 43.2557L123.572 43.2ZM123.572 29.228L123.489 29.2837L123.489 29.2842L123.572 29.228ZM118.7 27.1V27H118.6V27.1H118.7ZM118.7 45.3H118.6V45.4H118.7V45.3ZM112.424 45.677L114.104 45.257L114.056 45.063L112.376 45.483L112.424 45.677ZM114.18 45.16V27.24H113.98V45.16H114.18ZM114.104 27.143L112.424 26.723L112.376 26.917L114.056 27.337L114.104 27.143ZM112.5 26.82V26.4H112.3V26.82H112.5ZM112.4 26.5H119.54V26.3H112.4V26.5ZM119.54 26.5C122.865 26.5 125.394 27.3542 127.142 29.0478L127.282 28.9042C125.484 27.1631 122.898 26.3 119.54 26.3V26.5ZM127.143 29.0482C128.91 30.7422 129.8 33.1214 129.8 36.2H130C130 33.0813 129.098 30.6445 127.281 28.9038L127.143 29.0482ZM129.8 36.2C129.8 39.2786 128.91 41.6578 127.143 43.3518L127.281 43.4962C129.098 41.7555 130 39.3187 130 36.2H129.8ZM127.142 43.3522C125.394 45.0458 122.865 45.9 119.54 45.9V46.1C122.898 46.1 125.484 45.2369 127.282 43.4958L127.142 43.3522ZM119.54 45.9H112.4V46.1H119.54V45.9ZM112.5 46V45.58H112.3V46H112.5ZM119.54 45.4C121.308 45.4 122.684 44.6844 123.655 43.2562L123.489 43.1438C122.556 44.5156 121.244 45.2 119.54 45.2V45.4ZM123.655 43.2557C124.624 41.8114 125.1 39.4527 125.1 36.2H124.9C124.9 39.4433 124.424 41.7513 123.489 43.1443L123.655 43.2557ZM125.1 36.2C125.1 32.9475 124.624 30.5977 123.655 29.1718L123.489 29.2842C124.424 30.6583 124.9 32.9565 124.9 36.2H125.1ZM123.655 29.1723C122.684 27.7254 121.309 27 119.54 27V27.2C121.243 27.2 122.556 27.8933 123.489 29.2837L123.655 29.1723ZM119.54 27H118.7V27.2H119.54V27ZM118.6 27.1V45.3H118.8V27.1H118.6ZM118.7 45.4H119.54V45.2H118.7V45.4ZM129.608 45.58L129.573 45.4864L129.508 45.5107V45.58H129.608ZM131.848 44.74L131.883 44.8336L131.924 44.8184L131.94 44.7782L131.848 44.74ZM139.548 26.12V26.02H139.481L139.456 26.0818L139.548 26.12ZM140.388 26.12L140.48 26.0813L140.454 26.02H140.388V26.12ZM148.368 45.16L148.276 45.1987L148.294 45.2422L148.339 45.2558L148.368 45.16ZM149.768 45.58H149.868V45.5056L149.797 45.4842L149.768 45.58ZM149.768 46V46.1H149.868V46H149.768ZM144.028 45.356L143.969 45.4369L143.971 45.438L144.028 45.356ZM142.656 43.62L142.748 43.5812L142.748 43.5809L142.656 43.62ZM141.228 40.26L141.32 40.2209L141.294 40.16H141.228V40.26ZM134.536 40.26V40.16H134.469L134.444 40.2219L134.536 40.26ZM132.688 44.74L132.596 44.7019L132.557 44.7953L132.651 44.8328L132.688 44.74ZM134.788 45.58H134.888V45.5123L134.825 45.4872L134.788 45.58ZM134.788 46V46.1H134.888V46H134.788ZM129.608 46H129.508V46.1H129.608V46ZM134.816 39.56L134.724 39.5217L134.666 39.66H134.816V39.56ZM140.948 39.56V39.66H141.098L141.04 39.5214L140.948 39.56ZM137.868 32.196L137.96 32.1574L137.868 31.9358L137.776 32.1577L137.868 32.196ZM139.184 25L139.087 24.9742L139.054 25.1H139.184V25ZM140.304 20.8V20.7H140.227L140.207 20.7742L140.304 20.8ZM143.944 20.8L144.018 20.8669L144.169 20.7H143.944V20.8ZM140.164 25V25.1H140.209L140.238 25.0669L140.164 25ZM129.643 45.6736L131.883 44.8336L131.813 44.6464L129.573 45.4864L129.643 45.6736ZM131.94 44.7782L139.64 26.1582L139.456 26.0818L131.756 44.7018L131.94 44.7782ZM139.548 26.22H140.388V26.02H139.548V26.22ZM140.296 26.1587L148.276 45.1987L148.46 45.1213L140.48 26.0813L140.296 26.1587ZM148.339 45.2558L149.739 45.6758L149.797 45.4842L148.397 45.0642L148.339 45.2558ZM149.668 45.58V46H149.868V45.58H149.668ZM149.768 45.9H146.408V46.1H149.768V45.9ZM146.408 45.9C145.452 45.9 144.68 45.6886 144.085 45.274L143.971 45.438C144.608 45.8821 145.423 46.1 146.408 46.1V45.9ZM144.087 45.2751C143.486 44.838 143.04 44.2739 142.748 43.5812L142.564 43.6588C142.869 44.3848 143.338 44.978 143.969 45.4369L144.087 45.2751ZM142.748 43.5809L141.32 40.2209L141.136 40.2991L142.564 43.6591L142.748 43.5809ZM141.228 40.16H134.536V40.36H141.228V40.16ZM134.444 40.2219L132.596 44.7019L132.78 44.7781L134.628 40.2981L134.444 40.2219ZM132.651 44.8328L134.751 45.6728L134.825 45.4872L132.725 44.6472L132.651 44.8328ZM134.688 45.58V46H134.888V45.58H134.688ZM134.788 45.9H129.608V46.1H134.788V45.9ZM129.708 46V45.58H129.508V46H129.708ZM134.816 39.66H140.948V39.46H134.816V39.66ZM141.04 39.5214L137.96 32.1574L137.776 32.2346L140.856 39.5986L141.04 39.5214ZM137.776 32.1577L134.724 39.5217L134.908 39.5983L137.96 32.2343L137.776 32.1577ZM139.281 25.0258L140.401 20.8258L140.207 20.7742L139.087 24.9742L139.281 25.0258ZM140.304 20.9H143.944V20.7H140.304V20.9ZM143.87 20.7331L140.09 24.9331L140.238 25.0669L144.018 20.8669L143.87 20.7331ZM140.164 24.9H139.184V25.1H140.164V24.9ZM148.207 27.24L148.299 27.1996L148.28 27.1575L148.236 27.1442L148.207 27.24ZM146.807 26.82H146.707V26.8944L146.778 26.9158L146.807 26.82ZM146.807 26.4V26.3H146.707V26.4H146.807ZM152.547 27.072L152.488 27.1529L152.49 27.154L152.547 27.072ZM153.947 28.78L154.039 28.7398L154.038 28.7392L153.947 28.78ZM158.903 40.064L158.812 40.1042L158.911 40.3313L158.997 40.0985L158.903 40.064ZM163.467 27.66L163.561 27.6945L163.595 27.6033L163.504 27.5672L163.467 27.66ZM161.367 26.82H161.267V26.8877L161.33 26.9128L161.367 26.82ZM161.367 26.4V26.3H161.267V26.4H161.367ZM166.547 26.4H166.647V26.3H166.547V26.4ZM166.547 26.82L166.582 26.9136L166.647 26.8893V26.82H166.547ZM164.307 27.66L164.272 27.5664L164.229 27.5824L164.213 27.6254L164.307 27.66ZM157.447 46.28V46.38H157.517L157.541 46.3146L157.447 46.28ZM156.607 46.28L156.516 46.3204L156.542 46.38H156.607V46.28ZM148.236 27.1442L146.836 26.7242L146.778 26.9158L148.178 27.3358L148.236 27.1442ZM146.907 26.82V26.4H146.707V26.82H146.907ZM146.807 26.5H150.167V26.3H146.807V26.5ZM150.167 26.5C151.123 26.5 151.894 26.7203 152.488 27.1529L152.606 26.9911C151.969 26.5277 151.153 26.3 150.167 26.3V26.5ZM152.49 27.154C153.091 27.5726 153.546 28.1275 153.856 28.8208L154.038 28.7392C153.714 28.0139 153.236 27.43 152.604 26.99L152.49 27.154ZM153.856 28.8202L158.812 40.1042L158.995 40.0238L154.039 28.7398L153.856 28.8202ZM158.997 40.0985L163.561 27.6945L163.373 27.6255L158.809 40.0295L158.997 40.0985ZM163.504 27.5672L161.404 26.7272L161.33 26.9128L163.43 27.7528L163.504 27.5672ZM161.467 26.82V26.4H161.267V26.82H161.467ZM161.367 26.5H166.547V26.3H161.367V26.5ZM166.447 26.4V26.82H166.647V26.4H166.447ZM166.512 26.7264L164.272 27.5664L164.342 27.7536L166.582 26.9136L166.512 26.7264ZM164.213 27.6254L157.353 46.2454L157.541 46.3146L164.401 27.6946L164.213 27.6254ZM157.447 46.18H156.607V46.38H157.447V46.18ZM156.699 46.2396L148.299 27.1996L148.116 27.2804L156.516 46.3204L156.699 46.2396ZM167.388 46H167.288V46.1H167.388V46ZM167.388 45.58L167.364 45.483L167.288 45.5019V45.58H167.388ZM169.068 45.16L169.093 45.257L169.168 45.2381V45.16H169.068ZM169.068 27.24H169.168V27.1619L169.093 27.143L169.068 27.24ZM167.388 26.82H167.288V26.8981L167.364 26.917L167.388 26.82ZM167.388 26.4V26.3H167.288V26.4H167.388ZM175.368 26.4H175.468V26.3H175.368V26.4ZM175.368 26.82L175.393 26.917L175.468 26.8981V26.82H175.368ZM173.688 27.24L173.664 27.143L173.588 27.1619V27.24H173.688ZM173.688 45.16H173.588V45.2381L173.664 45.257L173.688 45.16ZM175.368 45.58H175.468V45.5019L175.393 45.483L175.368 45.58ZM175.368 46V46.1H175.468V46H175.368ZM167.488 46V45.58H167.288V46H167.488ZM167.413 45.677L169.093 45.257L169.044 45.063L167.364 45.483L167.413 45.677ZM169.168 45.16V27.24H168.968V45.16H169.168ZM169.093 27.143L167.413 26.723L167.364 26.917L169.044 27.337L169.093 27.143ZM167.488 26.82V26.4H167.288V26.82H167.488ZM167.388 26.5H175.368V26.3H167.388V26.5ZM175.268 26.4V26.82H175.468V26.4H175.268ZM175.344 26.723L173.664 27.143L173.713 27.337L175.393 26.917L175.344 26.723ZM173.588 27.24V45.16H173.788V27.24H173.588ZM173.664 45.257L175.344 45.677L175.393 45.483L173.713 45.063L173.664 45.257ZM175.268 45.58V46H175.468V45.58H175.268ZM175.368 45.9H167.388V46.1H175.368V45.9ZM177.888 45.58L177.864 45.483L177.788 45.5019V45.58H177.888ZM179.568 45.16L179.593 45.257L179.668 45.2381V45.16H179.568ZM179.568 27.24H179.668V27.1619L179.593 27.143L179.568 27.24ZM177.888 26.82H177.788V26.8981L177.864 26.917L177.888 26.82ZM177.888 26.4V26.3H177.788V26.4H177.888ZM192.7 28.976L192.631 29.0478L192.631 29.0482L192.7 28.976ZM192.7 43.424L192.631 43.3518L192.631 43.3522L192.7 43.424ZM177.888 46H177.788V46.1H177.888V46ZM189.06 43.2L189.143 43.2562L189.143 43.2557L189.06 43.2ZM189.06 29.228L188.977 29.2837L188.978 29.2842L189.06 29.228ZM184.188 27.1V27H184.088V27.1H184.188ZM184.188 45.3H184.088V45.4H184.188V45.3ZM177.913 45.677L179.593 45.257L179.544 45.063L177.864 45.483L177.913 45.677ZM179.668 45.16V27.24H179.468V45.16H179.668ZM179.593 27.143L177.913 26.723L177.864 26.917L179.544 27.337L179.593 27.143ZM177.988 26.82V26.4H177.788V26.82H177.988ZM177.888 26.5H185.028V26.3H177.888V26.5ZM185.028 26.5C188.353 26.5 190.882 27.3542 192.631 29.0478L192.77 28.9042C190.972 27.1631 188.386 26.3 185.028 26.3V26.5ZM192.631 29.0482C194.399 30.7422 195.288 33.1214 195.288 36.2H195.488C195.488 33.0813 194.586 30.6445 192.769 28.9038L192.631 29.0482ZM195.288 36.2C195.288 39.2786 194.399 41.6578 192.631 43.3518L192.769 43.4962C194.586 41.7555 195.488 39.3187 195.488 36.2H195.288ZM192.631 43.3522C190.882 45.0458 188.353 45.9 185.028 45.9V46.1C188.386 46.1 190.972 45.2369 192.77 43.4958L192.631 43.3522ZM185.028 45.9H177.888V46.1H185.028V45.9ZM177.988 46V45.58H177.788V46H177.988ZM185.028 45.4C186.796 45.4 188.172 44.6844 189.143 43.2562L188.978 43.1438C188.045 44.5156 186.732 45.2 185.028 45.2V45.4ZM189.143 43.2557C190.113 41.8114 190.588 39.4527 190.588 36.2H190.388C190.388 39.4433 189.912 41.7513 188.977 43.1443L189.143 43.2557ZM190.588 36.2C190.588 32.9475 190.113 30.5977 189.143 29.1718L188.978 29.2842C189.912 30.6583 190.388 32.9565 190.388 36.2H190.588ZM189.143 29.1723C188.172 27.7254 186.797 27 185.028 27V27.2C186.732 27.2 188.044 27.8933 188.977 29.2837L189.143 29.1723ZM185.028 27H184.188V27.2H185.028V27ZM184.088 27.1V45.3H184.288V27.1H184.088ZM184.188 45.4H185.028V45.2H184.188V45.4ZM112.4 78H112.3V78.1H112.4V78ZM112.4 77.58L112.376 77.483L112.3 77.5019V77.58H112.4ZM114.08 77.16L114.104 77.257L114.18 77.2381V77.16H114.08ZM114.08 59.24H114.18V59.1619L114.104 59.143L114.08 59.24ZM112.4 58.82H112.3V58.8981L112.376 58.917L112.4 58.82ZM112.4 58.4V58.3H112.3V58.4H112.4ZM120.38 58.4H120.48V58.3H120.38V58.4ZM120.38 58.82L120.404 58.917L120.48 58.8981V58.82H120.38ZM118.7 59.24L118.676 59.143L118.6 59.1619V59.24H118.7ZM118.7 77.16H118.6V77.2381L118.676 77.257L118.7 77.16ZM120.38 77.58H120.48V77.5019L120.404 77.483L120.38 77.58ZM120.38 78V78.1H120.48V78H120.38ZM112.5 78V77.58H112.3V78H112.5ZM112.424 77.677L114.104 77.257L114.056 77.063L112.376 77.483L112.424 77.677ZM114.18 77.16V59.24H113.98V77.16H114.18ZM114.104 59.143L112.424 58.723L112.376 58.917L114.056 59.337L114.104 59.143ZM112.5 58.82V58.4H112.3V58.82H112.5ZM112.4 58.5H120.38V58.3H112.4V58.5ZM120.28 58.4V58.82H120.48V58.4H120.28ZM120.356 58.723L118.676 59.143L118.724 59.337L120.404 58.917L120.356 58.723ZM118.6 59.24V77.16H118.8V59.24H118.6ZM118.676 77.257L120.356 77.677L120.404 77.483L118.724 77.063L118.676 77.257ZM120.28 77.58V78H120.48V77.58H120.28ZM120.38 77.9H112.4V78.1H120.38V77.9ZM125.42 63.16L125.496 63.0951L125.32 62.8887V63.16H125.42ZM125.42 76.74H125.32V76.8093L125.385 76.8336L125.42 76.74ZM127.66 77.58H127.76V77.5107L127.695 77.4864L127.66 77.58ZM127.66 78V78.1H127.76V78H127.66ZM122.34 78H122.24V78.1H122.34V78ZM122.34 77.58L122.305 77.4864L122.24 77.5107V77.58H122.34ZM124.58 76.74L124.615 76.8336L124.68 76.8093V76.74H124.58ZM124.58 59.38H124.68V59.3046L124.607 59.2838L124.58 59.38ZM122.62 58.82H122.52V58.8954L122.593 58.9162L122.62 58.82ZM122.62 58.4V58.3H122.52V58.4H122.62ZM129.48 60.36L129.404 60.4245L129.404 60.4249L129.48 60.36ZM138.44 70.86L138.364 70.9249L138.54 71.1312V70.86H138.44ZM138.44 59.66H138.54V59.5907L138.475 59.5664L138.44 59.66ZM136.2 58.82H136.1V58.8893L136.165 58.9136L136.2 58.82ZM136.2 58.4V58.3H136.1V58.4H136.2ZM141.52 58.4H141.62V58.3H141.52V58.4ZM141.52 58.82L141.555 58.9136L141.62 58.8893V58.82H141.52ZM139.28 59.66L139.245 59.5664L139.18 59.5907V59.66H139.28ZM139.28 78.42V78.52H139.38V78.42H139.28ZM138.44 78.42L138.364 78.4849L138.394 78.52H138.44V78.42ZM125.32 63.16V76.74H125.52V63.16H125.32ZM125.385 76.8336L127.625 77.6736L127.695 77.4864L125.455 76.6464L125.385 76.8336ZM127.56 77.58V78H127.76V77.58H127.56ZM127.66 77.9H122.34V78.1H127.66V77.9ZM122.44 78V77.58H122.24V78H122.44ZM122.375 77.6736L124.615 76.8336L124.545 76.6464L122.305 77.4864L122.375 77.6736ZM124.68 76.74V59.38H124.48V76.74H124.68ZM124.607 59.2838L122.647 58.7238L122.593 58.9162L124.553 59.4762L124.607 59.2838ZM122.72 58.82V58.4H122.52V58.82H122.72ZM122.62 58.5H125.56V58.3H122.62V58.5ZM125.56 58.5C126.539 58.5 127.293 58.6758 127.83 59.0165L127.938 58.8475C127.355 58.4789 126.56 58.3 125.56 58.3V58.5ZM127.83 59.0165C128.38 59.3648 128.905 59.8336 129.404 60.4245L129.556 60.2955C129.047 59.6917 128.508 59.2085 127.938 58.8475L127.83 59.0165ZM129.404 60.4249L138.364 70.9249L138.516 70.7951L129.556 60.2951L129.404 60.4249ZM138.54 70.86V59.66H138.34V70.86H138.54ZM138.475 59.5664L136.235 58.7264L136.165 58.9136L138.405 59.7536L138.475 59.5664ZM136.3 58.82V58.4H136.1V58.82H136.3ZM136.2 58.5H141.52V58.3H136.2V58.5ZM141.42 58.4V58.82H141.62V58.4H141.42ZM141.485 58.7264L139.245 59.5664L139.315 59.7536L141.555 58.9136L141.485 58.7264ZM139.18 59.66V78.42H139.38V59.66H139.18ZM139.28 78.32H138.44V78.52H139.28V78.32ZM138.516 78.3551L125.496 63.0951L125.344 63.2249L138.364 78.4849L138.516 78.3551ZM147.407 77.216L147.351 77.299L147.351 77.299L147.407 77.216ZM144.551 73.716L144.46 73.7576L144.46 73.758L144.551 73.716ZM144.579 62.684L144.488 62.6406L144.488 62.641L144.579 62.684ZM147.687 59.184L147.737 59.2701L147.738 59.2699L147.687 59.184ZM155.555 58.904L155.505 58.9909L155.507 58.9918L155.555 58.904ZM156.787 59.8L156.719 59.874L156.806 59.9529L156.87 59.8547L156.787 59.8ZM157.767 58.652L157.708 58.5707L157.703 58.5752L157.767 58.652ZM158.327 58.26V58.16H158.303L158.282 58.1706L158.327 58.26ZM159.027 58.26H159.127V58.16H159.027V58.26ZM159.027 63.58V63.68H159.127V63.58H159.027ZM157.907 63.58L157.81 63.6061L157.83 63.68H157.907V63.58ZM156.815 61.144L156.73 61.1974L156.731 61.1995L156.815 61.144ZM155.135 59.38L155.076 59.4614L155.078 59.4621L155.135 59.38ZM149.647 60.92L149.56 60.8702L149.559 60.871L149.647 60.92ZM149.507 75.34L149.418 75.3871L149.419 75.388L149.507 75.34ZM154.323 76.32L154.403 76.38L154.403 76.3791L154.323 76.32ZM154.967 75.2L155.057 75.2433L155.067 75.2228V75.2H154.967ZM154.967 68.76H155.067V68.6819L154.991 68.663L154.967 68.76ZM153.287 68.34H153.187V68.4181L153.262 68.437L153.287 68.34ZM153.287 67.92V67.82H153.187V67.92H153.287ZM161.267 67.92H161.367V67.82H161.267V67.92ZM161.267 68.34L161.291 68.437L161.367 68.4181V68.34H161.267ZM159.587 68.76L159.562 68.663L159.487 68.6819V68.76H159.587ZM159.587 78.14V78.24H159.687V78.14H159.587ZM156.059 77.02L155.986 77.0887L155.986 77.0889L156.059 77.02ZM155.387 75.9L155.482 75.8697L155.412 75.65L155.299 75.8511L155.387 75.9ZM154.463 77.16L154.533 77.2307L154.535 77.2289L154.463 77.16ZM151.327 78.32C149.928 78.32 148.641 77.9248 147.462 77.133L147.351 77.299C148.562 78.1126 149.888 78.52 151.327 78.52V78.32ZM147.462 77.133C146.285 76.3422 145.344 75.1909 144.641 73.674L144.46 73.758C145.176 75.3024 146.139 76.4845 147.351 77.299L147.462 77.133ZM144.641 73.6744C143.939 72.1409 143.587 70.3171 143.587 68.2H143.387C143.387 70.3389 143.743 72.1924 144.46 73.7576L144.641 73.6744ZM143.587 68.2C143.587 66.0644 143.949 64.2411 144.669 62.7269L144.488 62.641C143.752 64.1882 143.387 66.0423 143.387 68.2H143.587ZM144.669 62.7274C145.408 61.1937 146.431 60.0429 147.737 59.2701L147.636 59.0979C146.291 59.8931 145.243 61.0756 144.488 62.6406L144.669 62.7274ZM147.738 59.2699C149.065 58.4775 150.596 58.08 152.335 58.08V57.88C150.564 57.88 148.997 58.2851 147.635 59.0981L147.738 59.2699ZM152.335 58.08C153.378 58.08 154.435 58.382 155.505 58.9909L155.604 58.8171C154.509 58.194 153.419 57.88 152.335 57.88V58.08ZM155.507 58.9918C155.909 59.2113 156.313 59.5051 156.719 59.874L156.854 59.726C156.438 59.3483 156.021 59.0446 155.602 58.8162L155.507 58.9918ZM156.87 59.8547C157.184 59.3752 157.504 59.0008 157.831 58.7288L157.703 58.5752C157.357 58.8632 157.024 59.2542 156.703 59.7453L156.87 59.8547ZM157.825 58.7331C157.993 58.6118 158.123 58.5188 158.216 58.4539C158.262 58.4214 158.299 58.3963 158.326 58.3782C158.34 58.3692 158.35 58.3622 158.359 58.357C158.363 58.3545 158.366 58.3526 158.368 58.3512C158.371 58.3497 158.372 58.3493 158.371 58.3494L158.282 58.1706C158.266 58.1785 158.242 58.1939 158.215 58.2118C158.186 58.2311 158.148 58.2572 158.101 58.2901C158.007 58.3558 157.876 58.4495 157.708 58.5709L157.825 58.7331ZM158.327 58.36H159.027V58.16H158.327V58.36ZM158.927 58.26V63.58H159.127V58.26H158.927ZM159.027 63.48H157.907V63.68H159.027V63.48ZM158.003 63.5539C157.758 62.6481 157.389 61.8261 156.898 61.0885L156.731 61.1995C157.21 61.9179 157.57 62.7199 157.81 63.6061L158.003 63.5539ZM156.899 61.0906C156.444 60.3702 155.875 59.7724 155.192 59.2979L155.078 59.4621C155.738 59.921 156.289 60.4991 156.73 61.1974L156.899 61.0906ZM155.193 59.2986C154.521 58.819 153.745 58.58 152.867 58.58V58.78C153.706 58.78 154.441 59.0077 155.076 59.4614L155.193 59.2986ZM152.867 58.58C151.531 58.58 150.43 59.3577 149.56 60.8702L149.733 60.9698C150.581 59.4956 151.626 58.78 152.867 58.78V58.58ZM149.559 60.871C148.706 62.3878 148.287 64.8364 148.287 68.2H148.487C148.487 64.8436 148.907 62.4389 149.734 60.969L149.559 60.871ZM148.287 68.2C148.287 71.562 148.659 73.9637 149.418 75.3871L149.595 75.2929C148.861 73.9163 148.487 71.558 148.487 68.2H148.287ZM149.419 75.388C150.195 76.8077 151.203 77.54 152.447 77.54V77.34C151.301 77.34 150.349 76.6723 149.594 75.292L149.419 75.388ZM152.447 77.54C153.179 77.54 153.831 77.1423 154.403 76.38L154.243 76.26C153.694 76.991 153.095 77.34 152.447 77.34V77.54ZM154.403 76.3791C154.613 76.0924 154.831 75.7131 155.057 75.2433L154.876 75.1567C154.654 75.6202 154.442 75.9876 154.242 76.2609L154.403 76.3791ZM155.067 75.2V68.76H154.867V75.2H155.067ZM154.991 68.663L153.311 68.243L153.262 68.437L154.942 68.857L154.991 68.663ZM153.387 68.34V67.92H153.187V68.34H153.387ZM153.287 68.02H161.267V67.82H153.287V68.02ZM161.167 67.92V68.34H161.367V67.92H161.167ZM161.242 68.243L159.562 68.663L159.611 68.857L161.291 68.437L161.242 68.243ZM159.487 68.76V78.14H159.687V68.76H159.487ZM159.587 78.04H159.167V78.24H159.587V78.04ZM159.167 78.04C157.822 78.04 156.816 77.6721 156.131 76.9511L155.986 77.0889C156.72 77.8612 157.786 78.24 159.167 78.24V78.04ZM156.131 76.9513C155.823 76.6255 155.608 76.265 155.482 75.8697L155.291 75.9303C155.427 76.3563 155.659 76.7425 155.986 77.0887L156.131 76.9513ZM155.299 75.8511C155.042 76.3108 154.739 76.7241 154.39 77.0911L154.535 77.2289C154.896 76.8493 155.209 76.4225 155.474 75.9489L155.299 75.8511ZM154.392 77.0893C153.572 77.9095 152.552 78.32 151.327 78.32V78.52C152.602 78.52 153.673 78.0905 154.533 77.2307L154.392 77.0893ZM163.232 77.58L163.208 77.483L163.132 77.5019V77.58H163.232ZM164.912 77.16L164.936 77.257L165.012 77.2381V77.16H164.912ZM164.912 59.24H165.012V59.1619L164.936 59.143L164.912 59.24ZM163.232 58.82H163.132V58.8981L163.208 58.917L163.232 58.82ZM163.232 58.4V58.3H163.132V58.4H163.232ZM171.212 58.4H171.312V58.3H171.212V58.4ZM171.212 58.82L171.236 58.917L171.312 58.8981V58.82H171.212ZM169.532 59.24L169.508 59.143L169.432 59.1619V59.24H169.532ZM169.532 77.3H169.432V77.4H169.532V77.3ZM175.552 77.3V77.4H175.652V77.3H175.552ZM176.448 74.024L176.363 73.972L176.362 73.973L176.448 74.024ZM177.372 72.96V72.86H177.337L177.31 72.8815L177.372 72.96ZM178.212 72.96H178.312V72.86H178.212V72.96ZM178.212 78V78.1H178.312V78H178.212ZM163.232 78H163.132V78.1H163.232V78ZM163.256 77.677L164.936 77.257L164.888 77.063L163.208 77.483L163.256 77.677ZM165.012 77.16V59.24H164.812V77.16H165.012ZM164.936 59.143L163.256 58.723L163.208 58.917L164.888 59.337L164.936 59.143ZM163.332 58.82V58.4H163.132V58.82H163.332ZM163.232 58.5H171.212V58.3H163.232V58.5ZM171.112 58.4V58.82H171.312V58.4H171.112ZM171.188 58.723L169.508 59.143L169.556 59.337L171.236 58.917L171.188 58.723ZM169.432 59.24V77.3H169.632V59.24H169.432ZM169.532 77.4H175.552V77.2H169.532V77.4ZM175.652 77.3C175.652 76.1419 175.946 75.0675 176.534 74.075L176.362 73.973C175.755 74.9965 175.452 76.1061 175.452 77.3H175.652ZM176.533 74.076C176.789 73.6557 177.09 73.3103 177.434 73.0385L177.31 72.8815C176.945 73.1697 176.629 73.5337 176.363 73.972L176.533 74.076ZM177.372 73.06H178.212V72.86H177.372V73.06ZM178.112 72.96V78H178.312V72.96H178.112ZM178.212 77.9H163.232V78.1H178.212V77.9ZM163.332 78V77.58H163.132V78H163.332ZM183.919 77.244L183.868 77.3302L183.87 77.331L183.919 77.244ZM180.755 73.744L180.845 73.7002L180.845 73.7002L180.755 73.744ZM180.755 62.656L180.665 62.6122L180.755 62.656ZM183.919 59.184L183.969 59.2707L183.969 59.2705L183.919 59.184ZM193.523 59.184L193.472 59.2702L193.474 59.271L193.523 59.184ZM196.715 62.656L196.805 62.6122L196.715 62.656ZM196.715 73.744L196.625 73.7002L196.625 73.7002L196.715 73.744ZM193.523 77.244L193.573 77.3307L193.573 77.3305L193.523 77.244ZM190.751 76.936L190.681 76.8642L190.68 76.8653L190.751 76.936ZM192.319 73.856L192.415 73.8835L192.415 73.8835L192.319 73.856ZM192.319 62.544L192.415 62.5165L192.415 62.5165L192.319 62.544ZM190.751 59.464L190.68 59.5347L190.681 59.5358L190.751 59.464ZM186.691 59.464L186.621 59.3922L186.62 59.3933L186.691 59.464ZM185.151 62.544L185.055 62.5165L185.055 62.5165L185.151 62.544ZM185.151 73.856L185.247 73.8285L185.247 73.8285L185.151 73.856ZM186.691 76.936L186.62 77.0067L186.621 77.0078L186.691 76.936ZM188.735 78.32C186.92 78.32 185.332 77.9313 183.968 77.157L183.87 77.331C185.268 78.1247 186.891 78.52 188.735 78.52V78.32ZM183.97 77.1578C182.625 76.3659 181.584 75.2146 180.845 73.7002L180.665 73.7878C181.42 75.3347 182.487 76.5168 183.868 77.3302L183.97 77.1578ZM180.845 73.7002C180.106 72.1863 179.735 70.3541 179.735 68.2H179.535C179.535 70.3765 179.91 72.2403 180.665 73.7878L180.845 73.7002ZM179.735 68.2C179.735 66.0459 180.106 64.2137 180.845 62.6998L180.665 62.6122C179.91 64.1597 179.535 66.0235 179.535 68.2H179.735ZM180.845 62.6998C181.584 61.1856 182.625 60.0439 183.969 59.2707L183.869 59.0973C182.488 59.8921 181.42 61.0651 180.665 62.6122L180.845 62.6998ZM183.969 59.2705C185.333 58.4779 186.921 58.08 188.735 58.08V57.88C186.891 57.88 185.267 58.2848 183.869 59.0975L183.969 59.2705ZM188.735 58.08C190.549 58.08 192.127 58.4779 193.472 59.2702L193.574 59.0978C192.193 58.2848 190.579 57.88 188.735 57.88V58.08ZM193.474 59.271C194.836 60.0443 195.887 61.1859 196.625 62.6998L196.805 62.6122C196.05 61.0647 194.973 59.8917 193.572 59.097L193.474 59.271ZM196.625 62.6998C197.364 64.2137 197.735 66.0459 197.735 68.2H197.935C197.935 66.0235 197.56 64.1597 196.805 62.6122L196.625 62.6998ZM197.735 68.2C197.735 70.3541 197.364 72.1863 196.625 73.7002L196.805 73.7878C197.56 72.2403 197.935 70.3765 197.935 68.2H197.735ZM196.625 73.7002C195.887 75.2142 194.836 76.3655 193.473 77.1575L193.573 77.3305C194.973 76.5172 196.05 75.3351 196.805 73.7878L196.625 73.7002ZM193.473 77.1573C192.128 77.9313 190.55 78.32 188.735 78.32V78.52C190.579 78.52 192.193 78.1247 193.573 77.3307L193.473 77.1573ZM188.735 77.96C189.495 77.96 190.191 77.6375 190.822 77.0067L190.68 76.8653C190.079 77.4665 189.431 77.76 188.735 77.76V77.96ZM190.821 77.0078C191.474 76.3738 192.003 75.3274 192.415 73.8835L192.223 73.8285C191.814 75.2593 191.298 76.2662 190.681 76.8642L190.821 77.0078ZM192.415 73.8835C192.829 72.4337 193.035 70.538 193.035 68.2H192.835C192.835 70.5286 192.63 72.4037 192.223 73.8285L192.415 73.8835ZM193.035 68.2C193.035 65.862 192.829 63.9663 192.415 62.5165L192.223 62.5715C192.63 63.9963 192.835 65.8714 192.835 68.2H193.035ZM192.415 62.5165C192.003 61.0726 191.474 60.0262 190.821 59.3922L190.681 59.5358C191.298 60.1338 191.814 61.1407 192.223 62.5715L192.415 62.5165ZM190.822 59.3933C190.191 58.7625 189.495 58.44 188.735 58.44V58.64C189.431 58.64 190.079 58.9335 190.68 59.5347L190.822 59.3933ZM188.735 58.44C187.976 58.44 187.27 58.7623 186.621 59.3922L186.761 59.5358C187.381 58.9337 188.038 58.64 188.735 58.64V58.44ZM186.62 59.3933C185.987 60.0271 185.467 61.0731 185.055 62.5165L185.247 62.5715C185.656 61.1403 186.163 60.1329 186.762 59.5347L186.62 59.3933ZM185.055 62.5165C184.641 63.9663 184.435 65.862 184.435 68.2H184.635C184.635 65.8714 184.84 63.9963 185.247 62.5715L185.055 62.5165ZM184.435 68.2C184.435 70.538 184.641 72.4337 185.055 73.8835L185.247 73.8285C184.84 72.4037 184.635 70.5286 184.635 68.2H184.435ZM185.055 73.8835C185.467 75.3269 185.987 76.3729 186.62 77.0067L186.762 76.8653C186.163 76.2671 185.656 75.2597 185.247 73.8285L185.055 73.8835ZM186.621 77.0078C187.27 77.6377 187.976 77.96 188.735 77.96V77.76C188.038 77.76 187.381 77.4663 186.761 76.8642L186.621 77.0078ZM200.502 77.58L200.477 77.483L200.402 77.5019V77.58H200.502ZM202.182 77.16L202.206 77.257L202.282 77.2381V77.16H202.182ZM202.182 59.24H202.282V59.1619L202.206 59.143L202.182 59.24ZM200.502 58.82H200.402V58.8981L200.477 58.917L200.502 58.82ZM200.502 58.4V58.3H200.402V58.4H200.502ZM215.314 60.976L215.244 61.0478L215.244 61.0482L215.314 60.976ZM215.314 75.424L215.244 75.3518L215.244 75.3522L215.314 75.424ZM200.502 78H200.402V78.1H200.502V78ZM211.674 75.2L211.756 75.2562L211.757 75.2557L211.674 75.2ZM211.674 61.228L211.591 61.2837L211.591 61.2842L211.674 61.228ZM206.802 59.1V59H206.702V59.1H206.802ZM206.802 77.3H206.702V77.4H206.802V77.3ZM200.526 77.677L202.206 77.257L202.157 77.063L200.477 77.483L200.526 77.677ZM202.282 77.16V59.24H202.082V77.16H202.282ZM202.206 59.143L200.526 58.723L200.477 58.917L202.157 59.337L202.206 59.143ZM200.602 58.82V58.4H200.402V58.82H200.602ZM200.502 58.5H207.642V58.3H200.502V58.5ZM207.642 58.5C210.966 58.5 213.495 59.3542 215.244 61.0478L215.383 60.9042C213.585 59.1631 210.999 58.3 207.642 58.3V58.5ZM215.244 61.0482C217.012 62.7422 217.902 65.1214 217.902 68.2H218.102C218.102 65.0813 217.199 62.6445 215.383 60.9038L215.244 61.0482ZM217.902 68.2C217.902 71.2786 217.012 73.6578 215.244 75.3518L215.383 75.4962C217.199 73.7555 218.102 71.3187 218.102 68.2H217.902ZM215.244 75.3522C213.495 77.0458 210.966 77.9 207.642 77.9V78.1C210.999 78.1 213.585 77.2369 215.383 75.4958L215.244 75.3522ZM207.642 77.9H200.502V78.1H207.642V77.9ZM200.602 78V77.58H200.402V78H200.602ZM207.642 77.4C209.41 77.4 210.785 76.6844 211.756 75.2562L211.591 75.1438C210.658 76.5156 209.345 77.2 207.642 77.2V77.4ZM211.757 75.2557C212.726 73.8114 213.202 71.4527 213.202 68.2H213.002C213.002 71.4433 212.525 73.7513 211.591 75.1443L211.757 75.2557ZM213.202 68.2C213.202 64.9475 212.726 62.5977 211.756 61.1718L211.591 61.2842C212.525 62.6583 213.002 64.9565 213.002 68.2H213.202ZM211.757 61.1723C210.786 59.7254 209.41 59 207.642 59V59.2C209.345 59.2 210.657 59.8933 211.591 61.2837L211.757 61.1723ZM207.642 59H206.802V59.2H207.642V59ZM206.702 59.1V77.3H206.902V59.1H206.702ZM206.802 77.4H207.642V77.2H206.802V77.4ZM223.73 77.58L223.705 77.483L223.63 77.5019V77.58H223.73ZM225.41 77.16L225.434 77.257L225.51 77.2381V77.16H225.41ZM225.41 70.72H225.51V70.6964L225.499 70.6753L225.41 70.72ZM219.67 59.24L219.759 59.1953L219.74 59.1566L219.698 59.1442L219.67 59.24ZM218.27 58.82H218.17V58.8944L218.241 58.9158L218.27 58.82ZM218.27 58.4V58.3H218.17V58.4H218.27ZM224.094 59.016L224.036 59.0976L224.037 59.0984L224.094 59.016ZM225.55 60.78L225.46 60.8238L225.46 60.8248L225.55 60.78ZM229.694 69.04L229.604 69.0848L229.698 69.272L229.785 69.0813L229.694 69.04ZM233.95 59.66L234.041 59.7013L234.084 59.606L233.987 59.5672L233.95 59.66ZM231.85 58.82H231.75V58.8877L231.812 58.9128L231.85 58.82ZM231.85 58.4V58.3H231.75V58.4H231.85ZM237.17 58.4H237.27V58.3H237.17V58.4ZM237.17 58.82L237.205 58.9136L237.27 58.8893V58.82H237.17ZM234.93 59.66L234.894 59.5664L234.856 59.5809L234.838 59.6186L234.93 59.66ZM230.03 70.44L229.938 70.3986L229.93 70.4183V70.44H230.03ZM230.03 77.16H229.93V77.2381L230.005 77.257L230.03 77.16ZM231.71 77.58H231.81V77.5019L231.734 77.483L231.71 77.58ZM231.71 78V78.1H231.81V78H231.71ZM223.73 78H223.63V78.1H223.73V78ZM223.754 77.677L225.434 77.257L225.385 77.063L223.705 77.483L223.754 77.677ZM225.51 77.16V70.72H225.31V77.16H225.51ZM225.499 70.6753L219.759 59.1953L219.58 59.2847L225.32 70.7647L225.499 70.6753ZM219.698 59.1442L218.298 58.7242L218.241 58.9158L219.641 59.3358L219.698 59.1442ZM218.37 58.82V58.4H218.17V58.82H218.37ZM218.27 58.5H221.77V58.3H218.27V58.5ZM221.77 58.5C222.727 58.5 223.479 58.7026 224.036 59.0975L224.151 58.9344C223.551 58.5081 222.753 58.3 221.77 58.3V58.5ZM224.037 59.0984C224.618 59.4977 225.093 60.0713 225.46 60.8238L225.639 60.7362C225.26 59.958 224.764 59.3556 224.15 58.9336L224.037 59.0984ZM225.46 60.8248L229.604 69.0848L229.783 68.9952L225.639 60.7352L225.46 60.8248ZM229.785 69.0813L234.041 59.7013L233.858 59.6187L229.602 68.9987L229.785 69.0813ZM233.987 59.5672L231.887 58.7272L231.812 58.9128L233.912 59.7528L233.987 59.5672ZM231.95 58.82V58.4H231.75V58.82H231.95ZM231.85 58.5H237.17V58.3H231.85V58.5ZM237.07 58.4V58.82H237.27V58.4H237.07ZM237.134 58.7264L234.894 59.5664L234.965 59.7536L237.205 58.9136L237.134 58.7264ZM234.838 59.6186L229.938 70.3986L230.121 70.4814L235.021 59.7014L234.838 59.6186ZM229.93 70.44V77.16H230.13V70.44H229.93ZM230.005 77.257L231.685 77.677L231.734 77.483L230.054 77.063L230.005 77.257ZM231.61 77.58V78H231.81V77.58H231.61ZM231.71 77.9H223.73V78.1H231.71V77.9ZM223.83 78V77.58H223.63V78H223.83ZM112.4 109.58L112.376 109.483L112.3 109.502V109.58H112.4ZM114.08 109.16L114.104 109.257L114.18 109.238V109.16H114.08ZM114.08 91.24H114.18V91.1619L114.104 91.143L114.08 91.24ZM112.4 90.82H112.3V90.8981L112.376 90.917L112.4 90.82ZM112.4 90.4V90.3H112.3V90.4H112.4ZM126.904 91.94L126.843 92.0195L126.844 92.02L126.904 91.94ZM126.904 100.928L126.964 101.008L126.965 101.007L126.904 100.928ZM118.7 102.44V102.34H118.6V102.44H118.7ZM118.7 109.16H118.6V109.238L118.676 109.257L118.7 109.16ZM120.38 109.58H120.48V109.502L120.404 109.483L120.38 109.58ZM120.38 110V110.1H120.48V110H120.38ZM112.4 110H112.3V110.1H112.4V110ZM123.068 100.396L122.99 100.333L122.99 100.334L123.068 100.396ZM123.068 92.472L122.989 92.5333L122.99 92.5351L123.068 92.472ZM118.7 91.1V91H118.6V91.1H118.7ZM118.7 101.74H118.6V101.84H118.7V101.74ZM112.424 109.677L114.104 109.257L114.056 109.063L112.376 109.483L112.424 109.677ZM114.18 109.16V91.24H113.98V109.16H114.18ZM114.104 91.143L112.424 90.723L112.376 90.917L114.056 91.337L114.104 91.143ZM112.5 90.82V90.4H112.3V90.82H112.5ZM112.4 90.5H120.24V90.3H112.4V90.5ZM120.24 90.5C123.333 90.5 125.526 91.0133 126.843 92.0195L126.965 91.8605C125.594 90.8133 123.345 90.3 120.24 90.3V90.5ZM126.844 92.02C128.158 93.0056 128.82 94.4665 128.82 96.42H129.02C129.02 94.4162 128.338 92.8904 126.964 91.86L126.844 92.02ZM128.82 96.42C128.82 98.3735 128.158 99.8441 126.843 100.849L126.965 101.007C128.338 99.9585 129.02 98.4239 129.02 96.42H128.82ZM126.844 100.848C125.527 101.836 123.333 102.34 120.24 102.34V102.54C123.344 102.54 125.593 102.036 126.964 101.008L126.844 100.848ZM120.24 102.34H118.7V102.54H120.24V102.34ZM118.6 102.44V109.16H118.8V102.44H118.6ZM118.676 109.257L120.356 109.677L120.404 109.483L118.724 109.063L118.676 109.257ZM120.28 109.58V110H120.48V109.58H120.28ZM120.38 109.9H112.4V110.1H120.38V109.9ZM112.5 110V109.58H112.3V110H112.5ZM120.24 101.84C121.446 101.84 122.417 101.379 123.146 100.458L122.99 100.334C122.3 101.205 121.386 101.64 120.24 101.64V101.84ZM123.146 100.459C123.894 99.538 124.26 98.1862 124.26 96.42H124.06C124.06 98.1631 123.698 99.462 122.99 100.333L123.146 100.459ZM124.26 96.42C124.26 94.6721 123.894 93.3298 123.146 92.4089L122.99 92.5351C123.698 93.4062 124.06 94.6959 124.06 96.42H124.26ZM123.147 92.4107C122.418 91.4712 121.446 91 120.24 91V91.2C121.386 91.2 122.299 91.6435 122.989 92.5333L123.147 92.4107ZM120.24 91H118.7V91.2H120.24V91ZM118.6 91.1V101.74H118.8V91.1H118.6ZM118.7 101.84H120.24V101.64H118.7V101.84ZM135.439 109.244L135.388 109.33L135.389 109.331L135.439 109.244ZM132.275 105.744L132.364 105.7L132.364 105.7L132.275 105.744ZM132.275 94.656L132.185 94.6122L132.275 94.656ZM135.439 91.184L135.488 91.2707L135.489 91.2705L135.439 91.184ZM145.043 91.184L144.992 91.2702L144.993 91.271L145.043 91.184ZM148.235 94.656L148.324 94.6122L148.235 94.656ZM148.235 105.744L148.145 105.7L148.145 105.7L148.235 105.744ZM145.043 109.244L145.092 109.331L145.093 109.33L145.043 109.244ZM142.271 108.936L142.201 108.864L142.2 108.865L142.271 108.936ZM143.839 105.856L143.935 105.883L143.935 105.883L143.839 105.856ZM143.839 94.544L143.935 94.5165L143.935 94.5165L143.839 94.544ZM142.271 91.464L142.2 91.5347L142.201 91.5358L142.271 91.464ZM138.211 91.464L138.141 91.3922L138.14 91.3933L138.211 91.464ZM136.671 94.544L136.574 94.5165L136.574 94.5165L136.671 94.544ZM136.671 105.856L136.767 105.829L136.767 105.829L136.671 105.856ZM138.211 108.936L138.14 109.007L138.141 109.008L138.211 108.936ZM140.255 110.32C138.44 110.32 136.852 109.931 135.488 109.157L135.389 109.331C136.788 110.125 138.411 110.52 140.255 110.52V110.32ZM135.489 109.158C134.145 108.366 133.103 107.215 132.364 105.7L132.185 105.788C132.939 107.335 134.007 108.517 135.388 109.33L135.489 109.158ZM132.364 105.7C131.626 104.186 131.255 102.354 131.255 100.2H131.055C131.055 102.377 131.43 104.24 132.185 105.788L132.364 105.7ZM131.255 100.2C131.255 98.0459 131.626 96.2137 132.364 94.6998L132.185 94.6122C131.43 96.1597 131.055 98.0235 131.055 100.2H131.255ZM132.364 94.6998C133.103 93.1856 134.145 92.0439 135.488 91.2707L135.389 91.0973C134.007 91.8921 132.939 93.0651 132.185 94.6122L132.364 94.6998ZM135.489 91.2705C136.853 90.4779 138.44 90.08 140.255 90.08V89.88C138.41 89.88 136.787 90.2848 135.388 91.0975L135.489 91.2705ZM140.255 90.08C142.069 90.08 143.647 90.4779 144.992 91.2702L145.093 91.0978C143.713 90.2848 142.099 89.88 140.255 89.88V90.08ZM144.993 91.271C146.356 92.0443 147.406 93.1859 148.145 94.6998L148.324 94.6122C147.57 93.0647 146.492 91.8917 145.092 91.097L144.993 91.271ZM148.145 94.6998C148.883 96.2137 149.255 98.0459 149.255 100.2H149.455C149.455 98.0235 149.079 96.1597 148.324 94.6122L148.145 94.6998ZM149.255 100.2C149.255 102.354 148.883 104.186 148.145 105.7L148.324 105.788C149.079 104.24 149.455 102.377 149.455 100.2H149.255ZM148.145 105.7C147.406 107.214 146.355 108.366 144.992 109.158L145.093 109.33C146.492 108.517 147.57 107.335 148.324 105.788L148.145 105.7ZM144.993 109.157C143.647 109.931 142.069 110.32 140.255 110.32V110.52C142.098 110.52 143.712 110.125 145.092 109.331L144.993 109.157ZM140.255 109.96C141.014 109.96 141.71 109.638 142.341 109.007L142.2 108.865C141.599 109.466 140.951 109.76 140.255 109.76V109.96ZM142.34 109.008C142.993 108.374 143.522 107.327 143.935 105.883L143.742 105.829C143.334 107.259 142.817 108.266 142.201 108.864L142.34 109.008ZM143.935 105.883C144.349 104.434 144.555 102.538 144.555 100.2H144.355C144.355 102.529 144.149 104.404 143.742 105.829L143.935 105.883ZM144.555 100.2C144.555 97.862 144.349 95.9663 143.935 94.5165L143.742 94.5715C144.149 95.9963 144.355 97.8714 144.355 100.2H144.555ZM143.935 94.5165C143.522 93.0726 142.993 92.0262 142.34 91.3922L142.201 91.5358C142.817 92.1338 143.334 93.1407 143.742 94.5715L143.935 94.5165ZM142.341 91.3933C141.71 90.7625 141.014 90.44 140.255 90.44V90.64C140.951 90.64 141.599 90.9335 142.2 91.5347L142.341 91.3933ZM140.255 90.44C139.495 90.44 138.79 90.7623 138.141 91.3922L138.28 91.5358C138.9 90.9337 139.558 90.64 140.255 90.64V90.44ZM138.14 91.3933C137.506 92.0271 136.987 93.0731 136.574 94.5165L136.767 94.5715C137.176 93.1403 137.683 92.1329 138.281 91.5347L138.14 91.3933ZM136.574 94.5165C136.16 95.9663 135.955 97.862 135.955 100.2H136.155C136.155 97.8714 136.36 95.9963 136.767 94.5715L136.574 94.5165ZM135.955 100.2C135.955 102.538 136.16 104.434 136.574 105.883L136.767 105.829C136.36 104.404 136.155 102.529 136.155 100.2H135.955ZM136.574 105.883C136.987 107.327 137.506 108.373 138.14 109.007L138.281 108.865C137.683 108.267 137.176 107.26 136.767 105.829L136.574 105.883ZM138.141 109.008C138.79 109.638 139.495 109.96 140.255 109.96V109.76C139.558 109.76 138.9 109.466 138.28 108.864L138.141 109.008ZM152.021 109.58L151.997 109.483L151.921 109.502V109.58H152.021ZM153.701 109.16L153.725 109.257L153.801 109.238V109.16H153.701ZM153.701 91.24H153.801V91.1619L153.725 91.143L153.701 91.24ZM152.021 90.82H151.921V90.8981L151.997 90.917L152.021 90.82ZM152.021 90.4V90.3H151.921V90.4H152.021ZM166.301 91.856L166.244 91.9382L166.245 91.9387L166.301 91.856ZM167.477 98.688L167.553 98.7536L167.553 98.7526L167.477 98.688ZM165.097 100.284L165.063 100.19L165.061 100.191L165.097 100.284ZM161.821 100.9L161.819 100.8L161.721 100.802V100.9H161.821ZM161.821 101.04H161.721V101.135L161.816 101.14L161.821 101.04ZM163.641 101.348L163.61 101.443L163.611 101.443L163.641 101.348ZM166.301 103.56L166.21 103.6L166.21 103.601L166.301 103.56ZM168.821 109.16L168.73 109.201L168.749 109.243L168.792 109.256L168.821 109.16ZM170.221 109.58H170.321V109.506L170.25 109.484L170.221 109.58ZM170.221 110V110.1H170.321V110H170.221ZM162.941 107.62L162.85 107.661L162.85 107.661L162.941 107.62ZM160.141 101.32L160.232 101.279L160.206 101.22H160.141V101.32ZM158.321 101.32V101.22H158.221V101.32H158.321ZM158.321 109.16H158.221V109.241L158.3 109.258L158.321 109.16ZM160.281 109.58H160.381V109.499L160.302 109.482L160.281 109.58ZM160.281 110V110.1H160.381V110H160.281ZM152.021 110H151.921V110.1H152.021V110ZM162.521 99.388L162.447 99.3207L162.447 99.3207L162.521 99.388ZM162.521 92.332L162.595 92.2647L162.595 92.2647L162.521 92.332ZM158.321 91.1V91H158.221V91.1H158.321ZM158.321 100.62H158.221V100.72H158.321V100.62ZM152.045 109.677L153.725 109.257L153.677 109.063L151.997 109.483L152.045 109.677ZM153.801 109.16V91.24H153.601V109.16H153.801ZM153.725 91.143L152.045 90.723L151.997 90.917L153.677 91.337L153.725 91.143ZM152.121 90.82V90.4H151.921V90.82H152.121ZM152.021 90.5H159.441V90.3H152.021V90.5ZM159.441 90.5C162.609 90.5 164.87 90.9855 166.244 91.9382L166.358 91.7738C164.932 90.7852 162.62 90.3 159.441 90.3V90.5ZM166.245 91.9387C167.617 92.8718 168.301 94.1752 168.301 95.86H168.501C168.501 94.1101 167.785 92.7442 166.357 91.7733L166.245 91.9387ZM168.301 95.86C168.301 96.9989 167.998 97.9171 167.401 98.6234L167.553 98.7526C168.188 98.0029 168.501 97.0357 168.501 95.86H168.301ZM167.402 98.6224C166.798 99.3177 166.019 99.8406 165.063 100.19L165.131 100.378C166.116 100.018 166.924 99.4769 167.553 98.7536L167.402 98.6224ZM165.061 100.191C164.046 100.578 162.966 100.782 161.819 100.8L161.823 101C162.991 100.981 164.095 100.774 165.133 100.377L165.061 100.191ZM161.721 100.9V101.04H161.921V100.9H161.721ZM161.816 101.14C162.5 101.177 163.098 101.278 163.61 101.443L163.672 101.253C163.139 101.082 162.524 100.978 161.826 100.94L161.816 101.14ZM163.611 101.443C164.896 101.847 165.757 102.567 166.21 103.6L166.393 103.52C165.912 102.425 165 101.67 163.671 101.253L163.611 101.443ZM166.21 103.601L168.73 109.201L168.912 109.119L166.392 103.519L166.21 103.601ZM168.792 109.256L170.192 109.676L170.25 109.484L168.85 109.064L168.792 109.256ZM170.121 109.58V110H170.321V109.58H170.121ZM170.221 109.9H166.301V110.1H170.221V109.9ZM166.301 109.9C165.554 109.9 164.912 109.707 164.371 109.323C163.829 108.939 163.382 108.36 163.032 107.579L162.85 107.661C163.21 108.466 163.677 109.077 164.255 109.487C164.834 109.897 165.518 110.1 166.301 110.1V109.9ZM163.032 107.579L160.232 101.279L160.05 101.361L162.85 107.661L163.032 107.579ZM160.141 101.22H158.321V101.42H160.141V101.22ZM158.221 101.32V109.16H158.421V101.32H158.221ZM158.3 109.258L160.26 109.678L160.302 109.482L158.342 109.062L158.3 109.258ZM160.181 109.58V110H160.381V109.58H160.181ZM160.281 109.9H152.021V110.1H160.281V109.9ZM152.121 110V109.58H151.921V110H152.121ZM159.441 100.72C160.77 100.72 161.826 100.301 162.595 99.4553L162.447 99.3207C161.723 100.117 160.725 100.52 159.441 100.52V100.72ZM162.595 99.4553C163.364 98.6095 163.741 97.4061 163.741 95.86H163.541C163.541 97.3753 163.172 98.5238 162.447 99.3207L162.595 99.4553ZM163.741 95.86C163.741 94.3139 163.364 93.1105 162.595 92.2647L162.447 92.3993C163.172 93.1962 163.541 94.3447 163.541 95.86H163.741ZM162.595 92.2647C161.826 91.4188 160.77 91 159.441 91V91.2C160.725 91.2 161.723 91.6025 162.447 92.3993L162.595 92.2647ZM159.441 91H158.321V91.2H159.441V91ZM158.221 91.1V100.62H158.421V91.1H158.221ZM158.321 100.72H159.441V100.52H158.321V100.72ZM174.853 109.58L174.829 109.483L174.753 109.502V109.58H174.853ZM176.533 109.16L176.557 109.257L176.633 109.238V109.16H176.533ZM176.533 91.1H176.633V91H176.533V91.1ZM173.313 91.1V91H173.213V91.1H173.313ZM172.389 94.376L172.475 94.428L172.475 94.4268L172.389 94.376ZM171.493 95.44V95.54H171.529L171.557 95.5168L171.493 95.44ZM170.653 95.44H170.553V95.54H170.653V95.44ZM170.653 90.4V90.3H170.553V90.4H170.653ZM187.033 90.4H187.133V90.3H187.033V90.4ZM187.033 95.44V95.54H187.133V95.44H187.033ZM186.193 95.44L186.131 95.5185L186.158 95.54H186.193V95.44ZM185.269 94.376L185.183 94.427L185.184 94.428L185.269 94.376ZM184.373 91.1H184.473V91H184.373V91.1ZM181.153 91.1V91H181.053V91.1H181.153ZM181.153 109.16H181.053V109.238L181.129 109.257L181.153 109.16ZM182.833 109.58H182.933V109.502L182.857 109.483L182.833 109.58ZM182.833 110V110.1H182.933V110H182.833ZM174.853 110H174.753V110.1H174.853V110ZM174.877 109.677L176.557 109.257L176.509 109.063L174.829 109.483L174.877 109.677ZM176.633 109.16V91.1H176.433V109.16H176.633ZM176.533 91H173.313V91.2H176.533V91ZM173.213 91.1C173.213 92.2196 172.911 93.2942 172.303 94.3252L172.475 94.4268C173.1 93.3671 173.413 92.2577 173.413 91.1H173.213ZM172.304 94.324C172.047 94.7453 171.756 95.0912 171.429 95.3632L171.557 95.5168C171.903 95.2288 172.208 94.8653 172.475 94.428L172.304 94.324ZM171.493 95.34H170.653V95.54H171.493V95.34ZM170.753 95.44V90.4H170.553V95.44H170.753ZM170.653 90.5H187.033V90.3H170.653V90.5ZM186.933 90.4V95.44H187.133V90.4H186.933ZM187.033 95.34H186.193V95.54H187.033V95.34ZM186.255 95.3615C185.911 95.0897 185.61 94.7443 185.355 94.324L185.184 94.428C185.451 94.8663 185.766 95.2303 186.131 95.5185L186.255 95.3615ZM185.355 94.325C184.767 93.3325 184.473 92.2581 184.473 91.1H184.273C184.273 92.2939 184.577 93.4035 185.183 94.427L185.355 94.325ZM184.373 91H181.153V91.2H184.373V91ZM181.053 91.1V109.16H181.253V91.1H181.053ZM181.129 109.257L182.809 109.677L182.857 109.483L181.177 109.063L181.129 109.257ZM182.733 109.58V110H182.933V109.58H182.733ZM182.833 109.9H174.853V110.1H182.833V109.9ZM174.953 110V109.58H174.753V110H174.953ZM189.127 109.58L189.102 109.483L189.027 109.502V109.58H189.127ZM190.807 109.16L190.831 109.257L190.907 109.238V109.16H190.807ZM190.807 91.24H190.907V91.1619L190.831 91.143L190.807 91.24ZM189.127 90.82H189.027V90.8981L189.102 90.917L189.127 90.82ZM189.127 90.4V90.3H189.027V90.4H189.127ZM204.107 90.4H204.207V90.3H204.107V90.4ZM204.107 95.44V95.54H204.207V95.44H204.107ZM203.267 95.44L203.205 95.5185L203.232 95.54H203.267V95.44ZM202.343 94.376L202.257 94.427L202.257 94.428L202.343 94.376ZM201.447 91.1H201.547V91H201.447V91.1ZM195.427 91.1V91H195.327V91.1H195.427ZM195.427 99.92H195.327V100.02H195.427V99.92ZM198.647 99.92V100.02H198.73L198.745 99.9381L198.647 99.92ZM199.375 97.932L199.461 97.9819L199.463 97.9791L199.375 97.932ZM199.907 97.12V97.02H199.858L199.828 97.0582L199.907 97.12ZM200.747 97.12H200.847V97.02H200.747V97.12ZM200.747 103.42V103.52H200.847V103.42H200.747ZM199.907 103.42L199.828 103.482L199.858 103.52H199.907V103.42ZM199.375 102.608L199.463 102.561L199.461 102.558L199.375 102.608ZM198.647 100.62L198.745 100.602L198.73 100.52H198.647V100.62ZM195.427 100.62V100.52H195.327V100.62H195.427ZM195.427 109.16H195.327V109.238L195.402 109.257L195.427 109.16ZM197.107 109.58H197.207V109.502L197.131 109.483L197.107 109.58ZM197.107 110V110.1H197.207V110H197.107ZM189.127 110H189.027V110.1H189.127V110ZM189.151 109.677L190.831 109.257L190.782 109.063L189.102 109.483L189.151 109.677ZM190.907 109.16V91.24H190.707V109.16H190.907ZM190.831 91.143L189.151 90.723L189.102 90.917L190.782 91.337L190.831 91.143ZM189.227 90.82V90.4H189.027V90.82H189.227ZM189.127 90.5H204.107V90.3H189.127V90.5ZM204.007 90.4V95.44H204.207V90.4H204.007ZM204.107 95.34H203.267V95.54H204.107V95.34ZM203.329 95.3615C202.984 95.0897 202.684 94.7443 202.428 94.324L202.257 94.428C202.524 94.8663 202.84 95.2303 203.205 95.5185L203.329 95.3615ZM202.429 94.325C201.84 93.3325 201.547 92.2581 201.547 91.1H201.347C201.347 92.2939 201.65 93.4035 202.257 94.427L202.429 94.325ZM201.447 91H195.427V91.2H201.447V91ZM195.327 91.1V99.92H195.527V91.1H195.327ZM195.427 100.02H198.647V99.82H195.427V100.02ZM198.745 99.9381C198.874 99.2398 199.112 98.5879 199.461 97.9819L199.288 97.8821C198.927 98.5081 198.681 99.1815 198.548 99.9019L198.745 99.9381ZM199.463 97.9791C199.609 97.7045 199.783 97.4387 199.985 97.1818L199.828 97.0582C199.619 97.324 199.439 97.5995 199.286 97.8849L199.463 97.9791ZM199.907 97.22H200.747V97.02H199.907V97.22ZM200.647 97.12V103.42H200.847V97.12H200.647ZM200.747 103.32H199.907V103.52H200.747V103.32ZM199.985 103.358C199.783 103.101 199.609 102.836 199.463 102.561L199.286 102.655C199.439 102.94 199.619 103.216 199.828 103.482L199.985 103.358ZM199.461 102.558C199.112 101.952 198.874 101.3 198.745 100.602L198.548 100.638C198.681 101.358 198.927 102.032 199.288 102.658L199.461 102.558ZM198.647 100.52H195.427V100.72H198.647V100.52ZM195.327 100.62V109.16H195.527V100.62H195.327ZM195.402 109.257L197.082 109.677L197.131 109.483L195.451 109.063L195.402 109.257ZM197.007 109.58V110H197.207V109.58H197.007ZM197.107 109.9H189.127V110.1H197.107V109.9ZM189.227 110V109.58H189.027V110H189.227ZM209.814 109.244L209.763 109.33L209.764 109.331L209.814 109.244ZM206.65 105.744L206.739 105.7L206.739 105.7L206.65 105.744ZM206.65 94.656L206.56 94.6122L206.65 94.656ZM209.814 91.184L209.863 91.2707L209.864 91.2705L209.814 91.184ZM219.418 91.184L219.367 91.2702L219.368 91.271L219.418 91.184ZM222.61 94.656L222.699 94.6122L222.61 94.656ZM222.61 105.744L222.52 105.7L222.52 105.7L222.61 105.744ZM219.418 109.244L219.467 109.331L219.468 109.33L219.418 109.244ZM216.646 108.936L216.576 108.864L216.575 108.865L216.646 108.936ZM218.214 105.856L218.31 105.883L218.31 105.883L218.214 105.856ZM218.214 94.544L218.31 94.5165L218.31 94.5165L218.214 94.544ZM216.646 91.464L216.575 91.5347L216.576 91.5358L216.646 91.464ZM212.586 91.464L212.516 91.3922L212.515 91.3933L212.586 91.464ZM211.046 94.544L210.949 94.5165L210.949 94.5165L211.046 94.544ZM211.046 105.856L211.142 105.829L211.142 105.829L211.046 105.856ZM212.586 108.936L212.515 109.007L212.516 109.008L212.586 108.936ZM214.63 110.32C212.815 110.32 211.227 109.931 209.863 109.157L209.764 109.331C211.163 110.125 212.786 110.52 214.63 110.52V110.32ZM209.864 109.158C208.52 108.366 207.478 107.215 206.739 105.7L206.56 105.788C207.314 107.335 208.382 108.517 209.763 109.33L209.864 109.158ZM206.739 105.7C206.001 104.186 205.63 102.354 205.63 100.2H205.43C205.43 102.377 205.805 104.24 206.56 105.788L206.739 105.7ZM205.63 100.2C205.63 98.0459 206.001 96.2137 206.739 94.6998L206.56 94.6122C205.805 96.1597 205.43 98.0235 205.43 100.2H205.63ZM206.739 94.6998C207.478 93.1856 208.52 92.0439 209.863 91.2707L209.764 91.0973C208.382 91.8921 207.314 93.0651 206.56 94.6122L206.739 94.6998ZM209.864 91.2705C211.228 90.4779 212.815 90.08 214.63 90.08V89.88C212.785 89.88 211.162 90.2848 209.763 91.0975L209.864 91.2705ZM214.63 90.08C216.444 90.08 218.022 90.4779 219.367 91.2702L219.468 91.0978C218.088 90.2848 216.474 89.88 214.63 89.88V90.08ZM219.368 91.271C220.731 92.0443 221.781 93.1859 222.52 94.6998L222.699 94.6122C221.945 93.0647 220.867 91.8917 219.467 91.097L219.368 91.271ZM222.52 94.6998C223.258 96.2137 223.63 98.0459 223.63 100.2H223.83C223.83 98.0235 223.454 96.1597 222.699 94.6122L222.52 94.6998ZM223.63 100.2C223.63 102.354 223.258 104.186 222.52 105.7L222.699 105.788C223.454 104.24 223.83 102.377 223.83 100.2H223.63ZM222.52 105.7C221.781 107.214 220.73 108.366 219.367 109.158L219.468 109.33C220.867 108.517 221.945 107.335 222.699 105.788L222.52 105.7ZM219.368 109.157C218.022 109.931 216.444 110.32 214.63 110.32V110.52C216.473 110.52 218.087 110.125 219.467 109.331L219.368 109.157ZM214.63 109.96C215.389 109.96 216.085 109.638 216.716 109.007L216.575 108.865C215.974 109.466 215.326 109.76 214.63 109.76V109.96ZM216.715 109.008C217.368 108.374 217.897 107.327 218.31 105.883L218.117 105.829C217.709 107.259 217.192 108.266 216.576 108.864L216.715 109.008ZM218.31 105.883C218.724 104.434 218.93 102.538 218.93 100.2H218.73C218.73 102.529 218.524 104.404 218.117 105.829L218.31 105.883ZM218.93 100.2C218.93 97.862 218.724 95.9663 218.31 94.5165L218.117 94.5715C218.524 95.9963 218.73 97.8714 218.73 100.2H218.93ZM218.31 94.5165C217.897 93.0726 217.368 92.0262 216.715 91.3922L216.576 91.5358C217.192 92.1338 217.709 93.1407 218.117 94.5715L218.31 94.5165ZM216.716 91.3933C216.085 90.7625 215.389 90.44 214.63 90.44V90.64C215.326 90.64 215.974 90.9335 216.575 91.5347L216.716 91.3933ZM214.63 90.44C213.87 90.44 213.165 90.7623 212.516 91.3922L212.655 91.5358C213.275 90.9337 213.933 90.64 214.63 90.64V90.44ZM212.515 91.3933C211.881 92.0271 211.362 93.0731 210.949 94.5165L211.142 94.5715C211.551 93.1403 212.058 92.1329 212.656 91.5347L212.515 91.3933ZM210.949 94.5165C210.535 95.9663 210.33 97.862 210.33 100.2H210.53C210.53 97.8714 210.735 95.9963 211.142 94.5715L210.949 94.5165ZM210.33 100.2C210.33 102.538 210.535 104.434 210.949 105.883L211.142 105.829C210.735 104.404 210.53 102.529 210.53 100.2H210.33ZM210.949 105.883C211.362 107.327 211.881 108.373 212.515 109.007L212.656 108.865C212.058 108.267 211.551 107.26 211.142 105.829L210.949 105.883ZM212.516 109.008C213.165 109.638 213.87 109.96 214.63 109.96V109.76C213.933 109.76 213.275 109.466 212.655 108.864L212.516 109.008ZM226.396 109.58L226.372 109.483L226.296 109.502V109.58H226.396ZM228.076 109.16L228.1 109.257L228.176 109.238V109.16H228.076ZM228.076 91.24H228.176V91.1619L228.1 91.143L228.076 91.24ZM226.396 90.82H226.296V90.8981L226.372 90.917L226.396 90.82ZM226.396 90.4V90.3H226.296V90.4H226.396ZM234.376 90.4H234.476V90.3H234.376V90.4ZM234.376 90.82L234.4 90.917L234.476 90.8981V90.82H234.376ZM232.696 91.24L232.672 91.143L232.596 91.1619V91.24H232.696ZM232.696 109.3H232.596V109.4H232.696V109.3ZM238.716 109.3V109.4H238.816V109.3H238.716ZM239.612 106.024L239.527 105.972L239.526 105.973L239.612 106.024ZM240.536 104.96V104.86H240.501L240.474 104.882L240.536 104.96ZM241.376 104.96H241.476V104.86H241.376V104.96ZM241.376 110V110.1H241.476V110H241.376ZM226.396 110H226.296V110.1H226.396V110ZM226.42 109.677L228.1 109.257L228.052 109.063L226.372 109.483L226.42 109.677ZM228.176 109.16V91.24H227.976V109.16H228.176ZM228.1 91.143L226.42 90.723L226.372 90.917L228.052 91.337L228.1 91.143ZM226.496 90.82V90.4H226.296V90.82H226.496ZM226.396 90.5H234.376V90.3H226.396V90.5ZM234.276 90.4V90.82H234.476V90.4H234.276ZM234.352 90.723L232.672 91.143L232.72 91.337L234.4 90.917L234.352 90.723ZM232.596 91.24V109.3H232.796V91.24H232.596ZM232.696 109.4H238.716V109.2H232.696V109.4ZM238.816 109.3C238.816 108.142 239.11 107.067 239.698 106.075L239.526 105.973C238.92 106.997 238.616 108.106 238.616 109.3H238.816ZM239.698 106.076C239.953 105.656 240.254 105.31 240.598 105.038L240.474 104.882C240.109 105.17 239.793 105.534 239.527 105.972L239.698 106.076ZM240.536 105.06H241.376V104.86H240.536V105.06ZM241.276 104.96V110H241.476V104.96H241.276ZM241.376 109.9H226.396V110.1H241.376V109.9ZM226.496 110V109.58H226.296V110H226.496ZM243.486 110H243.386V110.1H243.486V110ZM243.486 109.58L243.462 109.483L243.386 109.502V109.58H243.486ZM245.166 109.16L245.19 109.257L245.266 109.238V109.16H245.166ZM245.166 91.24H245.266V91.1619L245.19 91.143L245.166 91.24ZM243.486 90.82H243.386V90.8981L243.462 90.917L243.486 90.82ZM243.486 90.4V90.3H243.386V90.4H243.486ZM251.466 90.4H251.566V90.3H251.466V90.4ZM251.466 90.82L251.49 90.917L251.566 90.8981V90.82H251.466ZM249.786 91.24L249.762 91.143L249.686 91.1619V91.24H249.786ZM249.786 109.16H249.686V109.238L249.762 109.257L249.786 109.16ZM251.466 109.58H251.566V109.502L251.49 109.483L251.466 109.58ZM251.466 110V110.1H251.566V110H251.466ZM243.586 110V109.58H243.386V110H243.586ZM243.51 109.677L245.19 109.257L245.142 109.063L243.462 109.483L243.51 109.677ZM245.266 109.16V91.24H245.066V109.16H245.266ZM245.19 91.143L243.51 90.723L243.462 90.917L245.142 91.337L245.19 91.143ZM243.586 90.82V90.4H243.386V90.82H243.586ZM243.486 90.5H251.466V90.3H243.486V90.5ZM251.366 90.4V90.82H251.566V90.4H251.366ZM251.442 90.723L249.762 91.143L249.81 91.337L251.49 90.917L251.442 90.723ZM249.686 91.24V109.16H249.886V91.24H249.686ZM249.762 109.257L251.442 109.677L251.49 109.483L249.81 109.063L249.762 109.257ZM251.366 109.58V110H251.566V109.58H251.366ZM251.466 109.9H243.486V110.1H251.466V109.9ZM258.403 109.244L258.353 109.33L258.354 109.331L258.403 109.244ZM255.239 105.744L255.329 105.7L255.329 105.7L255.239 105.744ZM255.239 94.656L255.149 94.6122L255.239 94.656ZM258.403 91.184L258.453 91.2707L258.454 91.2705L258.403 91.184ZM268.007 91.184L267.957 91.2702L267.958 91.271L268.007 91.184ZM271.199 94.656L271.289 94.6122L271.199 94.656ZM271.199 105.744L271.109 105.7L271.109 105.7L271.199 105.744ZM268.007 109.244L268.057 109.331L268.058 109.33L268.007 109.244ZM265.235 108.936L265.166 108.864L265.165 108.865L265.235 108.936ZM266.803 105.856L266.9 105.883L266.9 105.883L266.803 105.856ZM266.803 94.544L266.9 94.5165L266.9 94.5165L266.803 94.544ZM265.235 91.464L265.165 91.5347L265.166 91.5358L265.235 91.464ZM261.175 91.464L261.106 91.3922L261.105 91.3933L261.175 91.464ZM259.635 94.544L259.539 94.5165L259.539 94.5165L259.635 94.544ZM259.635 105.856L259.732 105.829L259.732 105.829L259.635 105.856ZM261.175 108.936L261.105 109.007L261.106 109.008L261.175 108.936ZM263.219 110.32C261.405 110.32 259.817 109.931 258.453 109.157L258.354 109.331C259.753 110.125 261.375 110.52 263.219 110.52V110.32ZM258.454 109.158C257.11 108.366 256.068 107.215 255.329 105.7L255.149 105.788C255.904 107.335 256.972 108.517 258.353 109.33L258.454 109.158ZM255.329 105.7C254.591 104.186 254.219 102.354 254.219 100.2H254.019C254.019 102.377 254.395 104.24 255.149 105.788L255.329 105.7ZM254.219 100.2C254.219 98.0459 254.591 96.2137 255.329 94.6998L255.149 94.6122C254.395 96.1597 254.019 98.0235 254.019 100.2H254.219ZM255.329 94.6998C256.068 93.1856 257.109 92.0439 258.453 91.2707L258.354 91.0973C256.972 91.8921 255.904 93.0651 255.149 94.6122L255.329 94.6998ZM258.454 91.2705C259.818 90.4779 261.405 90.08 263.219 90.08V89.88C261.375 89.88 259.752 90.2848 258.353 91.0975L258.454 91.2705ZM263.219 90.08C265.034 90.08 266.612 90.4779 267.957 91.2702L268.058 91.0978C266.678 90.2848 265.064 89.88 263.219 89.88V90.08ZM267.958 91.271C269.321 92.0443 270.371 93.1859 271.109 94.6998L271.289 94.6122C270.534 93.0647 269.457 91.8917 268.057 91.097L267.958 91.271ZM271.109 94.6998C271.848 96.2137 272.219 98.0459 272.219 100.2H272.419C272.419 98.0235 272.044 96.1597 271.289 94.6122L271.109 94.6998ZM272.219 100.2C272.219 102.354 271.848 104.186 271.109 105.7L271.289 105.788C272.044 104.24 272.419 102.377 272.419 100.2H272.219ZM271.109 105.7C270.371 107.214 269.32 108.366 267.957 109.158L268.058 109.33C269.457 108.517 270.534 107.335 271.289 105.788L271.109 105.7ZM267.958 109.157C266.612 109.931 265.034 110.32 263.219 110.32V110.52C265.063 110.52 266.677 110.125 268.057 109.331L267.958 109.157ZM263.219 109.96C263.979 109.96 264.675 109.638 265.306 109.007L265.165 108.865C264.563 109.466 263.916 109.76 263.219 109.76V109.96ZM265.305 109.008C265.958 108.374 266.487 107.327 266.9 105.883L266.707 105.829C266.298 107.259 265.782 108.266 265.166 108.864L265.305 109.008ZM266.9 105.883C267.314 104.434 267.519 102.538 267.519 100.2H267.319C267.319 102.529 267.114 104.404 266.707 105.829L266.9 105.883ZM267.519 100.2C267.519 97.862 267.314 95.9663 266.9 94.5165L266.707 94.5715C267.114 95.9963 267.319 97.8714 267.319 100.2H267.519ZM266.9 94.5165C266.487 93.0726 265.958 92.0262 265.305 91.3922L265.166 91.5358C265.782 92.1338 266.298 93.1407 266.707 94.5715L266.9 94.5165ZM265.306 91.3933C264.675 90.7625 263.979 90.44 263.219 90.44V90.64C263.916 90.64 264.563 90.9335 265.165 91.5347L265.306 91.3933ZM263.219 90.44C262.46 90.44 261.755 90.7623 261.106 91.3922L261.245 91.5358C261.865 90.9337 262.523 90.64 263.219 90.64V90.44ZM261.105 91.3933C260.471 92.0271 259.952 93.0731 259.539 94.5165L259.732 94.5715C260.14 93.1403 260.648 92.1329 261.246 91.5347L261.105 91.3933ZM259.539 94.5165C259.125 95.9663 258.919 97.862 258.919 100.2H259.119C259.119 97.8714 259.324 95.9963 259.732 94.5715L259.539 94.5165ZM258.919 100.2C258.919 102.538 259.125 104.434 259.539 105.883L259.732 105.829C259.324 104.404 259.119 102.529 259.119 100.2H258.919ZM259.539 105.883C259.952 107.327 260.471 108.373 261.105 109.007L261.246 108.865C260.648 108.267 260.14 107.26 259.732 105.829L259.539 105.883ZM261.106 109.008C261.755 109.638 262.46 109.96 263.219 109.96V109.76C262.523 109.76 261.865 109.466 261.245 108.864L261.106 109.008Z" fill="black" mask="url(#path-4-outside-1_5_12)"/>
</g>
<g filter="url(#filter2_d_5_12)">
<mask id="mask0_5_12" style="mask-type:luminance" maskUnits="userSpaceOnUse" x="16" y="36" width="84" height="76">
<path d="M99.1081 36H16V111.811H99.1081V36Z" fill="white"/>
</mask>
<g mask="url(#mask0_5_12)">
<path d="M34.7409 49.1999V92.2443C34.7152 94.9503 33.7166 97.536 31.9621 99.4396C30.2076 101.343 27.8389 102.411 25.3704 102.411C22.902 102.411 20.5332 101.343 18.7787 99.4396C17.0242 97.536 16.0257 94.9503 16 92.2443V49.1999C16.0016 46.4756 16.9902 43.8636 18.7483 41.9383C20.5064 40.013 22.89 38.9321 25.375 38.9332C26.929 38.9287 28.459 39.3528 29.8243 40.1666C29.8456 40.1766 29.8547 40.1888 29.8649 40.1888C29.8701 40.1951 29.8773 40.1991 29.8851 40.1999C30.6622 40.6647 31.3726 41.2525 31.9932 41.9444C32.8645 42.8959 33.5556 44.0266 34.0272 45.2717C34.4986 46.5168 34.7412 47.8518 34.7409 49.1999Z" fill="url(#paint1_linear_5_12)"/>
<path d="M56.1553 58.5V101.533C56.1553 102.882 55.913 104.218 55.442 105.464C54.9711 106.711 54.281 107.843 53.4109 108.797C52.5408 109.751 51.5078 110.507 50.3711 111.024C49.2342 111.54 48.0159 111.806 46.7854 111.806C45.5549 111.806 44.3364 111.54 43.1997 111.024C42.0628 110.507 41.0299 109.751 40.1598 108.797C39.2897 107.843 38.5995 106.711 38.1286 105.464C37.6578 104.218 37.4154 102.882 37.4154 101.533V58.5C37.4151 57.1502 37.6575 55.8136 38.1285 54.5666C38.5995 53.3194 39.2901 52.1863 40.1607 51.2319C41.0314 50.2774 42.0649 49.5203 43.2024 49.004C44.34 48.4876 45.5592 48.2219 46.7904 48.2222C47.1249 48.2222 47.4492 48.2444 47.7634 48.2767H47.7847C50.0835 48.5507 52.2092 49.7456 53.754 51.632C55.2988 53.5184 56.1539 55.9649 56.1553 58.5Z" fill="url(#paint2_linear_5_12)"/>
<path d="M77.6925 46.2666V89.3111C77.6925 92.0354 76.7053 94.6482 74.9481 96.5746C73.1908 98.5011 70.8076 99.5833 68.3225 99.5833C65.8375 99.5833 63.4542 98.5011 61.697 96.5746C59.9398 94.6482 58.9526 92.0354 58.9526 89.3111V46.2666C58.9526 44.9174 59.1951 43.5815 59.6664 42.3351C60.1377 41.0888 60.8284 39.9565 61.6991 39.003C62.5697 38.0495 63.6033 37.2935 64.7407 36.7782C65.878 36.2629 67.0969 35.9985 68.3276 35.9999C68.7143 35.9956 69.1006 36.0253 69.483 36.0888H69.5033C71.5641 36.3622 73.481 37.3875 74.9458 38.9999C75.8171 39.9536 76.5082 41.0863 76.9795 42.3333C77.4508 43.5802 77.6931 44.9168 77.6925 46.2666Z" fill="url(#paint3_linear_5_12)"/>
<path d="M99.1079 58.0099V101.044C99.1079 102.393 98.8655 103.729 98.3946 104.975C97.9237 106.222 97.2335 107.354 96.3635 108.308C95.4934 109.262 94.4604 110.018 93.3237 110.535C92.1868 111.051 90.9684 111.317 89.738 111.317C88.5075 111.317 87.289 111.051 86.1523 110.535C85.0154 110.018 83.9824 109.262 83.1124 108.308C82.2423 107.354 81.5521 106.222 81.0813 104.975C80.6104 103.729 80.368 102.393 80.368 101.044V58.0099C80.3678 56.6601 80.6103 55.3237 81.0814 54.0766C81.5524 52.8296 82.243 51.6964 83.1135 50.7421C83.9842 49.7877 85.0177 49.0307 86.1552 48.5142C87.2927 47.9978 88.5118 47.732 89.743 47.7321C90.983 47.7266 92.2108 47.9992 93.3512 48.5332H93.3613C93.3666 48.5396 93.3738 48.5436 93.3816 48.5443C94.4972 49.0554 95.5098 49.8031 96.3613 50.7443C97.235 51.6957 97.9278 52.8279 98.3994 54.0751C98.8708 55.3223 99.1117 56.6598 99.1079 58.0099Z" fill="url(#paint4_linear_5_12)"/>
<g style="mix-blend-mode:multiply" opacity="0.3">
<path d="M34.7409 61.5887V92.2442C34.7152 94.9502 33.7166 97.5358 31.9621 99.4393C30.2076 101.343 27.8389 102.411 25.3704 102.411C22.902 102.411 20.5332 101.343 18.7787 99.4393C17.0242 97.5358 16.0257 94.9502 16 92.2442V90.4776C16 90.4776 16.0203 90.732 16.0608 91.1987C16.0811 91.6764 16.1419 92.3776 16.2443 93.232C16.4169 94.2503 16.7167 95.2378 17.1351 96.1664C17.875 97.8161 19.0269 99.2014 20.4569 100.161C21.887 101.121 23.5362 101.616 25.2128 101.589C25.9732 101.58 26.7294 101.464 27.4628 101.244C29.0123 100.766 30.4093 99.8232 31.4966 98.522C32.6101 97.1981 33.3432 95.5441 33.6047 93.7664C33.625 93.5442 33.6757 93.3664 33.6858 93.1109L33.7274 92.3553C33.7466 91.9664 33.7365 91.3776 33.7466 90.8998C33.7466 89.8998 33.7568 88.8887 33.7669 87.8998C33.7669 85.9109 33.8277 83.9553 33.849 82.0553C33.9189 78.2664 34.0304 74.732 34.1622 71.6998C34.4064 65.6331 34.7409 61.5887 34.7409 61.5887Z" fill="black"/>
</g>
<g style="mix-blend-mode:overlay" opacity="0.6">
<path d="M29.8659 40.1889C29.5135 40.063 29.1548 39.9591 28.7916 39.8778C27.8552 39.6398 26.8936 39.5426 25.9334 39.5889C25.6315 39.6012 25.3305 39.6346 25.0324 39.6889C24.7184 39.7312 24.4071 39.7943 24.1 39.8778C22.0092 40.3962 20.1445 41.6869 18.8186 43.5333C18.3563 44.1543 17.9681 44.8371 17.6632 45.5656C17.3721 46.2708 17.1512 47.0084 17.0044 47.7656C16.9298 48.1508 16.8754 48.5402 16.8412 48.9322L16.8108 49.2322C16.8108 49.2433 16.8007 49.41 16.7905 49.4878C16.7804 49.6878 16.7703 49.8878 16.751 50.0767C16.7095 50.8544 16.6385 51.5878 16.5777 52.2656C16.4542 53.7789 16.2614 55.2846 16 56.7767V49.1989C16.0019 47.4167 16.4264 45.6657 17.232 44.1177C18.0375 42.5698 19.1964 41.278 20.5948 40.3693C21.9933 39.4606 23.5832 38.9662 25.2086 38.9346C26.834 38.9029 28.4389 39.3352 29.8659 40.1889Z" fill="white"/>
</g>
<g style="mix-blend-mode:multiply" opacity="0.3">
<path d="M56.1553 70.8432V101.533C56.1553 102.882 55.913 104.218 55.442 105.464C54.9711 106.711 54.281 107.843 53.4109 108.797C52.5408 109.751 51.5078 110.507 50.3711 111.024C49.2342 111.54 48.0159 111.805 46.7854 111.805C45.5549 111.805 44.3364 111.54 43.1997 111.024C42.0628 110.507 41.0299 109.751 40.1598 108.797C39.2897 107.843 38.5995 106.711 38.1286 105.464C37.6578 104.218 37.4154 102.882 37.4154 101.533V100.289C37.4154 100.289 37.4357 100.544 37.4762 101.01C37.5121 101.683 37.5969 102.352 37.7296 103.01C38.1873 105.298 39.3507 107.343 41.0235 108.8C42.1075 109.736 43.3732 110.386 44.7229 110.7C45.0678 110.776 45.4163 110.832 45.7668 110.867C46.1513 110.896 46.537 110.903 46.9222 110.889C47.6857 110.843 48.4414 110.697 49.1732 110.454C50.6891 109.909 52.0411 108.922 53.0844 107.599C54.1542 106.253 54.8382 104.591 55.0506 102.821C55.1104 102.364 55.1442 101.904 55.1519 101.443L55.1621 99.9421C55.1621 98.9421 55.1722 97.9421 55.1833 96.9543C55.1833 94.9877 55.2431 93.0432 55.2644 91.1543C55.3344 87.3977 55.4458 83.8877 55.5776 80.8766C55.8208 74.8554 56.1553 70.8432 56.1553 70.8432Z" fill="black"/>
</g>
<g style="mix-blend-mode:overlay" opacity="0.6">
<path d="M47.7634 48.2767C47.6722 48.3 47.3175 48.3556 46.76 48.4444C46.4458 48.5333 46.0617 48.6 45.6452 48.7333C45.1802 48.8821 44.7234 49.0598 44.2769 49.2656C43.7646 49.5139 43.27 49.804 42.7972 50.1333C42.2866 50.5041 41.8021 50.9163 41.3479 51.3667C40.8841 51.8597 40.4633 52.399 40.0911 52.9778C39.7081 53.5649 39.382 54.1942 39.1181 54.8556C38.8611 55.5178 38.6645 56.2063 38.5313 56.9111C38.4633 57.2634 38.4122 57.6196 38.3783 57.9778L38.3276 58.51L38.3073 59.0889C38.2364 60.6111 38.1249 62.0322 37.9931 63.2556C37.8697 64.6256 37.6768 65.9869 37.4154 67.3333V58.5C37.4151 57.1502 37.6575 55.8136 38.1285 54.5666C38.5995 53.3194 39.2901 52.1863 40.1607 51.2319C41.0314 50.2774 42.0649 49.5203 43.2024 49.004C44.34 48.4876 45.5592 48.2219 46.7904 48.2222C47.1249 48.2222 47.4492 48.2444 47.7634 48.2767Z" fill="white"/>
</g>
<g style="mix-blend-mode:multiply" opacity="0.3">
<path d="M77.6925 50.6667V89.311C77.6925 92.0354 76.7053 94.6482 74.9481 96.5747C73.1908 98.501 70.8076 99.5833 68.3225 99.5833C65.8375 99.5833 63.4542 98.501 61.697 96.5747C59.9398 94.6482 58.9526 92.0354 58.9526 89.311V88.4444C58.9526 88.4444 58.9729 88.7222 59.0134 89.2444C59.0683 89.992 59.187 90.7322 59.3681 91.4556C59.6597 92.5576 60.1189 93.5977 60.7263 94.5322C61.4884 95.7256 62.4817 96.7197 63.635 97.4433C64.9739 98.2954 66.4957 98.7407 68.0438 98.7333C68.8644 98.7434 69.6817 98.616 70.4671 98.3554C71.2937 98.104 72.08 97.7142 72.7982 97.2C74.2925 96.1241 75.4466 94.5678 76.1023 92.7444L76.3354 92.0556L76.4975 91.3322C76.5583 91.0888 76.5685 90.8554 76.609 90.6222C76.6525 90.3694 76.6729 90.1127 76.6698 89.8554C76.7205 88.8554 76.6698 87.6444 76.68 86.5556C76.6901 84.3111 76.7002 82.0666 76.7205 79.8554C76.7205 77.6443 76.7813 75.4778 76.8016 73.3778C76.8725 69.1667 76.984 65.2443 77.1158 61.8777C77.358 55.1443 77.6925 50.6667 77.6925 50.6667Z" fill="black"/>
</g>
<g style="mix-blend-mode:overlay" opacity="0.6">
<path d="M69.483 36.0888C69.3513 36.111 69.0168 36.1666 68.5202 36.2333C68.2161 36.2555 67.8208 36.3988 67.3952 36.4766C66.9282 36.6179 66.4682 36.7852 66.0168 36.9777C65.4987 37.2144 64.9973 37.493 64.5168 37.811C63.9925 38.1624 63.4977 38.564 63.0381 39.011C62.7938 39.2333 62.581 39.4999 62.359 39.7444C62.1563 40.0333 61.9222 40.2877 61.7398 40.5888C61.3437 41.1683 61.0072 41.7939 60.7364 42.4544C60.4566 43.1089 60.2425 43.7947 60.0979 44.4999C60.0573 44.8555 59.956 45.1222 59.9256 45.5444L59.8749 46.121L59.8648 46.2666V46.2777L59.8546 46.2877V46.3666L59.8445 46.6555C59.7735 48.1888 59.6621 49.6111 59.5303 50.8333C59.4072 52.2069 59.2143 53.5721 58.9526 54.9222V46.2666C58.9526 44.9174 59.1951 43.5815 59.6664 42.3351C60.1377 41.0888 60.8284 39.9565 61.6991 39.003C62.5697 38.0495 63.6033 37.2935 64.7407 36.7782C65.878 36.2629 67.0969 35.9985 68.3276 35.9999C68.7143 35.9956 69.1006 36.0253 69.483 36.0888Z" fill="white"/>
</g>
<g style="mix-blend-mode:overlay" opacity="0.6">
<path d="M93.3512 48.5332C93.2599 48.5099 92.8951 48.4321 92.3174 48.3554C91.9829 48.311 91.5775 48.2877 91.1214 48.2766C90.6131 48.2744 90.1054 48.3082 89.6011 48.3777C89.0192 48.4727 88.4436 48.6097 87.8782 48.7877C87.2689 49.0031 86.6786 49.2787 86.1147 49.611C84.9096 50.334 83.8619 51.3348 83.0437 52.5443C82.6251 53.1498 82.2715 53.8059 81.9897 54.4999C81.7181 55.1709 81.5109 55.8709 81.3714 56.5888C81.2956 56.9508 81.2447 57.3184 81.2194 57.6888L81.189 57.9666L81.1789 58.0221L81.1687 58.0654L81.1586 58.211C81.1485 58.3999 81.1383 58.5777 81.1282 58.7666C81.0775 59.4999 81.0167 60.1999 80.9457 60.8332C80.8227 62.2694 80.6298 63.6973 80.368 65.111V58.0099C80.3678 56.6601 80.6103 55.3237 81.0814 54.0766C81.5524 52.8296 82.243 51.6964 83.1135 50.7421C83.9842 49.7877 85.0177 49.0307 86.1552 48.5142C87.2927 47.9978 88.5118 47.732 89.743 47.7321C90.983 47.7266 92.2108 47.9992 93.3512 48.5332Z" fill="white"/>
</g>
<g style="mix-blend-mode:multiply" opacity="0.3">
<path d="M99.1079 73.4444V101.044C99.1079 102.393 98.8655 103.729 98.3946 104.975C97.9237 106.222 97.2335 107.354 96.3635 108.308C95.4934 109.262 94.4604 110.018 93.3237 110.535C92.1868 111.051 90.9684 111.317 89.738 111.317C88.5075 111.317 87.289 111.051 86.1523 110.535C85.0154 110.018 83.9824 109.262 83.1124 108.308C82.2423 107.354 81.5521 106.222 81.0813 104.975C80.6104 103.729 80.368 102.393 80.368 101.044C80.368 101.044 80.3984 101.278 80.4593 101.722C80.4848 101.986 80.5322 102.246 80.6011 102.5C80.6639 102.852 80.752 103.197 80.8647 103.533C81.3788 105.238 82.2991 106.761 83.5304 107.945C84.7617 109.129 86.2593 109.93 87.868 110.267C88.2025 110.333 88.5167 110.356 88.8511 110.4L89.4187 110.411H89.7937L89.9255 110.389C90.6402 110.348 91.3479 110.214 92.0336 109.989C93.4511 109.508 94.732 108.635 95.7532 107.454C96.2737 106.848 96.7231 106.173 97.091 105.444C97.4403 104.706 97.7026 103.922 97.8714 103.111C97.9618 102.717 98.0262 102.316 98.064 101.911L98.1045 101.222V101.044L98.1147 100.921V100.578C98.1147 99.6443 98.1248 98.71 98.1349 97.7889C98.1349 95.9556 98.1957 94.1333 98.216 92.3889C98.287 88.8778 98.3984 85.6 98.5302 82.8C98.7734 77.1767 99.1079 73.4444 99.1079 73.4444Z" fill="black"/>
</g>
</g>
</g>
<defs>
<filter id="filter0_i_5_12" x="204" y="28" width="42" height="44" filterUnits="userSpaceOnUse" color-interpolation-filters="sRGB">
<feFlood flood-opacity="0" result="BackgroundImageFix"/>
<feBlend mode="normal" in="SourceGraphic" in2="BackgroundImageFix" result="shape"/>
<feColorMatrix in="SourceAlpha" type="matrix" values="0 0 0 0 0 0 0 0 0 0 0 0 0 0 0 0 0 0 127 0" result="hardAlpha"/>
<feOffset dy="4"/>
<feGaussianBlur stdDeviation="2"/>
<feComposite in2="hardAlpha" operator="arithmetic" k2="-1" k3="1"/>
<feColorMatrix type="matrix" values="0 0 0 0 0 0 0 0 0 0 0 0 0 0 0 0 0 0 0.25 0"/>
<feBlend mode="normal" in2="shape" result="effect1_innerShadow_5_12"/>
</filter>
<filter id="filter1_d_5_12" x="108.4" y="20.8" width="167.919" height="97.62" filterUnits="userSpaceOnUse" color-interpolation-filters="sRGB">
<feFlood flood-opacity="0" result="BackgroundImageFix"/>
<feColorMatrix in="SourceAlpha" type="matrix" values="0 0 0 0 0 0 0 0 0 0 0 0 0 0 0 0 0 0 127 0" result="hardAlpha"/>
<feOffset dy="4"/>
<feGaussianBlur stdDeviation="2"/>
<feComposite in2="hardAlpha" operator="out"/>
<feColorMatrix type="matrix" values="0 0 0 0 0 0 0 0 0 0 0 0 0 0 0 0 0 0 0.25 0"/>
<feBlend mode="normal" in2="BackgroundImageFix" result="effect1_dropShadow_5_12"/>
<feBlend mode="normal" in="SourceGraphic" in2="effect1_dropShadow_5_12" result="shape"/>
</filter>
<filter id="filter2_d_5_12" x="12" y="36" width="91.1079" height="83.8056" filterUnits="userSpaceOnUse" color-interpolation-filters="sRGB">
<feFlood flood-opacity="0" result="BackgroundImageFix"/>
<feColorMatrix in="SourceAlpha" type="matrix" values="0 0 0 0 0 0 0 0 0 0 0 0 0 0 0 0 0 0 127 0" result="hardAlpha"/>
<feOffset dy="4"/>
<feGaussianBlur stdDeviation="2"/>
<feComposite in2="hardAlpha" operator="out"/>
<feColorMatrix type="matrix" values="0 0 0 0 0 0 0 0 0 0 0 0 0 0 0 0 0 0 0.25 0"/>
<feBlend mode="normal" in2="BackgroundImageFix" result="effect1_dropShadow_5_12"/>
<feBlend mode="normal" in="SourceGraphic" in2="effect1_dropShadow_5_12" result="shape"/>
</filter>
<linearGradient id="paint0_linear_5_12" x1="203.5" y1="21" x2="203.5" y2="125" gradientUnits="userSpaceOnUse">
<stop stop-color="#10B981"/>
<stop offset="0.9999" stop-color="#B6B910"/>
</linearGradient>
<linearGradient id="paint1_linear_5_12" x1="25.3704" y1="37.7271" x2="25.3704" y2="95.7457" gradientUnits="userSpaceOnUse">
<stop stop-color="#10B981"/>
<stop offset="0.967" stop-color="#FAFF06"/>
</linearGradient>
<linearGradient id="paint2_linear_5_12" x1="46.7854" y1="49.176" x2="46.7854" y2="113.586" gradientUnits="userSpaceOnUse">
<stop stop-color="#10B981"/>
<stop offset="0.0001" stop-color="#0EB77E"/>
<stop offset="0.979167" stop-color="#FAFF06"/>
</linearGradient>
<linearGradient id="paint3_linear_5_12" x1="68.3225" y1="37.7163" x2="68.3225" y2="95.8318" gradientUnits="userSpaceOnUse">
<stop stop-color="#65FF06"/>
<stop offset="0.967" stop-color="#FAFF06"/>
</linearGradient>
<linearGradient id="paint4_linear_5_12" x1="89.738" y1="49.1944" x2="89.738" y2="113.606" gradientUnits="userSpaceOnUse">
<stop stop-color="#10B981"/>
<stop offset="1" stop-color="#FAFF06"/>
</linearGradient>
</defs>
</svg>
