<svg width="300" height="130" viewBox="0 0 300 130" fill="none" xmlns="http://www.w3.org/2000/svg">
<g clip-path="url(#clip0_5_12)">
<rect width="300" height="130" fill="white"/>
<g filter="url(#filter0_i_5_12)">
<path d="M265 32.5625C267.066 32.5625 268.741 30.9675 268.741 29C268.741 27.0325 267.066 25.4375 265 25.4375C262.934 25.4375 261.259 27.0325 261.259 29C261.259 30.9675 262.934 32.5625 265 32.5625Z" fill="#61DAFB"/>
<path d="M279.208 23.125C278.486 22.875 277.731 22.625 276.944 22.4063C277.141 21.6563 277.305 20.9062 277.436 20.1875C278.125 16.0625 277.37 13.1562 275.27 12.0312C274.647 11.6875 273.958 11.5312 273.17 11.5312C270.873 11.5312 267.953 13.1562 265 15.875C262.047 13.1562 259.127 11.5312 256.83 11.5312C256.042 11.5312 255.353 11.6875 254.73 12.0312C252.63 13.1875 251.875 16.0937 252.564 20.1875C252.695 20.9062 252.859 21.6563 253.056 22.4063C252.269 22.625 251.514 22.8437 250.792 23.125C246.691 24.625 244.459 26.6875 244.459 29C244.459 31.3125 246.723 33.375 250.792 34.875C251.514 35.125 252.269 35.375 253.056 35.5938C252.859 36.3438 252.695 37.0937 252.564 37.8125C251.875 41.9375 252.63 44.8438 254.73 45.9688C255.353 46.3125 256.042 46.4688 256.83 46.4688C259.159 46.4688 262.08 44.8438 265 42.125C267.953 44.8438 270.873 46.4688 273.17 46.4688C273.958 46.4688 274.647 46.3125 275.27 45.9688C277.37 44.8125 278.125 41.9062 277.436 37.8125C277.305 37.0937 277.141 36.3438 276.944 35.5938C277.731 35.375 278.486 35.1563 279.208 34.875C283.309 33.375 285.541 31.3125 285.541 29C285.541 26.6875 283.309 24.625 279.208 23.125V23.125ZM274.352 13.5937C275.697 14.3437 276.156 16.6562 275.598 19.9375C275.5 20.5937 275.336 21.2813 275.139 22C273.433 21.625 271.628 21.375 269.725 21.2187C268.609 19.7187 267.461 18.375 266.313 17.1562C268.741 14.875 271.202 13.3125 273.203 13.3125C273.63 13.3125 274.023 13.4062 274.352 13.5937V13.5937ZM270.677 32.125C270.086 33.125 269.397 34.125 268.675 35.125C267.461 35.2188 266.247 35.25 265 35.25C263.72 35.25 262.506 35.2188 261.325 35.125C260.603 34.125 259.947 33.125 259.356 32.125C258.733 31.0938 258.142 30.0313 257.617 29C258.142 27.9688 258.733 26.9063 259.356 25.875C259.947 24.875 260.636 23.875 261.358 22.875C262.572 22.7813 263.786 22.75 265.033 22.75C266.313 22.75 267.527 22.7813 268.708 22.875C269.43 23.875 270.086 24.875 270.677 25.875C271.3 26.9063 271.891 27.9688 272.416 29C271.858 30.0313 271.3 31.0625 270.677 32.125ZM273.4 31.0937C273.892 32.1875 274.286 33.25 274.647 34.3125C273.531 34.5625 272.35 34.75 271.103 34.9063C271.497 34.3125 271.923 33.6875 272.284 33.0313C272.678 32.375 273.039 31.7187 273.4 31.0937ZM265 39.5625C264.213 38.75 263.458 37.875 262.736 36.9688C263.491 37 264.245 37.0312 265 37.0312C265.755 37.0312 266.509 37 267.264 36.9688C266.542 37.875 265.788 38.75 265 39.5625ZM258.897 34.875C257.65 34.7188 256.469 34.5313 255.353 34.2813C255.714 33.25 256.108 32.1562 256.6 31.0625C256.961 31.6875 257.322 32.3437 257.716 32.9687C258.109 33.6562 258.503 34.25 258.897 34.875V34.875ZM256.6 26.9062C256.108 25.8125 255.714 24.75 255.353 23.6875C256.469 23.4375 257.65 23.25 258.897 23.0938C258.503 23.6875 258.077 24.3125 257.716 24.9688C257.322 25.625 256.961 26.2812 256.6 26.9062V26.9062ZM265 18.4375C265.788 19.25 266.542 20.125 267.264 21.0312C266.509 21 265.755 20.9687 265 20.9687C264.245 20.9687 263.491 21 262.736 21.0312C263.458 20.125 264.213 19.25 265 18.4375ZM272.284 25L271.103 23.125C272.35 23.2812 273.531 23.4687 274.647 23.7188C274.286 24.75 273.892 25.8438 273.4 26.9375C273.039 26.2813 272.678 25.625 272.284 25ZM254.402 19.9375C253.844 16.6562 254.303 14.3437 255.648 13.5937C255.977 13.4062 256.37 13.3125 256.797 13.3125C258.766 13.3125 261.227 14.8437 263.688 17.1562C262.539 18.3437 261.391 19.7187 260.275 21.2187C258.372 21.375 256.567 21.6562 254.861 22C254.664 21.2813 254.533 20.5937 254.402 19.9375V19.9375ZM246.297 29C246.297 27.5313 248.167 25.9688 251.448 24.8125C252.105 24.5625 252.827 24.3438 253.548 24.1563C254.073 25.7188 254.73 27.375 255.517 29.0312C254.73 30.6875 254.041 32.3125 253.548 33.875C249.02 32.625 246.297 30.75 246.297 29ZM255.648 44.4063C254.303 43.6563 253.844 41.3438 254.402 38.0625C254.5 37.4063 254.664 36.7188 254.861 36C256.567 36.375 258.372 36.625 260.275 36.7813C261.391 38.2813 262.539 39.625 263.688 40.8438C261.259 43.125 258.798 44.6875 256.797 44.6875C256.37 44.6875 255.977 44.5938 255.648 44.4063ZM275.598 38.0625C276.156 41.3438 275.697 43.6563 274.352 44.4063C274.023 44.5938 273.63 44.6875 273.203 44.6875C271.234 44.6875 268.773 43.1563 266.313 40.8438C267.461 39.6563 268.609 38.2813 269.725 36.7813C271.628 36.625 273.433 36.3438 275.139 36C275.336 36.7188 275.467 37.4063 275.598 38.0625V38.0625ZM278.552 33.1875C277.895 33.4375 277.173 33.6563 276.452 33.8438C275.927 32.2813 275.27 30.625 274.483 28.9688C275.27 27.3125 275.959 25.6875 276.452 24.125C280.98 25.375 283.703 27.25 283.703 29C283.703 30.4688 281.8 32.0313 278.552 33.1875Z" fill="#61DAFB"/>
</g>
<path d="M16 0V29H47V0H16ZM32.3975 24.711C31.94 25.5808 31.0665 26.1522 30.0544 26.428C28.4992 26.7621 27.0117 26.5717 25.9051 25.9504C25.1646 25.5253 24.5863 24.8711 24.1937 24.1173L26.5546 22.7648C26.5752 22.7729 26.6372 22.8778 26.72 23.0132C27.0211 23.4851 27.2808 23.8192 27.7912 24.0538C28.2926 24.2138 29.3935 24.3162 29.8186 23.4907C30.0782 23.0708 29.9956 21.721 29.9956 20.2276C29.9954 17.8809 30.007 15.544 30.007 13.224H32.9109C32.9109 15.776 32.9258 18.193 32.9109 20.6833C32.9171 22.2098 33.0587 23.5707 32.3975 24.711ZM44.4439 23.9436C43.4345 27.1735 37.8069 27.2783 35.558 25.1444C35.0829 24.6421 34.785 24.3797 34.5015 23.8C35.6967 23.1568 35.6967 23.1568 36.8595 22.5274C37.4912 23.4357 38.0752 23.9352 39.126 24.1396C40.5515 24.3025 41.9857 23.8443 41.664 22.4279C41.3334 21.2712 38.7451 20.9897 36.9835 19.7527C35.1952 18.6291 34.7761 15.899 36.2457 14.339C36.7355 13.762 37.5708 13.3314 38.4472 13.1245L39.3618 13.0138C41.1179 12.9806 42.2156 13.4145 43.0213 14.2562C43.2455 14.4687 43.4286 14.6979 43.7708 15.1946C42.8353 15.7523 42.8383 15.747 41.4984 16.5585C41.2122 15.9818 40.7373 15.6199 40.2353 15.4626C39.4561 15.2417 38.4735 15.4818 38.2697 16.2521C38.199 16.4894 38.2136 16.7103 38.326 17.1023C38.6417 17.7758 39.7011 18.0686 40.6515 18.4772C43.3871 19.5151 44.3109 20.628 44.5381 21.9528C44.7568 23.0933 44.4853 23.8331 44.4439 23.9436Z" fill="#F0DB4F"/>
<g filter="url(#filter1_d_5_12)">
<mask id="path-4-outside-1_5_12" maskUnits="userSpaceOnUse" x="112" y="20" width="161" height="89" fill="black">
<rect fill="white" x="112" y="20" width="161" height="89"/>
<path d="M112.4 45.58L114.08 45.16V27.24L112.4 26.82V26.4H119.54C122.881 26.4 125.439 27.2587 127.212 28.976C129.004 30.6933 129.9 33.1013 129.9 36.2C129.9 39.2987 129.004 41.7067 127.212 43.424C125.439 45.1413 122.881 46 119.54 46H112.4V45.58ZM119.54 45.3C121.276 45.3 122.62 44.6 123.572 43.2C124.524 41.7813 125 39.448 125 36.2C125 32.952 124.524 30.628 123.572 29.228C122.62 27.8093 121.276 27.1 119.54 27.1H118.7V45.3H119.54ZM129.608 45.58L131.848 44.74L139.548 26.12H140.388L148.368 45.16L149.768 45.58V46H146.408C145.437 46 144.644 45.7853 144.028 45.356C143.412 44.908 142.955 44.3293 142.656 43.62L141.228 40.26H134.536L132.688 44.74L134.788 45.58V46H129.608V45.58ZM134.816 39.56H140.948L137.868 32.196L134.816 39.56ZM139.184 25L140.304 20.8H143.944L140.164 25H139.184ZM148.207 27.24L146.807 26.82V26.4H150.167C151.138 26.4 151.931 26.624 152.547 27.072C153.163 27.5013 153.63 28.0707 153.947 28.78L158.903 40.064L163.467 27.66L161.367 26.82V26.4H166.547V26.82L164.307 27.66L157.447 46.28H156.607L148.207 27.24ZM167.388 46V45.58L169.068 45.16V27.24L167.388 26.82V26.4H175.368V26.82L173.688 27.24V45.16L175.368 45.58V46H167.388ZM177.888 45.58L179.568 45.16V27.24L177.888 26.82V26.4H185.028C188.37 26.4 190.927 27.2587 192.7 28.976C194.492 30.6933 195.388 33.1013 195.388 36.2C195.388 39.2987 194.492 41.7067 192.7 43.424C190.927 45.1413 188.37 46 185.028 46H177.888V45.58ZM185.028 45.3C186.764 45.3 188.108 44.6 189.06 43.2C190.012 41.7813 190.488 39.448 190.488 36.2C190.488 32.952 190.012 30.628 189.06 29.228C188.108 27.8093 186.764 27.1 185.028 27.1H184.188V45.3H185.028ZM112.4 77V76.58L114.08 76.16V58.24L112.4 57.82V57.4H120.38V57.82L118.7 58.24V76.16L120.38 76.58V77H112.4ZM125.42 62.16V75.74L127.66 76.58V77H122.34V76.58L124.58 75.74V58.38L122.62 57.82V57.4H125.56C126.549 57.4 127.324 57.5773 127.884 57.932C128.444 58.2867 128.976 58.7627 129.48 59.36L138.44 69.86V58.66L136.2 57.82V57.4H141.52V57.82L139.28 58.66V77.42H138.44L125.42 62.16ZM151.327 77.42C149.908 77.42 148.601 77.0187 147.407 76.216C146.212 75.4133 145.26 74.2467 144.551 72.716C143.841 71.1667 143.487 69.328 143.487 67.2C143.487 65.0533 143.851 63.2147 144.579 61.684C145.325 60.1347 146.361 58.968 147.687 58.184C149.031 57.3813 150.58 56.98 152.335 56.98C153.399 56.98 154.472 57.288 155.555 57.904C155.965 58.128 156.376 58.4267 156.787 58.8C157.104 58.3147 157.431 57.932 157.767 57.652C158.103 57.4093 158.289 57.2787 158.327 57.26H159.027V62.58H157.907C157.664 61.684 157.3 60.872 156.815 60.144C156.367 59.4347 155.807 58.8467 155.135 58.38C154.481 57.9133 153.725 57.68 152.867 57.68C151.579 57.68 150.505 58.4267 149.647 59.92C148.807 61.4133 148.387 63.84 148.387 67.2C148.387 70.56 148.76 72.94 149.507 74.34C150.272 75.74 151.252 76.44 152.447 76.44C153.137 76.44 153.763 76.0667 154.323 75.32C154.528 75.04 154.743 74.6667 154.967 74.2V67.76L153.287 67.34V66.92H161.267V67.34L159.587 67.76V77.14H159.167C157.804 77.14 156.768 76.7667 156.059 76.02C155.741 75.684 155.517 75.3107 155.387 74.9C155.125 75.3667 154.817 75.7867 154.463 76.16C153.623 77 152.577 77.42 151.327 77.42ZM163.232 76.58L164.912 76.16V58.24L163.232 57.82V57.4H171.212V57.82L169.532 58.24V76.3H175.552C175.552 75.124 175.851 74.032 176.448 73.024C176.709 72.5947 177.017 72.24 177.372 71.96H178.212V77H163.232V76.58ZM188.735 77.42C186.906 77.42 185.3 77.028 183.919 76.244C182.556 75.4413 181.502 74.2747 180.755 72.744C180.008 71.2133 179.635 69.3653 179.635 67.2C179.635 65.0347 180.008 63.1867 180.755 61.656C181.502 60.1253 182.556 58.968 183.919 58.184C185.3 57.3813 186.906 56.98 188.735 56.98C190.564 56.98 192.16 57.3813 193.523 58.184C194.904 58.968 195.968 60.1253 196.715 61.656C197.462 63.1867 197.835 65.0347 197.835 67.2C197.835 69.3653 197.462 71.2133 196.715 72.744C195.968 74.2747 194.904 75.4413 193.523 76.244C192.16 77.028 190.564 77.42 188.735 77.42ZM188.735 76.86C189.463 76.86 190.135 76.552 190.751 75.936C191.386 75.32 191.908 74.2933 192.319 72.856C192.73 71.4187 192.935 69.5333 192.935 67.2C192.935 64.8667 192.73 62.9813 192.319 61.544C191.908 60.1067 191.386 59.08 190.751 58.464C190.135 57.848 189.463 57.54 188.735 57.54C188.007 57.54 187.326 57.848 186.691 58.464C186.075 59.08 185.562 60.1067 185.151 61.544C184.74 62.9813 184.535 64.8667 184.535 67.2C184.535 69.5333 184.74 71.4187 185.151 72.856C185.562 74.2933 186.075 75.32 186.691 75.936C187.326 76.552 188.007 76.86 188.735 76.86ZM200.502 76.58L202.182 76.16V58.24L200.502 57.82V57.4H207.642C210.983 57.4 213.54 58.2587 215.314 59.976C217.106 61.6933 218.002 64.1013 218.002 67.2C218.002 70.2987 217.106 72.7067 215.314 74.424C213.54 76.1413 210.983 77 207.642 77H200.502V76.58ZM207.642 76.3C209.378 76.3 210.722 75.6 211.674 74.2C212.626 72.7813 213.102 70.448 213.102 67.2C213.102 63.952 212.626 61.628 211.674 60.228C210.722 58.8093 209.378 58.1 207.642 58.1H206.802V76.3H207.642ZM223.73 76.58L225.41 76.16V69.72L219.67 58.24L218.27 57.82V57.4H221.77C222.74 57.4 223.515 57.6053 224.094 58.016C224.691 58.4267 225.176 59.0147 225.55 59.78L229.694 68.04L233.95 58.66L231.85 57.82V57.4H237.17V57.82L234.93 58.66L230.03 69.44V76.16L231.71 76.58V77H223.73V76.58ZM112.4 107.58L114.08 107.16V89.24L112.4 88.82V88.4H120.24C123.339 88.4 125.56 88.9133 126.904 89.94C128.248 90.948 128.92 92.4413 128.92 94.42C128.92 96.3987 128.248 97.9013 126.904 98.928C125.56 99.936 123.339 100.44 120.24 100.44H118.7V107.16L120.38 107.58V108H112.4V107.58ZM120.24 99.74C121.416 99.74 122.359 99.292 123.068 98.396C123.796 97.5 124.16 96.1747 124.16 94.42C124.16 92.684 123.796 91.368 123.068 90.472C122.359 89.5573 121.416 89.1 120.24 89.1H118.7V99.74H120.24ZM140.255 108.42C138.425 108.42 136.82 108.028 135.439 107.244C134.076 106.441 133.021 105.275 132.275 103.744C131.528 102.213 131.155 100.365 131.155 98.2C131.155 96.0347 131.528 94.1867 132.275 92.656C133.021 91.1253 134.076 89.968 135.439 89.184C136.82 88.3813 138.425 87.98 140.255 87.98C142.084 87.98 143.68 88.3813 145.043 89.184C146.424 89.968 147.488 91.1253 148.235 92.656C148.981 94.1867 149.355 96.0347 149.355 98.2C149.355 100.365 148.981 102.213 148.235 103.744C147.488 105.275 146.424 106.441 145.043 107.244C143.68 108.028 142.084 108.42 140.255 108.42ZM140.255 107.86C140.983 107.86 141.655 107.552 142.271 106.936C142.905 106.32 143.428 105.293 143.839 103.856C144.249 102.419 144.455 100.533 144.455 98.2C144.455 95.8667 144.249 93.9813 143.839 92.544C143.428 91.1067 142.905 90.08 142.271 89.464C141.655 88.848 140.983 88.54 140.255 88.54C139.527 88.54 138.845 88.848 138.211 89.464C137.595 90.08 137.081 91.1067 136.671 92.544C136.26 93.9813 136.055 95.8667 136.055 98.2C136.055 100.533 136.26 102.419 136.671 103.856C137.081 105.293 137.595 106.32 138.211 106.936C138.845 107.552 139.527 107.86 140.255 107.86ZM152.021 107.58L153.701 107.16V89.24L152.021 88.82V88.4H159.441C162.614 88.4 164.901 88.8853 166.301 89.856C167.701 90.808 168.401 92.1427 168.401 93.86C168.401 95.0173 168.093 95.96 167.477 96.688C166.861 97.3973 166.068 97.9293 165.097 98.284C164.07 98.676 162.978 98.8813 161.821 98.9V99.04C162.512 99.0773 163.118 99.18 163.641 99.348C164.948 99.7587 165.834 100.496 166.301 101.56L168.821 107.16L170.221 107.58V108H166.301C164.77 108 163.65 107.207 162.941 105.62L160.141 99.32H158.321V107.16L160.281 107.58V108H152.021V107.58ZM159.441 98.62C160.748 98.62 161.774 98.2093 162.521 97.388C163.268 96.5667 163.641 95.3907 163.641 93.86C163.641 92.3293 163.268 91.1533 162.521 90.332C161.774 89.5107 160.748 89.1 159.441 89.1H158.321V98.62H159.441ZM174.853 107.58L176.533 107.16V89.1H173.313C173.313 90.2387 173.005 91.3307 172.389 92.376C172.128 92.8053 171.829 93.16 171.493 93.44H170.653V88.4H187.033V93.44H186.193C185.838 93.16 185.53 92.8053 185.269 92.376C184.672 91.368 184.373 90.276 184.373 89.1H181.153V107.16L182.833 107.58V108H174.853V107.58ZM189.127 107.58L190.807 107.16V89.24L189.127 88.82V88.4H204.107V93.44H203.267C202.912 93.16 202.604 92.8053 202.343 92.376C201.745 91.368 201.447 90.276 201.447 89.1H195.427V97.92H198.647C198.777 97.2107 199.02 96.548 199.375 95.932C199.524 95.652 199.701 95.3813 199.907 95.12H200.747V101.42H199.907C199.701 101.159 199.524 100.888 199.375 100.608C199.02 99.992 198.777 99.3293 198.647 98.62H195.427V107.16L197.107 107.58V108H189.127V107.58ZM214.63 108.42C212.8 108.42 211.195 108.028 209.814 107.244C208.451 106.441 207.396 105.275 206.65 103.744C205.903 102.213 205.53 100.365 205.53 98.2C205.53 96.0347 205.903 94.1867 206.65 92.656C207.396 91.1253 208.451 89.968 209.814 89.184C211.195 88.3813 212.8 87.98 214.63 87.98C216.459 87.98 218.055 88.3813 219.418 89.184C220.799 89.968 221.863 91.1253 222.61 92.656C223.356 94.1867 223.73 96.0347 223.73 98.2C223.73 100.365 223.356 102.213 222.61 103.744C221.863 105.275 220.799 106.441 219.418 107.244C218.055 108.028 216.459 108.42 214.63 108.42ZM214.63 107.86C215.358 107.86 216.03 107.552 216.646 106.936C217.28 106.32 217.803 105.293 218.214 103.856C218.624 102.419 218.83 100.533 218.83 98.2C218.83 95.8667 218.624 93.9813 218.214 92.544C217.803 91.1067 217.28 90.08 216.646 89.464C216.03 88.848 215.358 88.54 214.63 88.54C213.902 88.54 213.22 88.848 212.586 89.464C211.97 90.08 211.456 91.1067 211.046 92.544C210.635 93.9813 210.43 95.8667 210.43 98.2C210.43 100.533 210.635 102.419 211.046 103.856C211.456 105.293 211.97 106.32 212.586 106.936C213.22 107.552 213.902 107.86 214.63 107.86ZM226.396 107.58L228.076 107.16V89.24L226.396 88.82V88.4H234.376V88.82L232.696 89.24V107.3H238.716C238.716 106.124 239.015 105.032 239.612 104.024C239.873 103.595 240.181 103.24 240.536 102.96H241.376V108H226.396V107.58ZM243.486 108V107.58L245.166 107.16V89.24L243.486 88.82V88.4H251.466V88.82L249.786 89.24V107.16L251.466 107.58V108H243.486ZM263.219 108.42C261.39 108.42 259.785 108.028 258.403 107.244C257.041 106.441 255.986 105.275 255.239 103.744C254.493 102.213 254.119 100.365 254.119 98.2C254.119 96.0347 254.493 94.1867 255.239 92.656C255.986 91.1253 257.041 89.968 258.403 89.184C259.785 88.3813 261.39 87.98 263.219 87.98C265.049 87.98 266.645 88.3813 268.007 89.184C269.389 89.968 270.453 91.1253 271.199 92.656C271.946 94.1867 272.319 96.0347 272.319 98.2C272.319 100.365 271.946 102.213 271.199 103.744C270.453 105.275 269.389 106.441 268.007 107.244C266.645 108.028 265.049 108.42 263.219 108.42ZM263.219 107.86C263.947 107.86 264.619 107.552 265.235 106.936C265.87 106.32 266.393 105.293 266.803 103.856C267.214 102.419 267.419 100.533 267.419 98.2C267.419 95.8667 267.214 93.9813 266.803 92.544C266.393 91.1067 265.87 90.08 265.235 89.464C264.619 88.848 263.947 88.54 263.219 88.54C262.491 88.54 261.81 88.848 261.175 89.464C260.559 90.08 260.046 91.1067 259.635 92.544C259.225 93.9813 259.019 95.8667 259.019 98.2C259.019 100.533 259.225 102.419 259.635 103.856C260.046 105.293 260.559 106.32 261.175 106.936C261.81 107.552 262.491 107.86 263.219 107.86Z"/>
</mask>
<path d="M112.4 45.58L114.08 45.16V27.24L112.4 26.82V26.4H119.54C122.881 26.4 125.439 27.2587 127.212 28.976C129.004 30.6933 129.9 33.1013 129.9 36.2C129.9 39.2987 129.004 41.7067 127.212 43.424C125.439 45.1413 122.881 46 119.54 46H112.4V45.58ZM119.54 45.3C121.276 45.3 122.62 44.6 123.572 43.2C124.524 41.7813 125 39.448 125 36.2C125 32.952 124.524 30.628 123.572 29.228C122.62 27.8093 121.276 27.1 119.54 27.1H118.7V45.3H119.54ZM129.608 45.58L131.848 44.74L139.548 26.12H140.388L148.368 45.16L149.768 45.58V46H146.408C145.437 46 144.644 45.7853 144.028 45.356C143.412 44.908 142.955 44.3293 142.656 43.62L141.228 40.26H134.536L132.688 44.74L134.788 45.58V46H129.608V45.58ZM134.816 39.56H140.948L137.868 32.196L134.816 39.56ZM139.184 25L140.304 20.8H143.944L140.164 25H139.184ZM148.207 27.24L146.807 26.82V26.4H150.167C151.138 26.4 151.931 26.624 152.547 27.072C153.163 27.5013 153.63 28.0707 153.947 28.78L158.903 40.064L163.467 27.66L161.367 26.82V26.4H166.547V26.82L164.307 27.66L157.447 46.28H156.607L148.207 27.24ZM167.388 46V45.58L169.068 45.16V27.24L167.388 26.82V26.4H175.368V26.82L173.688 27.24V45.16L175.368 45.58V46H167.388ZM177.888 45.58L179.568 45.16V27.24L177.888 26.82V26.4H185.028C188.37 26.4 190.927 27.2587 192.7 28.976C194.492 30.6933 195.388 33.1013 195.388 36.2C195.388 39.2987 194.492 41.7067 192.7 43.424C190.927 45.1413 188.37 46 185.028 46H177.888V45.58ZM185.028 45.3C186.764 45.3 188.108 44.6 189.06 43.2C190.012 41.7813 190.488 39.448 190.488 36.2C190.488 32.952 190.012 30.628 189.06 29.228C188.108 27.8093 186.764 27.1 185.028 27.1H184.188V45.3H185.028ZM112.4 77V76.58L114.08 76.16V58.24L112.4 57.82V57.4H120.38V57.82L118.7 58.24V76.16L120.38 76.58V77H112.4ZM125.42 62.16V75.74L127.66 76.58V77H122.34V76.58L124.58 75.74V58.38L122.62 57.82V57.4H125.56C126.549 57.4 127.324 57.5773 127.884 57.932C128.444 58.2867 128.976 58.7627 129.48 59.36L138.44 69.86V58.66L136.2 57.82V57.4H141.52V57.82L139.28 58.66V77.42H138.44L125.42 62.16ZM151.327 77.42C149.908 77.42 148.601 77.0187 147.407 76.216C146.212 75.4133 145.26 74.2467 144.551 72.716C143.841 71.1667 143.487 69.328 143.487 67.2C143.487 65.0533 143.851 63.2147 144.579 61.684C145.325 60.1347 146.361 58.968 147.687 58.184C149.031 57.3813 150.58 56.98 152.335 56.98C153.399 56.98 154.472 57.288 155.555 57.904C155.965 58.128 156.376 58.4267 156.787 58.8C157.104 58.3147 157.431 57.932 157.767 57.652C158.103 57.4093 158.289 57.2787 158.327 57.26H159.027V62.58H157.907C157.664 61.684 157.3 60.872 156.815 60.144C156.367 59.4347 155.807 58.8467 155.135 58.38C154.481 57.9133 153.725 57.68 152.867 57.68C151.579 57.68 150.505 58.4267 149.647 59.92C148.807 61.4133 148.387 63.84 148.387 67.2C148.387 70.56 148.76 72.94 149.507 74.34C150.272 75.74 151.252 76.44 152.447 76.44C153.137 76.44 153.763 76.0667 154.323 75.32C154.528 75.04 154.743 74.6667 154.967 74.2V67.76L153.287 67.34V66.92H161.267V67.34L159.587 67.76V77.14H159.167C157.804 77.14 156.768 76.7667 156.059 76.02C155.741 75.684 155.517 75.3107 155.387 74.9C155.125 75.3667 154.817 75.7867 154.463 76.16C153.623 77 152.577 77.42 151.327 77.42ZM163.232 76.58L164.912 76.16V58.24L163.232 57.82V57.4H171.212V57.82L169.532 58.24V76.3H175.552C175.552 75.124 175.851 74.032 176.448 73.024C176.709 72.5947 177.017 72.24 177.372 71.96H178.212V77H163.232V76.58ZM188.735 77.42C186.906 77.42 185.3 77.028 183.919 76.244C182.556 75.4413 181.502 74.2747 180.755 72.744C180.008 71.2133 179.635 69.3653 179.635 67.2C179.635 65.0347 180.008 63.1867 180.755 61.656C181.502 60.1253 182.556 58.968 183.919 58.184C185.3 57.3813 186.906 56.98 188.735 56.98C190.564 56.98 192.16 57.3813 193.523 58.184C194.904 58.968 195.968 60.1253 196.715 61.656C197.462 63.1867 197.835 65.0347 197.835 67.2C197.835 69.3653 197.462 71.2133 196.715 72.744C195.968 74.2747 194.904 75.4413 193.523 76.244C192.16 77.028 190.564 77.42 188.735 77.42ZM188.735 76.86C189.463 76.86 190.135 76.552 190.751 75.936C191.386 75.32 191.908 74.2933 192.319 72.856C192.73 71.4187 192.935 69.5333 192.935 67.2C192.935 64.8667 192.73 62.9813 192.319 61.544C191.908 60.1067 191.386 59.08 190.751 58.464C190.135 57.848 189.463 57.54 188.735 57.54C188.007 57.54 187.326 57.848 186.691 58.464C186.075 59.08 185.562 60.1067 185.151 61.544C184.74 62.9813 184.535 64.8667 184.535 67.2C184.535 69.5333 184.74 71.4187 185.151 72.856C185.562 74.2933 186.075 75.32 186.691 75.936C187.326 76.552 188.007 76.86 188.735 76.86ZM200.502 76.58L202.182 76.16V58.24L200.502 57.82V57.4H207.642C210.983 57.4 213.54 58.2587 215.314 59.976C217.106 61.6933 218.002 64.1013 218.002 67.2C218.002 70.2987 217.106 72.7067 215.314 74.424C213.54 76.1413 210.983 77 207.642 77H200.502V76.58ZM207.642 76.3C209.378 76.3 210.722 75.6 211.674 74.2C212.626 72.7813 213.102 70.448 213.102 67.2C213.102 63.952 212.626 61.628 211.674 60.228C210.722 58.8093 209.378 58.1 207.642 58.1H206.802V76.3H207.642ZM223.73 76.58L225.41 76.16V69.72L219.67 58.24L218.27 57.82V57.4H221.77C222.74 57.4 223.515 57.6053 224.094 58.016C224.691 58.4267 225.176 59.0147 225.55 59.78L229.694 68.04L233.95 58.66L231.85 57.82V57.4H237.17V57.82L234.93 58.66L230.03 69.44V76.16L231.71 76.58V77H223.73V76.58ZM112.4 107.58L114.08 107.16V89.24L112.4 88.82V88.4H120.24C123.339 88.4 125.56 88.9133 126.904 89.94C128.248 90.948 128.92 92.4413 128.92 94.42C128.92 96.3987 128.248 97.9013 126.904 98.928C125.56 99.936 123.339 100.44 120.24 100.44H118.7V107.16L120.38 107.58V108H112.4V107.58ZM120.24 99.74C121.416 99.74 122.359 99.292 123.068 98.396C123.796 97.5 124.16 96.1747 124.16 94.42C124.16 92.684 123.796 91.368 123.068 90.472C122.359 89.5573 121.416 89.1 120.24 89.1H118.7V99.74H120.24ZM140.255 108.42C138.425 108.42 136.82 108.028 135.439 107.244C134.076 106.441 133.021 105.275 132.275 103.744C131.528 102.213 131.155 100.365 131.155 98.2C131.155 96.0347 131.528 94.1867 132.275 92.656C133.021 91.1253 134.076 89.968 135.439 89.184C136.82 88.3813 138.425 87.98 140.255 87.98C142.084 87.98 143.68 88.3813 145.043 89.184C146.424 89.968 147.488 91.1253 148.235 92.656C148.981 94.1867 149.355 96.0347 149.355 98.2C149.355 100.365 148.981 102.213 148.235 103.744C147.488 105.275 146.424 106.441 145.043 107.244C143.68 108.028 142.084 108.42 140.255 108.42ZM140.255 107.86C140.983 107.86 141.655 107.552 142.271 106.936C142.905 106.32 143.428 105.293 143.839 103.856C144.249 102.419 144.455 100.533 144.455 98.2C144.455 95.8667 144.249 93.9813 143.839 92.544C143.428 91.1067 142.905 90.08 142.271 89.464C141.655 88.848 140.983 88.54 140.255 88.54C139.527 88.54 138.845 88.848 138.211 89.464C137.595 90.08 137.081 91.1067 136.671 92.544C136.26 93.9813 136.055 95.8667 136.055 98.2C136.055 100.533 136.26 102.419 136.671 103.856C137.081 105.293 137.595 106.32 138.211 106.936C138.845 107.552 139.527 107.86 140.255 107.86ZM152.021 107.58L153.701 107.16V89.24L152.021 88.82V88.4H159.441C162.614 88.4 164.901 88.8853 166.301 89.856C167.701 90.808 168.401 92.1427 168.401 93.86C168.401 95.0173 168.093 95.96 167.477 96.688C166.861 97.3973 166.068 97.9293 165.097 98.284C164.07 98.676 162.978 98.8813 161.821 98.9V99.04C162.512 99.0773 163.118 99.18 163.641 99.348C164.948 99.7587 165.834 100.496 166.301 101.56L168.821 107.16L170.221 107.58V108H166.301C164.77 108 163.65 107.207 162.941 105.62L160.141 99.32H158.321V107.16L160.281 107.58V108H152.021V107.58ZM159.441 98.62C160.748 98.62 161.774 98.2093 162.521 97.388C163.268 96.5667 163.641 95.3907 163.641 93.86C163.641 92.3293 163.268 91.1533 162.521 90.332C161.774 89.5107 160.748 89.1 159.441 89.1H158.321V98.62H159.441ZM174.853 107.58L176.533 107.16V89.1H173.313C173.313 90.2387 173.005 91.3307 172.389 92.376C172.128 92.8053 171.829 93.16 171.493 93.44H170.653V88.4H187.033V93.44H186.193C185.838 93.16 185.53 92.8053 185.269 92.376C184.672 91.368 184.373 90.276 184.373 89.1H181.153V107.16L182.833 107.58V108H174.853V107.58ZM189.127 107.58L190.807 107.16V89.24L189.127 88.82V88.4H204.107V93.44H203.267C202.912 93.16 202.604 92.8053 202.343 92.376C201.745 91.368 201.447 90.276 201.447 89.1H195.427V97.92H198.647C198.777 97.2107 199.02 96.548 199.375 95.932C199.524 95.652 199.701 95.3813 199.907 95.12H200.747V101.42H199.907C199.701 101.159 199.524 100.888 199.375 100.608C199.02 99.992 198.777 99.3293 198.647 98.62H195.427V107.16L197.107 107.58V108H189.127V107.58ZM214.63 108.42C212.8 108.42 211.195 108.028 209.814 107.244C208.451 106.441 207.396 105.275 206.65 103.744C205.903 102.213 205.53 100.365 205.53 98.2C205.53 96.0347 205.903 94.1867 206.65 92.656C207.396 91.1253 208.451 89.968 209.814 89.184C211.195 88.3813 212.8 87.98 214.63 87.98C216.459 87.98 218.055 88.3813 219.418 89.184C220.799 89.968 221.863 91.1253 222.61 92.656C223.356 94.1867 223.73 96.0347 223.73 98.2C223.73 100.365 223.356 102.213 222.61 103.744C221.863 105.275 220.799 106.441 219.418 107.244C218.055 108.028 216.459 108.42 214.63 108.42ZM214.63 107.86C215.358 107.86 216.03 107.552 216.646 106.936C217.28 106.32 217.803 105.293 218.214 103.856C218.624 102.419 218.83 100.533 218.83 98.2C218.83 95.8667 218.624 93.9813 218.214 92.544C217.803 91.1067 217.28 90.08 216.646 89.464C216.03 88.848 215.358 88.54 214.63 88.54C213.902 88.54 213.22 88.848 212.586 89.464C211.97 90.08 211.456 91.1067 211.046 92.544C210.635 93.9813 210.43 95.8667 210.43 98.2C210.43 100.533 210.635 102.419 211.046 103.856C211.456 105.293 211.97 106.32 212.586 106.936C213.22 107.552 213.902 107.86 214.63 107.86ZM226.396 107.58L228.076 107.16V89.24L226.396 88.82V88.4H234.376V88.82L232.696 89.24V107.3H238.716C238.716 106.124 239.015 105.032 239.612 104.024C239.873 103.595 240.181 103.24 240.536 102.96H241.376V108H226.396V107.58ZM243.486 108V107.58L245.166 107.16V89.24L243.486 88.82V88.4H251.466V88.82L249.786 89.24V107.16L251.466 107.58V108H243.486ZM263.219 108.42C261.39 108.42 259.785 108.028 258.403 107.244C257.041 106.441 255.986 105.275 255.239 103.744C254.493 102.213 254.119 100.365 254.119 98.2C254.119 96.0347 254.493 94.1867 255.239 92.656C255.986 91.1253 257.041 89.968 258.403 89.184C259.785 88.3813 261.39 87.98 263.219 87.98C265.049 87.98 266.645 88.3813 268.007 89.184C269.389 89.968 270.453 91.1253 271.199 92.656C271.946 94.1867 272.319 96.0347 272.319 98.2C272.319 100.365 271.946 102.213 271.199 103.744C270.453 105.275 269.389 106.441 268.007 107.244C266.645 108.028 265.049 108.42 263.219 108.42ZM263.219 107.86C263.947 107.86 264.619 107.552 265.235 106.936C265.87 106.32 266.393 105.293 266.803 103.856C267.214 102.419 267.419 100.533 267.419 98.2C267.419 95.8667 267.214 93.9813 266.803 92.544C266.393 91.1067 265.87 90.08 265.235 89.464C264.619 88.848 263.947 88.54 263.219 88.54C262.491 88.54 261.81 88.848 261.175 89.464C260.559 90.08 260.046 91.1067 259.635 92.544C259.225 93.9813 259.019 95.8667 259.019 98.2C259.019 100.533 259.225 102.419 259.635 103.856C260.046 105.293 260.559 106.32 261.175 106.936C261.81 107.552 262.491 107.86 263.219 107.86Z" fill="url(#paint0_linear_5_12)"/>
<path d="M112.4 45.58L112.376 45.483L112.3 45.5019V45.58H112.4ZM114.08 45.16L114.104 45.257L114.18 45.2381V45.16H114.08ZM114.08 27.24H114.18V27.1619L114.104 27.143L114.08 27.24ZM112.4 26.82H112.3V26.8981L112.376 26.917L112.4 26.82ZM112.4 26.4V26.3H112.3V26.4H112.4ZM127.212 28.976L127.142 29.0478L127.143 29.0482L127.212 28.976ZM127.212 43.424L127.143 43.3518L127.142 43.3522L127.212 43.424ZM112.4 46H112.3V46.1H112.4V46ZM123.572 43.2L123.655 43.2562L123.655 43.2557L123.572 43.2ZM123.572 29.228L123.489 29.2837L123.489 29.2842L123.572 29.228ZM118.7 27.1V27H118.6V27.1H118.7ZM118.7 45.3H118.6V45.4H118.7V45.3ZM112.424 45.677L114.104 45.257L114.056 45.063L112.376 45.483L112.424 45.677ZM114.18 45.16V27.24H113.98V45.16H114.18ZM114.104 27.143L112.424 26.723L112.376 26.917L114.056 27.337L114.104 27.143ZM112.5 26.82V26.4H112.3V26.82H112.5ZM112.4 26.5H119.54V26.3H112.4V26.5ZM119.54 26.5C122.865 26.5 125.394 27.3542 127.142 29.0478L127.282 28.9042C125.484 27.1631 122.898 26.3 119.54 26.3V26.5ZM127.143 29.0482C128.91 30.7422 129.8 33.1214 129.8 36.2H130C130 33.0813 129.098 30.6445 127.281 28.9038L127.143 29.0482ZM129.8 36.2C129.8 39.2786 128.91 41.6578 127.143 43.3518L127.281 43.4962C129.098 41.7555 130 39.3187 130 36.2H129.8ZM127.142 43.3522C125.394 45.0458 122.865 45.9 119.54 45.9V46.1C122.898 46.1 125.484 45.2369 127.282 43.4958L127.142 43.3522ZM119.54 45.9H112.4V46.1H119.54V45.9ZM112.5 46V45.58H112.3V46H112.5ZM119.54 45.4C121.308 45.4 122.684 44.6844 123.655 43.2562L123.489 43.1438C122.556 44.5156 121.244 45.2 119.54 45.2V45.4ZM123.655 43.2557C124.624 41.8114 125.1 39.4527 125.1 36.2H124.9C124.9 39.4433 124.424 41.7513 123.489 43.1443L123.655 43.2557ZM125.1 36.2C125.1 32.9475 124.624 30.5977 123.655 29.1718L123.489 29.2842C124.424 30.6583 124.9 32.9565 124.9 36.2H125.1ZM123.655 29.1723C122.684 27.7254 121.309 27 119.54 27V27.2C121.243 27.2 122.556 27.8933 123.489 29.2837L123.655 29.1723ZM119.54 27H118.7V27.2H119.54V27ZM118.6 27.1V45.3H118.8V27.1H118.6ZM118.7 45.4H119.54V45.2H118.7V45.4ZM129.608 45.58L129.573 45.4864L129.508 45.5107V45.58H129.608ZM131.848 44.74L131.883 44.8336L131.924 44.8184L131.94 44.7782L131.848 44.74ZM139.548 26.12V26.02H139.481L139.456 26.0818L139.548 26.12ZM140.388 26.12L140.48 26.0813L140.454 26.02H140.388V26.12ZM148.368 45.16L148.276 45.1987L148.294 45.2422L148.339 45.2558L148.368 45.16ZM149.768 45.58H149.868V45.5056L149.797 45.4842L149.768 45.58ZM149.768 46V46.1H149.868V46H149.768ZM144.028 45.356L143.969 45.4369L143.971 45.438L144.028 45.356ZM142.656 43.62L142.748 43.5812L142.748 43.5809L142.656 43.62ZM141.228 40.26L141.32 40.2209L141.294 40.16H141.228V40.26ZM134.536 40.26V40.16H134.469L134.444 40.2219L134.536 40.26ZM132.688 44.74L132.596 44.7019L132.557 44.7953L132.651 44.8328L132.688 44.74ZM134.788 45.58H134.888V45.5123L134.825 45.4872L134.788 45.58ZM134.788 46V46.1H134.888V46H134.788ZM129.608 46H129.508V46.1H129.608V46ZM134.816 39.56L134.724 39.5217L134.666 39.66H134.816V39.56ZM140.948 39.56V39.66H141.098L141.04 39.5214L140.948 39.56ZM137.868 32.196L137.96 32.1574L137.868 31.9358L137.776 32.1577L137.868 32.196ZM139.184 25L139.087 24.9742L139.054 25.1H139.184V25ZM140.304 20.8V20.7H140.227L140.207 20.7742L140.304 20.8ZM143.944 20.8L144.018 20.8669L144.169 20.7H143.944V20.8ZM140.164 25V25.1H140.209L140.238 25.0669L140.164 25ZM129.643 45.6736L131.883 44.8336L131.813 44.6464L129.573 45.4864L129.643 45.6736ZM131.94 44.7782L139.64 26.1582L139.456 26.0818L131.756 44.7018L131.94 44.7782ZM139.548 26.22H140.388V26.02H139.548V26.22ZM140.296 26.1587L148.276 45.1987L148.46 45.1213L140.48 26.0813L140.296 26.1587ZM148.339 45.2558L149.739 45.6758L149.797 45.4842L148.397 45.0642L148.339 45.2558ZM149.668 45.58V46H149.868V45.58H149.668ZM149.768 45.9H146.408V46.1H149.768V45.9ZM146.408 45.9C145.452 45.9 144.68 45.6886 144.085 45.274L143.971 45.438C144.608 45.8821 145.423 46.1 146.408 46.1V45.9ZM144.087 45.2751C143.486 44.838 143.04 44.2739 142.748 43.5812L142.564 43.6588C142.869 44.3848 143.338 44.978 143.969 45.4369L144.087 45.2751ZM142.748 43.5809L141.32 40.2209L141.136 40.2991L142.564 43.6591L142.748 43.5809ZM141.228 40.16H134.536V40.36H141.228V40.16ZM134.444 40.2219L132.596 44.7019L132.78 44.7781L134.628 40.2981L134.444 40.2219ZM132.651 44.8328L134.751 45.6728L134.825 45.4872L132.725 44.6472L132.651 44.8328ZM134.688 45.58V46H134.888V45.58H134.688ZM134.788 45.9H129.608V46.1H134.788V45.9ZM129.708 46V45.58H129.508V46H129.708ZM134.816 39.66H140.948V39.46H134.816V39.66ZM141.04 39.5214L137.96 32.1574L137.776 32.2346L140.856 39.5986L141.04 39.5214ZM137.776 32.1577L134.724 39.5217L134.908 39.5983L137.96 32.2343L137.776 32.1577ZM139.281 25.0258L140.401 20.8258L140.207 20.7742L139.087 24.9742L139.281 25.0258ZM140.304 20.9H143.944V20.7H140.304V20.9ZM143.87 20.7331L140.09 24.9331L140.238 25.0669L144.018 20.8669L143.87 20.7331ZM140.164 24.9H139.184V25.1H140.164V24.9ZM148.207 27.24L148.299 27.1996L148.28 27.1575L148.236 27.1442L148.207 27.24ZM146.807 26.82H146.707V26.8944L146.778 26.9158L146.807 26.82ZM146.807 26.4V26.3H146.707V26.4H146.807ZM152.547 27.072L152.488 27.1529L152.49 27.154L152.547 27.072ZM153.947 28.78L154.039 28.7398L154.038 28.7392L153.947 28.78ZM158.903 40.064L158.812 40.1042L158.911 40.3313L158.997 40.0985L158.903 40.064ZM163.467 27.66L163.561 27.6945L163.595 27.6033L163.504 27.5672L163.467 27.66ZM161.367 26.82H161.267V26.8877L161.33 26.9128L161.367 26.82ZM161.367 26.4V26.3H161.267V26.4H161.367ZM166.547 26.4H166.647V26.3H166.547V26.4ZM166.547 26.82L166.582 26.9136L166.647 26.8893V26.82H166.547ZM164.307 27.66L164.272 27.5664L164.229 27.5824L164.213 27.6254L164.307 27.66ZM157.447 46.28V46.38H157.517L157.541 46.3146L157.447 46.28ZM156.607 46.28L156.516 46.3204L156.542 46.38H156.607V46.28ZM148.236 27.1442L146.836 26.7242L146.778 26.9158L148.178 27.3358L148.236 27.1442ZM146.907 26.82V26.4H146.707V26.82H146.907ZM146.807 26.5H150.167V26.3H146.807V26.5ZM150.167 26.5C151.123 26.5 151.894 26.7203 152.488 27.1529L152.606 26.9911C151.969 26.5277 151.153 26.3 150.167 26.3V26.5ZM152.49 27.154C153.091 27.5726 153.546 28.1275 153.856 28.8208L154.038 28.7392C153.714 28.0139 153.236 27.43 152.604 26.99L152.49 27.154ZM153.856 28.8202L158.812 40.1042L158.995 40.0238L154.039 28.7398L153.856 28.8202ZM158.997 40.0985L163.561 27.6945L163.373 27.6255L158.809 40.0295L158.997 40.0985ZM163.504 27.5672L161.404 26.7272L161.33 26.9128L163.43 27.7528L163.504 27.5672ZM161.467 26.82V26.4H161.267V26.82H161.467ZM161.367 26.5H166.547V26.3H161.367V26.5ZM166.447 26.4V26.82H166.647V26.4H166.447ZM166.512 26.7264L164.272 27.5664L164.342 27.7536L166.582 26.9136L166.512 26.7264ZM164.213 27.6254L157.353 46.2454L157.541 46.3146L164.401 27.6946L164.213 27.6254ZM157.447 46.18H156.607V46.38H157.447V46.18ZM156.699 46.2396L148.299 27.1996L148.116 27.2804L156.516 46.3204L156.699 46.2396ZM167.388 46H167.288V46.1H167.388V46ZM167.388 45.58L167.364 45.483L167.288 45.5019V45.58H167.388ZM169.068 45.16L169.093 45.257L169.168 45.2381V45.16H169.068ZM169.068 27.24H169.168V27.1619L169.093 27.143L169.068 27.24ZM167.388 26.82H167.288V26.8981L167.364 26.917L167.388 26.82ZM167.388 26.4V26.3H167.288V26.4H167.388ZM175.368 26.4H175.468V26.3H175.368V26.4ZM175.368 26.82L175.393 26.917L175.468 26.8981V26.82H175.368ZM173.688 27.24L173.664 27.143L173.588 27.1619V27.24H173.688ZM173.688 45.16H173.588V45.2381L173.664 45.257L173.688 45.16ZM175.368 45.58H175.468V45.5019L175.393 45.483L175.368 45.58ZM175.368 46V46.1H175.468V46H175.368ZM167.488 46V45.58H167.288V46H167.488ZM167.413 45.677L169.093 45.257L169.044 45.063L167.364 45.483L167.413 45.677ZM169.168 45.16V27.24H168.968V45.16H169.168ZM169.093 27.143L167.413 26.723L167.364 26.917L169.044 27.337L169.093 27.143ZM167.488 26.82V26.4H167.288V26.82H167.488ZM167.388 26.5H175.368V26.3H167.388V26.5ZM175.268 26.4V26.82H175.468V26.4H175.268ZM175.344 26.723L173.664 27.143L173.713 27.337L175.393 26.917L175.344 26.723ZM173.588 27.24V45.16H173.788V27.24H173.588ZM173.664 45.257L175.344 45.677L175.393 45.483L173.713 45.063L173.664 45.257ZM175.268 45.58V46H175.468V45.58H175.268ZM175.368 45.9H167.388V46.1H175.368V45.9ZM177.888 45.58L177.864 45.483L177.788 45.5019V45.58H177.888ZM179.568 45.16L179.593 45.257L179.668 45.2381V45.16H179.568ZM179.568 27.24H179.668V27.1619L179.593 27.143L179.568 27.24ZM177.888 26.82H177.788V26.8981L177.864 26.917L177.888 26.82ZM177.888 26.4V26.3H177.788V26.4H177.888ZM192.7 28.976L192.631 29.0478L192.631 29.0482L192.7 28.976ZM192.7 43.424L192.631 43.3518L192.631 43.3522L192.7 43.424ZM177.888 46H177.788V46.1H177.888V46ZM189.06 43.2L189.143 43.2562L189.143 43.2557L189.06 43.2ZM189.06 29.228L188.977 29.2837L188.978 29.2842L189.06 29.228ZM184.188 27.1V27H184.088V27.1H184.188ZM184.188 45.3H184.088V45.4H184.188V45.3ZM177.913 45.677L179.593 45.257L179.544 45.063L177.864 45.483L177.913 45.677ZM179.668 45.16V27.24H179.468V45.16H179.668ZM179.593 27.143L177.913 26.723L177.864 26.917L179.544 27.337L179.593 27.143ZM177.988 26.82V26.4H177.788V26.82H177.988ZM177.888 26.5H185.028V26.3H177.888V26.5ZM185.028 26.5C188.353 26.5 190.882 27.3542 192.631 29.0478L192.77 28.9042C190.972 27.1631 188.386 26.3 185.028 26.3V26.5ZM192.631 29.0482C194.399 30.7422 195.288 33.1214 195.288 36.2H195.488C195.488 33.0813 194.586 30.6445 192.769 28.9038L192.631 29.0482ZM195.288 36.2C195.288 39.2786 194.399 41.6578 192.631 43.3518L192.769 43.4962C194.586 41.7555 195.488 39.3187 195.488 36.2H195.288ZM192.631 43.3522C190.882 45.0458 188.353 45.9 185.028 45.9V46.1C188.386 46.1 190.972 45.2369 192.77 43.4958L192.631 43.3522ZM185.028 45.9H177.888V46.1H185.028V45.9ZM177.988 46V45.58H177.788V46H177.988ZM185.028 45.4C186.796 45.4 188.172 44.6844 189.143 43.2562L188.978 43.1438C188.045 44.5156 186.732 45.2 185.028 45.2V45.4ZM189.143 43.2557C190.113 41.8114 190.588 39.4527 190.588 36.2H190.388C190.388 39.4433 189.912 41.7513 188.977 43.1443L189.143 43.2557ZM190.588 36.2C190.588 32.9475 190.113 30.5977 189.143 29.1718L188.978 29.2842C189.912 30.6583 190.388 32.9565 190.388 36.2H190.588ZM189.143 29.1723C188.172 27.7254 186.797 27 185.028 27V27.2C186.732 27.2 188.044 27.8933 188.977 29.2837L189.143 29.1723ZM185.028 27H184.188V27.2H185.028V27ZM184.088 27.1V45.3H184.288V27.1H184.088ZM184.188 45.4H185.028V45.2H184.188V45.4ZM112.4 77H112.3V77.1H112.4V77ZM112.4 76.58L112.376 76.483L112.3 76.5019V76.58H112.4ZM114.08 76.16L114.104 76.257L114.18 76.2381V76.16H114.08ZM114.08 58.24H114.18V58.1619L114.104 58.143L114.08 58.24ZM112.4 57.82H112.3V57.8981L112.376 57.917L112.4 57.82ZM112.4 57.4V57.3H112.3V57.4H112.4ZM120.38 57.4H120.48V57.3H120.38V57.4ZM120.38 57.82L120.404 57.917L120.48 57.8981V57.82H120.38ZM118.7 58.24L118.676 58.143L118.6 58.1619V58.24H118.7ZM118.7 76.16H118.6V76.2381L118.676 76.257L118.7 76.16ZM120.38 76.58H120.48V76.5019L120.404 76.483L120.38 76.58ZM120.38 77V77.1H120.48V77H120.38ZM112.5 77V76.58H112.3V77H112.5ZM112.424 76.677L114.104 76.257L114.056 76.063L112.376 76.483L112.424 76.677ZM114.18 76.16V58.24H113.98V76.16H114.18ZM114.104 58.143L112.424 57.723L112.376 57.917L114.056 58.337L114.104 58.143ZM112.5 57.82V57.4H112.3V57.82H112.5ZM112.4 57.5H120.38V57.3H112.4V57.5ZM120.28 57.4V57.82H120.48V57.4H120.28ZM120.356 57.723L118.676 58.143L118.724 58.337L120.404 57.917L120.356 57.723ZM118.6 58.24V76.16H118.8V58.24H118.6ZM118.676 76.257L120.356 76.677L120.404 76.483L118.724 76.063L118.676 76.257ZM120.28 76.58V77H120.48V76.58H120.28ZM120.38 76.9H112.4V77.1H120.38V76.9ZM125.42 62.16L125.496 62.0951L125.32 61.8887V62.16H125.42ZM125.42 75.74H125.32V75.8093L125.385 75.8336L125.42 75.74ZM127.66 76.58H127.76V76.5107L127.695 76.4864L127.66 76.58ZM127.66 77V77.1H127.76V77H127.66ZM122.34 77H122.24V77.1H122.34V77ZM122.34 76.58L122.305 76.4864L122.24 76.5107V76.58H122.34ZM124.58 75.74L124.615 75.8336L124.68 75.8093V75.74H124.58ZM124.58 58.38H124.68V58.3046L124.607 58.2838L124.58 58.38ZM122.62 57.82H122.52V57.8954L122.593 57.9162L122.62 57.82ZM122.62 57.4V57.3H122.52V57.4H122.62ZM129.48 59.36L129.404 59.4245L129.404 59.4249L129.48 59.36ZM138.44 69.86L138.364 69.9249L138.54 70.1312V69.86H138.44ZM138.44 58.66H138.54V58.5907L138.475 58.5664L138.44 58.66ZM136.2 57.82H136.1V57.8893L136.165 57.9136L136.2 57.82ZM136.2 57.4V57.3H136.1V57.4H136.2ZM141.52 57.4H141.62V57.3H141.52V57.4ZM141.52 57.82L141.555 57.9136L141.62 57.8893V57.82H141.52ZM139.28 58.66L139.245 58.5664L139.18 58.5907V58.66H139.28ZM139.28 77.42V77.52H139.38V77.42H139.28ZM138.44 77.42L138.364 77.4849L138.394 77.52H138.44V77.42ZM125.32 62.16V75.74H125.52V62.16H125.32ZM125.385 75.8336L127.625 76.6736L127.695 76.4864L125.455 75.6464L125.385 75.8336ZM127.56 76.58V77H127.76V76.58H127.56ZM127.66 76.9H122.34V77.1H127.66V76.9ZM122.44 77V76.58H122.24V77H122.44ZM122.375 76.6736L124.615 75.8336L124.545 75.6464L122.305 76.4864L122.375 76.6736ZM124.68 75.74V58.38H124.48V75.74H124.68ZM124.607 58.2838L122.647 57.7238L122.593 57.9162L124.553 58.4762L124.607 58.2838ZM122.72 57.82V57.4H122.52V57.82H122.72ZM122.62 57.5H125.56V57.3H122.62V57.5ZM125.56 57.5C126.539 57.5 127.293 57.6758 127.83 58.0165L127.938 57.8475C127.355 57.4789 126.56 57.3 125.56 57.3V57.5ZM127.83 58.0165C128.38 58.3648 128.905 58.8336 129.404 59.4245L129.556 59.2955C129.047 58.6917 128.508 58.2085 127.938 57.8475L127.83 58.0165ZM129.404 59.4249L138.364 69.9249L138.516 69.7951L129.556 59.2951L129.404 59.4249ZM138.54 69.86V58.66H138.34V69.86H138.54ZM138.475 58.5664L136.235 57.7264L136.165 57.9136L138.405 58.7536L138.475 58.5664ZM136.3 57.82V57.4H136.1V57.82H136.3ZM136.2 57.5H141.52V57.3H136.2V57.5ZM141.42 57.4V57.82H141.62V57.4H141.42ZM141.485 57.7264L139.245 58.5664L139.315 58.7536L141.555 57.9136L141.485 57.7264ZM139.18 58.66V77.42H139.38V58.66H139.18ZM139.28 77.32H138.44V77.52H139.28V77.32ZM138.516 77.3551L125.496 62.0951L125.344 62.2249L138.364 77.4849L138.516 77.3551ZM147.407 76.216L147.351 76.299L147.351 76.299L147.407 76.216ZM144.551 72.716L144.46 72.7576L144.46 72.758L144.551 72.716ZM144.579 61.684L144.488 61.6406L144.488 61.641L144.579 61.684ZM147.687 58.184L147.737 58.2701L147.738 58.2699L147.687 58.184ZM155.555 57.904L155.505 57.9909L155.507 57.9918L155.555 57.904ZM156.787 58.8L156.719 58.874L156.806 58.9529L156.87 58.8547L156.787 58.8ZM157.767 57.652L157.708 57.5707L157.703 57.5752L157.767 57.652ZM158.327 57.26V57.16H158.303L158.282 57.1706L158.327 57.26ZM159.027 57.26H159.127V57.16H159.027V57.26ZM159.027 62.58V62.68H159.127V62.58H159.027ZM157.907 62.58L157.81 62.6061L157.83 62.68H157.907V62.58ZM156.815 60.144L156.73 60.1974L156.731 60.1995L156.815 60.144ZM155.135 58.38L155.076 58.4614L155.078 58.4621L155.135 58.38ZM149.647 59.92L149.56 59.8702L149.559 59.871L149.647 59.92ZM149.507 74.34L149.418 74.3871L149.419 74.388L149.507 74.34ZM154.323 75.32L154.403 75.38L154.403 75.3791L154.323 75.32ZM154.967 74.2L155.057 74.2433L155.067 74.2228V74.2H154.967ZM154.967 67.76H155.067V67.6819L154.991 67.663L154.967 67.76ZM153.287 67.34H153.187V67.4181L153.262 67.437L153.287 67.34ZM153.287 66.92V66.82H153.187V66.92H153.287ZM161.267 66.92H161.367V66.82H161.267V66.92ZM161.267 67.34L161.291 67.437L161.367 67.4181V67.34H161.267ZM159.587 67.76L159.562 67.663L159.487 67.6819V67.76H159.587ZM159.587 77.14V77.24H159.687V77.14H159.587ZM156.059 76.02L155.986 76.0887L155.986 76.0889L156.059 76.02ZM155.387 74.9L155.482 74.8697L155.412 74.65L155.299 74.8511L155.387 74.9ZM154.463 76.16L154.533 76.2307L154.535 76.2289L154.463 76.16ZM151.327 77.32C149.928 77.32 148.641 76.9248 147.462 76.133L147.351 76.299C148.562 77.1126 149.888 77.52 151.327 77.52V77.32ZM147.462 76.133C146.285 75.3422 145.344 74.1909 144.641 72.674L144.46 72.758C145.176 74.3024 146.139 75.4845 147.351 76.299L147.462 76.133ZM144.641 72.6744C143.939 71.1409 143.587 69.3171 143.587 67.2H143.387C143.387 69.3389 143.743 71.1924 144.46 72.7576L144.641 72.6744ZM143.587 67.2C143.587 65.0644 143.949 63.2411 144.669 61.7269L144.488 61.641C143.752 63.1882 143.387 65.0423 143.387 67.2H143.587ZM144.669 61.7274C145.408 60.1937 146.431 59.0429 147.737 58.2701L147.636 58.0979C146.291 58.8931 145.243 60.0756 144.488 61.6406L144.669 61.7274ZM147.738 58.2699C149.065 57.4775 150.596 57.08 152.335 57.08V56.88C150.564 56.88 148.997 57.2851 147.635 58.0981L147.738 58.2699ZM152.335 57.08C153.378 57.08 154.435 57.382 155.505 57.9909L155.604 57.8171C154.509 57.194 153.419 56.88 152.335 56.88V57.08ZM155.507 57.9918C155.909 58.2113 156.313 58.5051 156.719 58.874L156.854 58.726C156.438 58.3483 156.021 58.0446 155.602 57.8162L155.507 57.9918ZM156.87 58.8547C157.184 58.3752 157.504 58.0008 157.831 57.7288L157.703 57.5752C157.357 57.8632 157.024 58.2542 156.703 58.7453L156.87 58.8547ZM157.825 57.7331C157.993 57.6118 158.123 57.5188 158.216 57.4539C158.262 57.4214 158.299 57.3963 158.326 57.3782C158.34 57.3692 158.35 57.3622 158.359 57.357C158.363 57.3545 158.366 57.3526 158.368 57.3512C158.371 57.3497 158.372 57.3493 158.371 57.3494L158.282 57.1706C158.266 57.1785 158.242 57.1939 158.215 57.2118C158.186 57.2311 158.148 57.2572 158.101 57.2901C158.007 57.3558 157.876 57.4495 157.708 57.5709L157.825 57.7331ZM158.327 57.36H159.027V57.16H158.327V57.36ZM158.927 57.26V62.58H159.127V57.26H158.927ZM159.027 62.48H157.907V62.68H159.027V62.48ZM158.003 62.5539C157.758 61.6481 157.389 60.8261 156.898 60.0885L156.731 60.1995C157.21 60.9179 157.57 61.7199 157.81 62.6061L158.003 62.5539ZM156.899 60.0906C156.444 59.3702 155.875 58.7724 155.192 58.2979L155.078 58.4621C155.738 58.921 156.289 59.4991 156.73 60.1974L156.899 60.0906ZM155.193 58.2986C154.521 57.819 153.745 57.58 152.867 57.58V57.78C153.706 57.78 154.441 58.0077 155.076 58.4614L155.193 58.2986ZM152.867 57.58C151.531 57.58 150.43 58.3577 149.56 59.8702L149.733 59.9698C150.581 58.4956 151.626 57.78 152.867 57.78V57.58ZM149.559 59.871C148.706 61.3878 148.287 63.8364 148.287 67.2H148.487C148.487 63.8436 148.907 61.4389 149.734 59.969L149.559 59.871ZM148.287 67.2C148.287 70.562 148.659 72.9637 149.418 74.3871L149.595 74.2929C148.861 72.9163 148.487 70.558 148.487 67.2H148.287ZM149.419 74.388C150.195 75.8077 151.203 76.54 152.447 76.54V76.34C151.301 76.34 150.349 75.6723 149.594 74.292L149.419 74.388ZM152.447 76.54C153.179 76.54 153.831 76.1423 154.403 75.38L154.243 75.26C153.694 75.991 153.095 76.34 152.447 76.34V76.54ZM154.403 75.3791C154.613 75.0924 154.831 74.7131 155.057 74.2433L154.876 74.1567C154.654 74.6202 154.442 74.9876 154.242 75.2609L154.403 75.3791ZM155.067 74.2V67.76H154.867V74.2H155.067ZM154.991 67.663L153.311 67.243L153.262 67.437L154.942 67.857L154.991 67.663ZM153.387 67.34V66.92H153.187V67.34H153.387ZM153.287 67.02H161.267V66.82H153.287V67.02ZM161.167 66.92V67.34H161.367V66.92H161.167ZM161.242 67.243L159.562 67.663L159.611 67.857L161.291 67.437L161.242 67.243ZM159.487 67.76V77.14H159.687V67.76H159.487ZM159.587 77.04H159.167V77.24H159.587V77.04ZM159.167 77.04C157.822 77.04 156.816 76.6721 156.131 75.9511L155.986 76.0889C156.72 76.8612 157.786 77.24 159.167 77.24V77.04ZM156.131 75.9513C155.823 75.6255 155.608 75.265 155.482 74.8697L155.291 74.9303C155.427 75.3563 155.659 75.7425 155.986 76.0887L156.131 75.9513ZM155.299 74.8511C155.042 75.3108 154.739 75.7241 154.39 76.0911L154.535 76.2289C154.896 75.8493 155.209 75.4225 155.474 74.9489L155.299 74.8511ZM154.392 76.0893C153.572 76.9095 152.552 77.32 151.327 77.32V77.52C152.602 77.52 153.673 77.0905 154.533 76.2307L154.392 76.0893ZM163.232 76.58L163.208 76.483L163.132 76.5019V76.58H163.232ZM164.912 76.16L164.936 76.257L165.012 76.2381V76.16H164.912ZM164.912 58.24H165.012V58.1619L164.936 58.143L164.912 58.24ZM163.232 57.82H163.132V57.8981L163.208 57.917L163.232 57.82ZM163.232 57.4V57.3H163.132V57.4H163.232ZM171.212 57.4H171.312V57.3H171.212V57.4ZM171.212 57.82L171.236 57.917L171.312 57.8981V57.82H171.212ZM169.532 58.24L169.508 58.143L169.432 58.1619V58.24H169.532ZM169.532 76.3H169.432V76.4H169.532V76.3ZM175.552 76.3V76.4H175.652V76.3H175.552ZM176.448 73.024L176.363 72.972L176.362 72.973L176.448 73.024ZM177.372 71.96V71.86H177.337L177.31 71.8815L177.372 71.96ZM178.212 71.96H178.312V71.86H178.212V71.96ZM178.212 77V77.1H178.312V77H178.212ZM163.232 77H163.132V77.1H163.232V77ZM163.256 76.677L164.936 76.257L164.888 76.063L163.208 76.483L163.256 76.677ZM165.012 76.16V58.24H164.812V76.16H165.012ZM164.936 58.143L163.256 57.723L163.208 57.917L164.888 58.337L164.936 58.143ZM163.332 57.82V57.4H163.132V57.82H163.332ZM163.232 57.5H171.212V57.3H163.232V57.5ZM171.112 57.4V57.82H171.312V57.4H171.112ZM171.188 57.723L169.508 58.143L169.556 58.337L171.236 57.917L171.188 57.723ZM169.432 58.24V76.3H169.632V58.24H169.432ZM169.532 76.4H175.552V76.2H169.532V76.4ZM175.652 76.3C175.652 75.1419 175.946 74.0675 176.534 73.075L176.362 72.973C175.755 73.9965 175.452 75.1061 175.452 76.3H175.652ZM176.533 73.076C176.789 72.6557 177.09 72.3103 177.434 72.0385L177.31 71.8815C176.945 72.1697 176.629 72.5337 176.363 72.972L176.533 73.076ZM177.372 72.06H178.212V71.86H177.372V72.06ZM178.112 71.96V77H178.312V71.96H178.112ZM178.212 76.9H163.232V77.1H178.212V76.9ZM163.332 77V76.58H163.132V77H163.332ZM183.919 76.244L183.868 76.3302L183.87 76.331L183.919 76.244ZM180.755 72.744L180.845 72.7002L180.845 72.7002L180.755 72.744ZM180.755 61.656L180.665 61.6122L180.755 61.656ZM183.919 58.184L183.969 58.2707L183.969 58.2705L183.919 58.184ZM193.523 58.184L193.472 58.2702L193.474 58.271L193.523 58.184ZM196.715 61.656L196.805 61.6122L196.715 61.656ZM196.715 72.744L196.625 72.7002L196.625 72.7002L196.715 72.744ZM193.523 76.244L193.573 76.3307L193.573 76.3305L193.523 76.244ZM190.751 75.936L190.681 75.8642L190.68 75.8653L190.751 75.936ZM192.319 72.856L192.415 72.8835L192.415 72.8835L192.319 72.856ZM192.319 61.544L192.415 61.5165L192.415 61.5165L192.319 61.544ZM190.751 58.464L190.68 58.5347L190.681 58.5358L190.751 58.464ZM186.691 58.464L186.621 58.3922L186.62 58.3933L186.691 58.464ZM185.151 61.544L185.055 61.5165L185.055 61.5165L185.151 61.544ZM185.151 72.856L185.247 72.8285L185.247 72.8285L185.151 72.856ZM186.691 75.936L186.62 76.0067L186.621 76.0078L186.691 75.936ZM188.735 77.32C186.92 77.32 185.332 76.9313 183.968 76.157L183.87 76.331C185.268 77.1247 186.891 77.52 188.735 77.52V77.32ZM183.97 76.1578C182.625 75.3659 181.584 74.2146 180.845 72.7002L180.665 72.7878C181.42 74.3347 182.487 75.5168 183.868 76.3302L183.97 76.1578ZM180.845 72.7002C180.106 71.1863 179.735 69.3541 179.735 67.2H179.535C179.535 69.3765 179.91 71.2403 180.665 72.7878L180.845 72.7002ZM179.735 67.2C179.735 65.0459 180.106 63.2137 180.845 61.6998L180.665 61.6122C179.91 63.1597 179.535 65.0235 179.535 67.2H179.735ZM180.845 61.6998C181.584 60.1856 182.625 59.0439 183.969 58.2707L183.869 58.0973C182.488 58.8921 181.42 60.0651 180.665 61.6122L180.845 61.6998ZM183.969 58.2705C185.333 57.4779 186.921 57.08 188.735 57.08V56.88C186.891 56.88 185.267 57.2848 183.869 58.0975L183.969 58.2705ZM188.735 57.08C190.549 57.08 192.127 57.4779 193.472 58.2702L193.574 58.0978C192.193 57.2848 190.579 56.88 188.735 56.88V57.08ZM193.474 58.271C194.836 59.0443 195.887 60.1859 196.625 61.6998L196.805 61.6122C196.05 60.0647 194.973 58.8917 193.572 58.097L193.474 58.271ZM196.625 61.6998C197.364 63.2137 197.735 65.0459 197.735 67.2H197.935C197.935 65.0235 197.56 63.1597 196.805 61.6122L196.625 61.6998ZM197.735 67.2C197.735 69.3541 197.364 71.1863 196.625 72.7002L196.805 72.7878C197.56 71.2403 197.935 69.3765 197.935 67.2H197.735ZM196.625 72.7002C195.887 74.2142 194.836 75.3655 193.473 76.1575L193.573 76.3305C194.973 75.5172 196.05 74.3351 196.805 72.7878L196.625 72.7002ZM193.473 76.1573C192.128 76.9313 190.55 77.32 188.735 77.32V77.52C190.579 77.52 192.193 77.1247 193.573 76.3307L193.473 76.1573ZM188.735 76.96C189.495 76.96 190.191 76.6375 190.822 76.0067L190.68 75.8653C190.079 76.4665 189.431 76.76 188.735 76.76V76.96ZM190.821 76.0078C191.474 75.3738 192.003 74.3274 192.415 72.8835L192.223 72.8285C191.814 74.2593 191.298 75.2662 190.681 75.8642L190.821 76.0078ZM192.415 72.8835C192.829 71.4337 193.035 69.538 193.035 67.2H192.835C192.835 69.5286 192.63 71.4037 192.223 72.8285L192.415 72.8835ZM193.035 67.2C193.035 64.862 192.829 62.9663 192.415 61.5165L192.223 61.5715C192.63 62.9963 192.835 64.8714 192.835 67.2H193.035ZM192.415 61.5165C192.003 60.0726 191.474 59.0262 190.821 58.3922L190.681 58.5358C191.298 59.1338 191.814 60.1407 192.223 61.5715L192.415 61.5165ZM190.822 58.3933C190.191 57.7625 189.495 57.44 188.735 57.44V57.64C189.431 57.64 190.079 57.9335 190.68 58.5347L190.822 58.3933ZM188.735 57.44C187.976 57.44 187.27 57.7623 186.621 58.3922L186.761 58.5358C187.381 57.9337 188.038 57.64 188.735 57.64V57.44ZM186.62 58.3933C185.987 59.0271 185.467 60.0731 185.055 61.5165L185.247 61.5715C185.656 60.1403 186.163 59.1329 186.762 58.5347L186.62 58.3933ZM185.055 61.5165C184.641 62.9663 184.435 64.862 184.435 67.2H184.635C184.635 64.8714 184.84 62.9963 185.247 61.5715L185.055 61.5165ZM184.435 67.2C184.435 69.538 184.641 71.4337 185.055 72.8835L185.247 72.8285C184.84 71.4037 184.635 69.5286 184.635 67.2H184.435ZM185.055 72.8835C185.467 74.3269 185.987 75.3729 186.62 76.0067L186.762 75.8653C186.163 75.2671 185.656 74.2597 185.247 72.8285L185.055 72.8835ZM186.621 76.0078C187.27 76.6377 187.976 76.96 188.735 76.96V76.76C188.038 76.76 187.381 76.4663 186.761 75.8642L186.621 76.0078ZM200.502 76.58L200.477 76.483L200.402 76.5019V76.58H200.502ZM202.182 76.16L202.206 76.257L202.282 76.2381V76.16H202.182ZM202.182 58.24H202.282V58.1619L202.206 58.143L202.182 58.24ZM200.502 57.82H200.402V57.8981L200.477 57.917L200.502 57.82ZM200.502 57.4V57.3H200.402V57.4H200.502ZM215.314 59.976L215.244 60.0478L215.244 60.0482L215.314 59.976ZM215.314 74.424L215.244 74.3518L215.244 74.3522L215.314 74.424ZM200.502 77H200.402V77.1H200.502V77ZM211.674 74.2L211.756 74.2562L211.757 74.2557L211.674 74.2ZM211.674 60.228L211.591 60.2837L211.591 60.2842L211.674 60.228ZM206.802 58.1V58H206.702V58.1H206.802ZM206.802 76.3H206.702V76.4H206.802V76.3ZM200.526 76.677L202.206 76.257L202.157 76.063L200.477 76.483L200.526 76.677ZM202.282 76.16V58.24H202.082V76.16H202.282ZM202.206 58.143L200.526 57.723L200.477 57.917L202.157 58.337L202.206 58.143ZM200.602 57.82V57.4H200.402V57.82H200.602ZM200.502 57.5H207.642V57.3H200.502V57.5ZM207.642 57.5C210.966 57.5 213.495 58.3542 215.244 60.0478L215.383 59.9042C213.585 58.1631 210.999 57.3 207.642 57.3V57.5ZM215.244 60.0482C217.012 61.7422 217.902 64.1214 217.902 67.2H218.102C218.102 64.0813 217.199 61.6445 215.383 59.9038L215.244 60.0482ZM217.902 67.2C217.902 70.2786 217.012 72.6578 215.244 74.3518L215.383 74.4962C217.199 72.7555 218.102 70.3187 218.102 67.2H217.902ZM215.244 74.3522C213.495 76.0458 210.966 76.9 207.642 76.9V77.1C210.999 77.1 213.585 76.2369 215.383 74.4958L215.244 74.3522ZM207.642 76.9H200.502V77.1H207.642V76.9ZM200.602 77V76.58H200.402V77H200.602ZM207.642 76.4C209.41 76.4 210.785 75.6844 211.756 74.2562L211.591 74.1438C210.658 75.5156 209.345 76.2 207.642 76.2V76.4ZM211.757 74.2557C212.726 72.8114 213.202 70.4527 213.202 67.2H213.002C213.002 70.4433 212.525 72.7513 211.591 74.1443L211.757 74.2557ZM213.202 67.2C213.202 63.9475 212.726 61.5977 211.756 60.1718L211.591 60.2842C212.525 61.6583 213.002 63.9565 213.002 67.2H213.202ZM211.757 60.1723C210.786 58.7254 209.41 58 207.642 58V58.2C209.345 58.2 210.657 58.8933 211.591 60.2837L211.757 60.1723ZM207.642 58H206.802V58.2H207.642V58ZM206.702 58.1V76.3H206.902V58.1H206.702ZM206.802 76.4H207.642V76.2H206.802V76.4ZM223.73 76.58L223.705 76.483L223.63 76.5019V76.58H223.73ZM225.41 76.16L225.434 76.257L225.51 76.2381V76.16H225.41ZM225.41 69.72H225.51V69.6964L225.499 69.6753L225.41 69.72ZM219.67 58.24L219.759 58.1953L219.74 58.1566L219.698 58.1442L219.67 58.24ZM218.27 57.82H218.17V57.8944L218.241 57.9158L218.27 57.82ZM218.27 57.4V57.3H218.17V57.4H218.27ZM224.094 58.016L224.036 58.0976L224.037 58.0984L224.094 58.016ZM225.55 59.78L225.46 59.8238L225.46 59.8248L225.55 59.78ZM229.694 68.04L229.604 68.0848L229.698 68.272L229.785 68.0813L229.694 68.04ZM233.95 58.66L234.041 58.7013L234.084 58.606L233.987 58.5672L233.95 58.66ZM231.85 57.82H231.75V57.8877L231.812 57.9128L231.85 57.82ZM231.85 57.4V57.3H231.75V57.4H231.85ZM237.17 57.4H237.27V57.3H237.17V57.4ZM237.17 57.82L237.205 57.9136L237.27 57.8893V57.82H237.17ZM234.93 58.66L234.894 58.5664L234.856 58.5809L234.838 58.6186L234.93 58.66ZM230.03 69.44L229.938 69.3986L229.93 69.4183V69.44H230.03ZM230.03 76.16H229.93V76.2381L230.005 76.257L230.03 76.16ZM231.71 76.58H231.81V76.5019L231.734 76.483L231.71 76.58ZM231.71 77V77.1H231.81V77H231.71ZM223.73 77H223.63V77.1H223.73V77ZM223.754 76.677L225.434 76.257L225.385 76.063L223.705 76.483L223.754 76.677ZM225.51 76.16V69.72H225.31V76.16H225.51ZM225.499 69.6753L219.759 58.1953L219.58 58.2847L225.32 69.7647L225.499 69.6753ZM219.698 58.1442L218.298 57.7242L218.241 57.9158L219.641 58.3358L219.698 58.1442ZM218.37 57.82V57.4H218.17V57.82H218.37ZM218.27 57.5H221.77V57.3H218.27V57.5ZM221.77 57.5C222.727 57.5 223.479 57.7026 224.036 58.0975L224.151 57.9344C223.551 57.5081 222.753 57.3 221.77 57.3V57.5ZM224.037 58.0984C224.618 58.4977 225.093 59.0713 225.46 59.8238L225.639 59.7362C225.26 58.958 224.764 58.3556 224.15 57.9336L224.037 58.0984ZM225.46 59.8248L229.604 68.0848L229.783 67.9952L225.639 59.7352L225.46 59.8248ZM229.785 68.0813L234.041 58.7013L233.858 58.6187L229.602 67.9987L229.785 68.0813ZM233.987 58.5672L231.887 57.7272L231.812 57.9128L233.912 58.7528L233.987 58.5672ZM231.95 57.82V57.4H231.75V57.82H231.95ZM231.85 57.5H237.17V57.3H231.85V57.5ZM237.07 57.4V57.82H237.27V57.4H237.07ZM237.134 57.7264L234.894 58.5664L234.965 58.7536L237.205 57.9136L237.134 57.7264ZM234.838 58.6186L229.938 69.3986L230.121 69.4814L235.021 58.7014L234.838 58.6186ZM229.93 69.44V76.16H230.13V69.44H229.93ZM230.005 76.257L231.685 76.677L231.734 76.483L230.054 76.063L230.005 76.257ZM231.61 76.58V77H231.81V76.58H231.61ZM231.71 76.9H223.73V77.1H231.71V76.9ZM223.83 77V76.58H223.63V77H223.83ZM112.4 107.58L112.376 107.483L112.3 107.502V107.58H112.4ZM114.08 107.16L114.104 107.257L114.18 107.238V107.16H114.08ZM114.08 89.24H114.18V89.1619L114.104 89.143L114.08 89.24ZM112.4 88.82H112.3V88.8981L112.376 88.917L112.4 88.82ZM112.4 88.4V88.3H112.3V88.4H112.4ZM126.904 89.94L126.843 90.0195L126.844 90.02L126.904 89.94ZM126.904 98.928L126.964 99.008L126.965 99.0075L126.904 98.928ZM118.7 100.44V100.34H118.6V100.44H118.7ZM118.7 107.16H118.6V107.238L118.676 107.257L118.7 107.16ZM120.38 107.58H120.48V107.502L120.404 107.483L120.38 107.58ZM120.38 108V108.1H120.48V108H120.38ZM112.4 108H112.3V108.1H112.4V108ZM123.068 98.396L122.99 98.3329L122.99 98.3339L123.068 98.396ZM123.068 90.472L122.989 90.5333L122.99 90.5351L123.068 90.472ZM118.7 89.1V89H118.6V89.1H118.7ZM118.7 99.74H118.6V99.84H118.7V99.74ZM112.424 107.677L114.104 107.257L114.056 107.063L112.376 107.483L112.424 107.677ZM114.18 107.16V89.24H113.98V107.16H114.18ZM114.104 89.143L112.424 88.723L112.376 88.917L114.056 89.337L114.104 89.143ZM112.5 88.82V88.4H112.3V88.82H112.5ZM112.4 88.5H120.24V88.3H112.4V88.5ZM120.24 88.5C123.333 88.5 125.526 89.0133 126.843 90.0195L126.965 89.8605C125.594 88.8133 123.345 88.3 120.24 88.3V88.5ZM126.844 90.02C128.158 91.0056 128.82 92.4665 128.82 94.42H129.02C129.02 92.4162 128.338 90.8904 126.964 89.86L126.844 90.02ZM128.82 94.42C128.82 96.3735 128.158 97.8441 126.843 98.8485L126.965 99.0075C128.338 97.9585 129.02 96.4239 129.02 94.42H128.82ZM126.844 98.848C125.527 99.8359 123.333 100.34 120.24 100.34V100.54C123.344 100.54 125.593 100.036 126.964 99.008L126.844 98.848ZM120.24 100.34H118.7V100.54H120.24V100.34ZM118.6 100.44V107.16H118.8V100.44H118.6ZM118.676 107.257L120.356 107.677L120.404 107.483L118.724 107.063L118.676 107.257ZM120.28 107.58V108H120.48V107.58H120.28ZM120.38 107.9H112.4V108.1H120.38V107.9ZM112.5 108V107.58H112.3V108H112.5ZM120.24 99.84C121.446 99.84 122.417 99.3788 123.146 98.4581L122.99 98.3339C122.3 99.2052 121.386 99.64 120.24 99.64V99.84ZM123.146 98.4591C123.894 97.538 124.26 96.1862 124.26 94.42H124.06C124.06 96.1631 123.698 97.462 122.99 98.3329L123.146 98.4591ZM124.26 94.42C124.26 92.6721 123.894 91.3298 123.146 90.4089L122.99 90.5351C123.698 91.4062 124.06 92.6959 124.06 94.42H124.26ZM123.147 90.4107C122.418 89.4712 121.446 89 120.24 89V89.2C121.386 89.2 122.299 89.6435 122.989 90.5333L123.147 90.4107ZM120.24 89H118.7V89.2H120.24V89ZM118.6 89.1V99.74H118.8V89.1H118.6ZM118.7 99.84H120.24V99.64H118.7V99.84ZM135.439 107.244L135.388 107.33L135.389 107.331L135.439 107.244ZM132.275 103.744L132.364 103.7L132.364 103.7L132.275 103.744ZM132.275 92.656L132.185 92.6122L132.275 92.656ZM135.439 89.184L135.488 89.2707L135.489 89.2705L135.439 89.184ZM145.043 89.184L144.992 89.2702L144.993 89.271L145.043 89.184ZM148.235 92.656L148.324 92.6122L148.235 92.656ZM148.235 103.744L148.145 103.7L148.145 103.7L148.235 103.744ZM145.043 107.244L145.092 107.331L145.093 107.33L145.043 107.244ZM142.271 106.936L142.201 106.864L142.2 106.865L142.271 106.936ZM143.839 103.856L143.935 103.883L143.935 103.883L143.839 103.856ZM143.839 92.544L143.935 92.5165L143.935 92.5165L143.839 92.544ZM142.271 89.464L142.2 89.5347L142.201 89.5358L142.271 89.464ZM138.211 89.464L138.141 89.3922L138.14 89.3933L138.211 89.464ZM136.671 92.544L136.574 92.5165L136.574 92.5165L136.671 92.544ZM136.671 103.856L136.767 103.829L136.767 103.829L136.671 103.856ZM138.211 106.936L138.14 107.007L138.141 107.008L138.211 106.936ZM140.255 108.32C138.44 108.32 136.852 107.931 135.488 107.157L135.389 107.331C136.788 108.125 138.411 108.52 140.255 108.52V108.32ZM135.489 107.158C134.145 106.366 133.103 105.215 132.364 103.7L132.185 103.788C132.939 105.335 134.007 106.517 135.388 107.33L135.489 107.158ZM132.364 103.7C131.626 102.186 131.255 100.354 131.255 98.2H131.055C131.055 100.377 131.43 102.24 132.185 103.788L132.364 103.7ZM131.255 98.2C131.255 96.0459 131.626 94.2137 132.364 92.6998L132.185 92.6122C131.43 94.1597 131.055 96.0235 131.055 98.2H131.255ZM132.364 92.6998C133.103 91.1856 134.145 90.0439 135.488 89.2707L135.389 89.0973C134.007 89.8921 132.939 91.0651 132.185 92.6122L132.364 92.6998ZM135.489 89.2705C136.853 88.4779 138.44 88.08 140.255 88.08V87.88C138.41 87.88 136.787 88.2848 135.388 89.0975L135.489 89.2705ZM140.255 88.08C142.069 88.08 143.647 88.4779 144.992 89.2702L145.093 89.0978C143.713 88.2848 142.099 87.88 140.255 87.88V88.08ZM144.993 89.271C146.356 90.0443 147.406 91.1859 148.145 92.6998L148.324 92.6122C147.57 91.0647 146.492 89.8917 145.092 89.097L144.993 89.271ZM148.145 92.6998C148.883 94.2137 149.255 96.0459 149.255 98.2H149.455C149.455 96.0235 149.079 94.1597 148.324 92.6122L148.145 92.6998ZM149.255 98.2C149.255 100.354 148.883 102.186 148.145 103.7L148.324 103.788C149.079 102.24 149.455 100.377 149.455 98.2H149.255ZM148.145 103.7C147.406 105.214 146.355 106.366 144.992 107.158L145.093 107.33C146.492 106.517 147.57 105.335 148.324 103.788L148.145 103.7ZM144.993 107.157C143.647 107.931 142.069 108.32 140.255 108.32V108.52C142.098 108.52 143.712 108.125 145.092 107.331L144.993 107.157ZM140.255 107.96C141.014 107.96 141.71 107.638 142.341 107.007L142.2 106.865C141.599 107.466 140.951 107.76 140.255 107.76V107.96ZM142.34 107.008C142.993 106.374 143.522 105.327 143.935 103.883L143.742 103.829C143.334 105.259 142.817 106.266 142.201 106.864L142.34 107.008ZM143.935 103.883C144.349 102.434 144.555 100.538 144.555 98.2H144.355C144.355 100.529 144.149 102.404 143.742 103.829L143.935 103.883ZM144.555 98.2C144.555 95.862 144.349 93.9663 143.935 92.5165L143.742 92.5715C144.149 93.9963 144.355 95.8714 144.355 98.2H144.555ZM143.935 92.5165C143.522 91.0726 142.993 90.0262 142.34 89.3922L142.201 89.5358C142.817 90.1338 143.334 91.1407 143.742 92.5715L143.935 92.5165ZM142.341 89.3933C141.71 88.7625 141.014 88.44 140.255 88.44V88.64C140.951 88.64 141.599 88.9335 142.2 89.5347L142.341 89.3933ZM140.255 88.44C139.495 88.44 138.79 88.7623 138.141 89.3922L138.28 89.5358C138.9 88.9337 139.558 88.64 140.255 88.64V88.44ZM138.14 89.3933C137.506 90.0271 136.987 91.0731 136.574 92.5165L136.767 92.5715C137.176 91.1403 137.683 90.1329 138.281 89.5347L138.14 89.3933ZM136.574 92.5165C136.16 93.9663 135.955 95.862 135.955 98.2H136.155C136.155 95.8714 136.36 93.9963 136.767 92.5715L136.574 92.5165ZM135.955 98.2C135.955 100.538 136.16 102.434 136.574 103.883L136.767 103.829C136.36 102.404 136.155 100.529 136.155 98.2H135.955ZM136.574 103.883C136.987 105.327 137.506 106.373 138.14 107.007L138.281 106.865C137.683 106.267 137.176 105.26 136.767 103.829L136.574 103.883ZM138.141 107.008C138.79 107.638 139.495 107.96 140.255 107.96V107.76C139.558 107.76 138.9 107.466 138.28 106.864L138.141 107.008ZM152.021 107.58L151.997 107.483L151.921 107.502V107.58H152.021ZM153.701 107.16L153.725 107.257L153.801 107.238V107.16H153.701ZM153.701 89.24H153.801V89.1619L153.725 89.143L153.701 89.24ZM152.021 88.82H151.921V88.8981L151.997 88.917L152.021 88.82ZM152.021 88.4V88.3H151.921V88.4H152.021ZM166.301 89.856L166.244 89.9382L166.245 89.9387L166.301 89.856ZM167.477 96.688L167.553 96.7536L167.553 96.7526L167.477 96.688ZM165.097 98.284L165.063 98.1901L165.061 98.1906L165.097 98.284ZM161.821 98.9L161.819 98.8L161.721 98.8016V98.9H161.821ZM161.821 99.04H161.721V99.1347L161.816 99.1399L161.821 99.04ZM163.641 99.348L163.61 99.4432L163.611 99.4434L163.641 99.348ZM166.301 101.56L166.21 101.6L166.21 101.601L166.301 101.56ZM168.821 107.16L168.73 107.201L168.749 107.243L168.792 107.256L168.821 107.16ZM170.221 107.58H170.321V107.506L170.25 107.484L170.221 107.58ZM170.221 108V108.1H170.321V108H170.221ZM162.941 105.62L162.85 105.661L162.85 105.661L162.941 105.62ZM160.141 99.32L160.232 99.2794L160.206 99.22H160.141V99.32ZM158.321 99.32V99.22H158.221V99.32H158.321ZM158.321 107.16H158.221V107.241L158.3 107.258L158.321 107.16ZM160.281 107.58H160.381V107.499L160.302 107.482L160.281 107.58ZM160.281 108V108.1H160.381V108H160.281ZM152.021 108H151.921V108.1H152.021V108ZM162.521 97.388L162.447 97.3207L162.447 97.3207L162.521 97.388ZM162.521 90.332L162.595 90.2647L162.595 90.2647L162.521 90.332ZM158.321 89.1V89H158.221V89.1H158.321ZM158.321 98.62H158.221V98.72H158.321V98.62ZM152.045 107.677L153.725 107.257L153.677 107.063L151.997 107.483L152.045 107.677ZM153.801 107.16V89.24H153.601V107.16H153.801ZM153.725 89.143L152.045 88.723L151.997 88.917L153.677 89.337L153.725 89.143ZM152.121 88.82V88.4H151.921V88.82H152.121ZM152.021 88.5H159.441V88.3H152.021V88.5ZM159.441 88.5C162.609 88.5 164.87 88.9855 166.244 89.9382L166.358 89.7738C164.932 88.7852 162.62 88.3 159.441 88.3V88.5ZM166.245 89.9387C167.617 90.8718 168.301 92.1752 168.301 93.86H168.501C168.501 92.1101 167.785 90.7442 166.357 89.7733L166.245 89.9387ZM168.301 93.86C168.301 94.9989 167.998 95.9171 167.401 96.6234L167.553 96.7526C168.188 96.0029 168.501 95.0357 168.501 93.86H168.301ZM167.402 96.6224C166.798 97.3177 166.019 97.8406 165.063 98.1901L165.131 98.3779C166.116 98.018 166.924 97.4769 167.553 96.7536L167.402 96.6224ZM165.061 98.1906C164.046 98.5782 162.966 98.7815 161.819 98.8L161.823 99C162.991 98.9811 164.095 98.7738 165.133 98.3774L165.061 98.1906ZM161.721 98.9V99.04H161.921V98.9H161.721ZM161.816 99.1399C162.5 99.1768 163.098 99.2784 163.61 99.4432L163.672 99.2528C163.139 99.0816 162.524 98.9778 161.826 98.9401L161.816 99.1399ZM163.611 99.4434C164.896 99.8471 165.757 100.567 166.21 101.6L166.393 101.52C165.912 100.425 165 99.6702 163.671 99.2526L163.611 99.4434ZM166.21 101.601L168.73 107.201L168.912 107.119L166.392 101.519L166.21 101.601ZM168.792 107.256L170.192 107.676L170.25 107.484L168.85 107.064L168.792 107.256ZM170.121 107.58V108H170.321V107.58H170.121ZM170.221 107.9H166.301V108.1H170.221V107.9ZM166.301 107.9C165.554 107.9 164.912 107.707 164.371 107.323C163.829 106.939 163.382 106.36 163.032 105.579L162.85 105.661C163.21 106.466 163.677 107.077 164.255 107.487C164.834 107.897 165.518 108.1 166.301 108.1V107.9ZM163.032 105.579L160.232 99.2794L160.05 99.3606L162.85 105.661L163.032 105.579ZM160.141 99.22H158.321V99.42H160.141V99.22ZM158.221 99.32V107.16H158.421V99.32H158.221ZM158.3 107.258L160.26 107.678L160.302 107.482L158.342 107.062L158.3 107.258ZM160.181 107.58V108H160.381V107.58H160.181ZM160.281 107.9H152.021V108.1H160.281V107.9ZM152.121 108V107.58H151.921V108H152.121ZM159.441 98.72C160.77 98.72 161.826 98.3012 162.595 97.4553L162.447 97.3207C161.723 98.1175 160.725 98.52 159.441 98.52V98.72ZM162.595 97.4553C163.364 96.6095 163.741 95.4061 163.741 93.86H163.541C163.541 95.3753 163.172 96.5238 162.447 97.3207L162.595 97.4553ZM163.741 93.86C163.741 92.3139 163.364 91.1105 162.595 90.2647L162.447 90.3993C163.172 91.1962 163.541 92.3447 163.541 93.86H163.741ZM162.595 90.2647C161.826 89.4188 160.77 89 159.441 89V89.2C160.725 89.2 161.723 89.6025 162.447 90.3993L162.595 90.2647ZM159.441 89H158.321V89.2H159.441V89ZM158.221 89.1V98.62H158.421V89.1H158.221ZM158.321 98.72H159.441V98.52H158.321V98.72ZM174.853 107.58L174.829 107.483L174.753 107.502V107.58H174.853ZM176.533 107.16L176.557 107.257L176.633 107.238V107.16H176.533ZM176.533 89.1H176.633V89H176.533V89.1ZM173.313 89.1V89H173.213V89.1H173.313ZM172.389 92.376L172.475 92.428L172.475 92.4268L172.389 92.376ZM171.493 93.44V93.54H171.529L171.557 93.5168L171.493 93.44ZM170.653 93.44H170.553V93.54H170.653V93.44ZM170.653 88.4V88.3H170.553V88.4H170.653ZM187.033 88.4H187.133V88.3H187.033V88.4ZM187.033 93.44V93.54H187.133V93.44H187.033ZM186.193 93.44L186.131 93.5185L186.158 93.54H186.193V93.44ZM185.269 92.376L185.183 92.427L185.184 92.428L185.269 92.376ZM184.373 89.1H184.473V89H184.373V89.1ZM181.153 89.1V89H181.053V89.1H181.153ZM181.153 107.16H181.053V107.238L181.129 107.257L181.153 107.16ZM182.833 107.58H182.933V107.502L182.857 107.483L182.833 107.58ZM182.833 108V108.1H182.933V108H182.833ZM174.853 108H174.753V108.1H174.853V108ZM174.877 107.677L176.557 107.257L176.509 107.063L174.829 107.483L174.877 107.677ZM176.633 107.16V89.1H176.433V107.16H176.633ZM176.533 89H173.313V89.2H176.533V89ZM173.213 89.1C173.213 90.2196 172.911 91.2942 172.303 92.3252L172.475 92.4268C173.1 91.3671 173.413 90.2577 173.413 89.1H173.213ZM172.304 92.324C172.047 92.7453 171.756 93.0912 171.429 93.3632L171.557 93.5168C171.903 93.2288 172.208 92.8653 172.475 92.428L172.304 92.324ZM171.493 93.34H170.653V93.54H171.493V93.34ZM170.753 93.44V88.4H170.553V93.44H170.753ZM170.653 88.5H187.033V88.3H170.653V88.5ZM186.933 88.4V93.44H187.133V88.4H186.933ZM187.033 93.34H186.193V93.54H187.033V93.34ZM186.255 93.3615C185.911 93.0897 185.61 92.7443 185.355 92.324L185.184 92.428C185.451 92.8663 185.766 93.2303 186.131 93.5185L186.255 93.3615ZM185.355 92.325C184.767 91.3325 184.473 90.2581 184.473 89.1H184.273C184.273 90.2939 184.577 91.4035 185.183 92.427L185.355 92.325ZM184.373 89H181.153V89.2H184.373V89ZM181.053 89.1V107.16H181.253V89.1H181.053ZM181.129 107.257L182.809 107.677L182.857 107.483L181.177 107.063L181.129 107.257ZM182.733 107.58V108H182.933V107.58H182.733ZM182.833 107.9H174.853V108.1H182.833V107.9ZM174.953 108V107.58H174.753V108H174.953ZM189.127 107.58L189.102 107.483L189.027 107.502V107.58H189.127ZM190.807 107.16L190.831 107.257L190.907 107.238V107.16H190.807ZM190.807 89.24H190.907V89.1619L190.831 89.143L190.807 89.24ZM189.127 88.82H189.027V88.8981L189.102 88.917L189.127 88.82ZM189.127 88.4V88.3H189.027V88.4H189.127ZM204.107 88.4H204.207V88.3H204.107V88.4ZM204.107 93.44V93.54H204.207V93.44H204.107ZM203.267 93.44L203.205 93.5185L203.232 93.54H203.267V93.44ZM202.343 92.376L202.257 92.427L202.257 92.428L202.343 92.376ZM201.447 89.1H201.547V89H201.447V89.1ZM195.427 89.1V89H195.327V89.1H195.427ZM195.427 97.92H195.327V98.02H195.427V97.92ZM198.647 97.92V98.02H198.73L198.745 97.9381L198.647 97.92ZM199.375 95.932L199.461 95.9819L199.463 95.9791L199.375 95.932ZM199.907 95.12V95.02H199.858L199.828 95.0582L199.907 95.12ZM200.747 95.12H200.847V95.02H200.747V95.12ZM200.747 101.42V101.52H200.847V101.42H200.747ZM199.907 101.42L199.828 101.482L199.858 101.52H199.907V101.42ZM199.375 100.608L199.463 100.561L199.461 100.558L199.375 100.608ZM198.647 98.62L198.745 98.6019L198.73 98.52H198.647V98.62ZM195.427 98.62V98.52H195.327V98.62H195.427ZM195.427 107.16H195.327V107.238L195.402 107.257L195.427 107.16ZM197.107 107.58H197.207V107.502L197.131 107.483L197.107 107.58ZM197.107 108V108.1H197.207V108H197.107ZM189.127 108H189.027V108.1H189.127V108ZM189.151 107.677L190.831 107.257L190.782 107.063L189.102 107.483L189.151 107.677ZM190.907 107.16V89.24H190.707V107.16H190.907ZM190.831 89.143L189.151 88.723L189.102 88.917L190.782 89.337L190.831 89.143ZM189.227 88.82V88.4H189.027V88.82H189.227ZM189.127 88.5H204.107V88.3H189.127V88.5ZM204.007 88.4V93.44H204.207V88.4H204.007ZM204.107 93.34H203.267V93.54H204.107V93.34ZM203.329 93.3615C202.984 93.0897 202.684 92.7443 202.428 92.324L202.257 92.428C202.524 92.8663 202.84 93.2303 203.205 93.5185L203.329 93.3615ZM202.429 92.325C201.84 91.3325 201.547 90.2581 201.547 89.1H201.347C201.347 90.2939 201.65 91.4035 202.257 92.427L202.429 92.325ZM201.447 89H195.427V89.2H201.447V89ZM195.327 89.1V97.92H195.527V89.1H195.327ZM195.427 98.02H198.647V97.82H195.427V98.02ZM198.745 97.9381C198.874 97.2398 199.112 96.5879 199.461 95.9819L199.288 95.8821C198.927 96.5081 198.681 97.1815 198.548 97.9019L198.745 97.9381ZM199.463 95.9791C199.609 95.7045 199.783 95.4387 199.985 95.1818L199.828 95.0582C199.619 95.324 199.439 95.5995 199.286 95.8849L199.463 95.9791ZM199.907 95.22H200.747V95.02H199.907V95.22ZM200.647 95.12V101.42H200.847V95.12H200.647ZM200.747 101.32H199.907V101.52H200.747V101.32ZM199.985 101.358C199.783 101.101 199.609 100.836 199.463 100.561L199.286 100.655C199.439 100.94 199.619 101.216 199.828 101.482L199.985 101.358ZM199.461 100.558C199.112 99.9521 198.874 99.3002 198.745 98.6019L198.548 98.6381C198.681 99.3585 198.927 100.032 199.288 100.658L199.461 100.558ZM198.647 98.52H195.427V98.72H198.647V98.52ZM195.327 98.62V107.16H195.527V98.62H195.327ZM195.402 107.257L197.082 107.677L197.131 107.483L195.451 107.063L195.402 107.257ZM197.007 107.58V108H197.207V107.58H197.007ZM197.107 107.9H189.127V108.1H197.107V107.9ZM189.227 108V107.58H189.027V108H189.227ZM209.814 107.244L209.763 107.33L209.764 107.331L209.814 107.244ZM206.65 103.744L206.739 103.7L206.739 103.7L206.65 103.744ZM206.65 92.656L206.56 92.6122L206.65 92.656ZM209.814 89.184L209.863 89.2707L209.864 89.2705L209.814 89.184ZM219.418 89.184L219.367 89.2702L219.368 89.271L219.418 89.184ZM222.61 92.656L222.699 92.6122L222.61 92.656ZM222.61 103.744L222.52 103.7L222.52 103.7L222.61 103.744ZM219.418 107.244L219.467 107.331L219.468 107.33L219.418 107.244ZM216.646 106.936L216.576 106.864L216.575 106.865L216.646 106.936ZM218.214 103.856L218.31 103.883L218.31 103.883L218.214 103.856ZM218.214 92.544L218.31 92.5165L218.31 92.5165L218.214 92.544ZM216.646 89.464L216.575 89.5347L216.576 89.5358L216.646 89.464ZM212.586 89.464L212.516 89.3922L212.515 89.3933L212.586 89.464ZM211.046 92.544L210.949 92.5165L210.949 92.5165L211.046 92.544ZM211.046 103.856L211.142 103.829L211.142 103.829L211.046 103.856ZM212.586 106.936L212.515 107.007L212.516 107.008L212.586 106.936ZM214.63 108.32C212.815 108.32 211.227 107.931 209.863 107.157L209.764 107.331C211.163 108.125 212.786 108.52 214.63 108.52V108.32ZM209.864 107.158C208.52 106.366 207.478 105.215 206.739 103.7L206.56 103.788C207.314 105.335 208.382 106.517 209.763 107.33L209.864 107.158ZM206.739 103.7C206.001 102.186 205.63 100.354 205.63 98.2H205.43C205.43 100.377 205.805 102.24 206.56 103.788L206.739 103.7ZM205.63 98.2C205.63 96.0459 206.001 94.2137 206.739 92.6998L206.56 92.6122C205.805 94.1597 205.43 96.0235 205.43 98.2H205.63ZM206.739 92.6998C207.478 91.1856 208.52 90.0439 209.863 89.2707L209.764 89.0973C208.382 89.8921 207.314 91.0651 206.56 92.6122L206.739 92.6998ZM209.864 89.2705C211.228 88.4779 212.815 88.08 214.63 88.08V87.88C212.785 87.88 211.162 88.2848 209.763 89.0975L209.864 89.2705ZM214.63 88.08C216.444 88.08 218.022 88.4779 219.367 89.2702L219.468 89.0978C218.088 88.2848 216.474 87.88 214.63 87.88V88.08ZM219.368 89.271C220.731 90.0443 221.781 91.1859 222.52 92.6998L222.699 92.6122C221.945 91.0647 220.867 89.8917 219.467 89.097L219.368 89.271ZM222.52 92.6998C223.258 94.2137 223.63 96.0459 223.63 98.2H223.83C223.83 96.0235 223.454 94.1597 222.699 92.6122L222.52 92.6998ZM223.63 98.2C223.63 100.354 223.258 102.186 222.52 103.7L222.699 103.788C223.454 102.24 223.83 100.377 223.83 98.2H223.63ZM222.52 103.7C221.781 105.214 220.73 106.366 219.367 107.158L219.468 107.33C220.867 106.517 221.945 105.335 222.699 103.788L222.52 103.7ZM219.368 107.157C218.022 107.931 216.444 108.32 214.63 108.32V108.52C216.473 108.52 218.087 108.125 219.467 107.331L219.368 107.157ZM214.63 107.96C215.389 107.96 216.085 107.638 216.716 107.007L216.575 106.865C215.974 107.466 215.326 107.76 214.63 107.76V107.96ZM216.715 107.008C217.368 106.374 217.897 105.327 218.31 103.883L218.117 103.829C217.709 105.259 217.192 106.266 216.576 106.864L216.715 107.008ZM218.31 103.883C218.724 102.434 218.93 100.538 218.93 98.2H218.73C218.73 100.529 218.524 102.404 218.117 103.829L218.31 103.883ZM218.93 98.2C218.93 95.862 218.724 93.9663 218.31 92.5165L218.117 92.5715C218.524 93.9963 218.73 95.8714 218.73 98.2H218.93ZM218.31 92.5165C217.897 91.0726 217.368 90.0262 216.715 89.3922L216.576 89.5358C217.192 90.1338 217.709 91.1407 218.117 92.5715L218.31 92.5165ZM216.716 89.3933C216.085 88.7625 215.389 88.44 214.63 88.44V88.64C215.326 88.64 215.974 88.9335 216.575 89.5347L216.716 89.3933ZM214.63 88.44C213.87 88.44 213.165 88.7623 212.516 89.3922L212.655 89.5358C213.275 88.9337 213.933 88.64 214.63 88.64V88.44ZM212.515 89.3933C211.881 90.0271 211.362 91.0731 210.949 92.5165L211.142 92.5715C211.551 91.1403 212.058 90.1329 212.656 89.5347L212.515 89.3933ZM210.949 92.5165C210.535 93.9663 210.33 95.862 210.33 98.2H210.53C210.53 95.8714 210.735 93.9963 211.142 92.5715L210.949 92.5165ZM210.33 98.2C210.33 100.538 210.535 102.434 210.949 103.883L211.142 103.829C210.735 102.404 210.53 100.529 210.53 98.2H210.33ZM210.949 103.883C211.362 105.327 211.881 106.373 212.515 107.007L212.656 106.865C212.058 106.267 211.551 105.26 211.142 103.829L210.949 103.883ZM212.516 107.008C213.165 107.638 213.87 107.96 214.63 107.96V107.76C213.933 107.76 213.275 107.466 212.655 106.864L212.516 107.008ZM226.396 107.58L226.372 107.483L226.296 107.502V107.58H226.396ZM228.076 107.16L228.1 107.257L228.176 107.238V107.16H228.076ZM228.076 89.24H228.176V89.1619L228.1 89.143L228.076 89.24ZM226.396 88.82H226.296V88.8981L226.372 88.917L226.396 88.82ZM226.396 88.4V88.3H226.296V88.4H226.396ZM234.376 88.4H234.476V88.3H234.376V88.4ZM234.376 88.82L234.4 88.917L234.476 88.8981V88.82H234.376ZM232.696 89.24L232.672 89.143L232.596 89.1619V89.24H232.696ZM232.696 107.3H232.596V107.4H232.696V107.3ZM238.716 107.3V107.4H238.816V107.3H238.716ZM239.612 104.024L239.527 103.972L239.526 103.973L239.612 104.024ZM240.536 102.96V102.86H240.501L240.474 102.882L240.536 102.96ZM241.376 102.96H241.476V102.86H241.376V102.96ZM241.376 108V108.1H241.476V108H241.376ZM226.396 108H226.296V108.1H226.396V108ZM226.42 107.677L228.1 107.257L228.052 107.063L226.372 107.483L226.42 107.677ZM228.176 107.16V89.24H227.976V107.16H228.176ZM228.1 89.143L226.42 88.723L226.372 88.917L228.052 89.337L228.1 89.143ZM226.496 88.82V88.4H226.296V88.82H226.496ZM226.396 88.5H234.376V88.3H226.396V88.5ZM234.276 88.4V88.82H234.476V88.4H234.276ZM234.352 88.723L232.672 89.143L232.72 89.337L234.4 88.917L234.352 88.723ZM232.596 89.24V107.3H232.796V89.24H232.596ZM232.696 107.4H238.716V107.2H232.696V107.4ZM238.816 107.3C238.816 106.142 239.11 105.067 239.698 104.075L239.526 103.973C238.92 104.997 238.616 106.106 238.616 107.3H238.816ZM239.698 104.076C239.953 103.656 240.254 103.31 240.598 103.038L240.474 102.882C240.109 103.17 239.793 103.534 239.527 103.972L239.698 104.076ZM240.536 103.06H241.376V102.86H240.536V103.06ZM241.276 102.96V108H241.476V102.96H241.276ZM241.376 107.9H226.396V108.1H241.376V107.9ZM226.496 108V107.58H226.296V108H226.496ZM243.486 108H243.386V108.1H243.486V108ZM243.486 107.58L243.462 107.483L243.386 107.502V107.58H243.486ZM245.166 107.16L245.19 107.257L245.266 107.238V107.16H245.166ZM245.166 89.24H245.266V89.1619L245.19 89.143L245.166 89.24ZM243.486 88.82H243.386V88.8981L243.462 88.917L243.486 88.82ZM243.486 88.4V88.3H243.386V88.4H243.486ZM251.466 88.4H251.566V88.3H251.466V88.4ZM251.466 88.82L251.49 88.917L251.566 88.8981V88.82H251.466ZM249.786 89.24L249.762 89.143L249.686 89.1619V89.24H249.786ZM249.786 107.16H249.686V107.238L249.762 107.257L249.786 107.16ZM251.466 107.58H251.566V107.502L251.49 107.483L251.466 107.58ZM251.466 108V108.1H251.566V108H251.466ZM243.586 108V107.58H243.386V108H243.586ZM243.51 107.677L245.19 107.257L245.142 107.063L243.462 107.483L243.51 107.677ZM245.266 107.16V89.24H245.066V107.16H245.266ZM245.19 89.143L243.51 88.723L243.462 88.917L245.142 89.337L245.19 89.143ZM243.586 88.82V88.4H243.386V88.82H243.586ZM243.486 88.5H251.466V88.3H243.486V88.5ZM251.366 88.4V88.82H251.566V88.4H251.366ZM251.442 88.723L249.762 89.143L249.81 89.337L251.49 88.917L251.442 88.723ZM249.686 89.24V107.16H249.886V89.24H249.686ZM249.762 107.257L251.442 107.677L251.49 107.483L249.81 107.063L249.762 107.257ZM251.366 107.58V108H251.566V107.58H251.366ZM251.466 107.9H243.486V108.1H251.466V107.9ZM258.403 107.244L258.353 107.33L258.354 107.331L258.403 107.244ZM255.239 103.744L255.329 103.7L255.329 103.7L255.239 103.744ZM255.239 92.656L255.149 92.6122L255.239 92.656ZM258.403 89.184L258.453 89.2707L258.454 89.2705L258.403 89.184ZM268.007 89.184L267.957 89.2702L267.958 89.271L268.007 89.184ZM271.199 92.656L271.289 92.6122L271.199 92.656ZM271.199 103.744L271.109 103.7L271.109 103.7L271.199 103.744ZM268.007 107.244L268.057 107.331L268.058 107.33L268.007 107.244ZM265.235 106.936L265.166 106.864L265.165 106.865L265.235 106.936ZM266.803 103.856L266.9 103.883L266.9 103.883L266.803 103.856ZM266.803 92.544L266.9 92.5165L266.9 92.5165L266.803 92.544ZM265.235 89.464L265.165 89.5347L265.166 89.5358L265.235 89.464ZM261.175 89.464L261.106 89.3922L261.105 89.3933L261.175 89.464ZM259.635 92.544L259.539 92.5165L259.539 92.5165L259.635 92.544ZM259.635 103.856L259.732 103.829L259.732 103.829L259.635 103.856ZM261.175 106.936L261.105 107.007L261.106 107.008L261.175 106.936ZM263.219 108.32C261.405 108.32 259.817 107.931 258.453 107.157L258.354 107.331C259.753 108.125 261.375 108.52 263.219 108.52V108.32ZM258.454 107.158C257.11 106.366 256.068 105.215 255.329 103.7L255.149 103.788C255.904 105.335 256.972 106.517 258.353 107.33L258.454 107.158ZM255.329 103.7C254.591 102.186 254.219 100.354 254.219 98.2H254.019C254.019 100.377 254.395 102.24 255.149 103.788L255.329 103.7ZM254.219 98.2C254.219 96.0459 254.591 94.2137 255.329 92.6998L255.149 92.6122C254.395 94.1597 254.019 96.0235 254.019 98.2H254.219ZM255.329 92.6998C256.068 91.1856 257.109 90.0439 258.453 89.2707L258.354 89.0973C256.972 89.8921 255.904 91.0651 255.149 92.6122L255.329 92.6998ZM258.454 89.2705C259.818 88.4779 261.405 88.08 263.219 88.08V87.88C261.375 87.88 259.752 88.2848 258.353 89.0975L258.454 89.2705ZM263.219 88.08C265.034 88.08 266.612 88.4779 267.957 89.2702L268.058 89.0978C266.678 88.2848 265.064 87.88 263.219 87.88V88.08ZM267.958 89.271C269.321 90.0443 270.371 91.1859 271.109 92.6998L271.289 92.6122C270.534 91.0647 269.457 89.8917 268.057 89.097L267.958 89.271ZM271.109 92.6998C271.848 94.2137 272.219 96.0459 272.219 98.2H272.419C272.419 96.0235 272.044 94.1597 271.289 92.6122L271.109 92.6998ZM272.219 98.2C272.219 100.354 271.848 102.186 271.109 103.7L271.289 103.788C272.044 102.24 272.419 100.377 272.419 98.2H272.219ZM271.109 103.7C270.371 105.214 269.32 106.366 267.957 107.158L268.058 107.33C269.457 106.517 270.534 105.335 271.289 103.788L271.109 103.7ZM267.958 107.157C266.612 107.931 265.034 108.32 263.219 108.32V108.52C265.063 108.52 266.677 108.125 268.057 107.331L267.958 107.157ZM263.219 107.96C263.979 107.96 264.675 107.638 265.306 107.007L265.165 106.865C264.563 107.466 263.916 107.76 263.219 107.76V107.96ZM265.305 107.008C265.958 106.374 266.487 105.327 266.9 103.883L266.707 103.829C266.298 105.259 265.782 106.266 265.166 106.864L265.305 107.008ZM266.9 103.883C267.314 102.434 267.519 100.538 267.519 98.2H267.319C267.319 100.529 267.114 102.404 266.707 103.829L266.9 103.883ZM267.519 98.2C267.519 95.862 267.314 93.9663 266.9 92.5165L266.707 92.5715C267.114 93.9963 267.319 95.8714 267.319 98.2H267.519ZM266.9 92.5165C266.487 91.0726 265.958 90.0262 265.305 89.3922L265.166 89.5358C265.782 90.1338 266.298 91.1407 266.707 92.5715L266.9 92.5165ZM265.306 89.3933C264.675 88.7625 263.979 88.44 263.219 88.44V88.64C263.916 88.64 264.563 88.9335 265.165 89.5347L265.306 89.3933ZM263.219 88.44C262.46 88.44 261.755 88.7623 261.106 89.3922L261.245 89.5358C261.865 88.9337 262.523 88.64 263.219 88.64V88.44ZM261.105 89.3933C260.471 90.0271 259.952 91.0731 259.539 92.5165L259.732 92.5715C260.14 91.1403 260.648 90.1329 261.246 89.5347L261.105 89.3933ZM259.539 92.5165C259.125 93.9663 258.919 95.862 258.919 98.2H259.119C259.119 95.8714 259.324 93.9963 259.732 92.5715L259.539 92.5165ZM258.919 98.2C258.919 100.538 259.125 102.434 259.539 103.883L259.732 103.829C259.324 102.404 259.119 100.529 259.119 98.2H258.919ZM259.539 103.883C259.952 105.327 260.471 106.373 261.105 107.007L261.246 106.865C260.648 106.267 260.14 105.26 259.732 103.829L259.539 103.883ZM261.106 107.008C261.755 107.638 262.46 107.96 263.219 107.96V107.76C262.523 107.76 261.865 107.466 261.245 106.864L261.106 107.008Z" fill="black" mask="url(#path-4-outside-1_5_12)"/>
</g>
<g filter="url(#filter2_d_5_12)">
<mask id="mask0_5_12" style="mask-type:luminance" maskUnits="userSpaceOnUse" x="16" y="36" width="84" height="76">
<path d="M99.1081 36H16V111.811H99.1081V36Z" fill="white"/>
</mask>
<g mask="url(#mask0_5_12)">
<path d="M34.7409 49.1999V92.2443C34.7152 94.9503 33.7166 97.536 31.9621 99.4396C30.2076 101.343 27.8389 102.411 25.3704 102.411C22.902 102.411 20.5332 101.343 18.7787 99.4396C17.0242 97.536 16.0257 94.9503 16 92.2443V49.1999C16.0016 46.4756 16.9902 43.8636 18.7483 41.9383C20.5064 40.013 22.89 38.9321 25.375 38.9332C26.929 38.9287 28.459 39.3528 29.8243 40.1666C29.8456 40.1766 29.8547 40.1888 29.8649 40.1888C29.8701 40.1951 29.8773 40.1991 29.8851 40.1999C30.6622 40.6647 31.3726 41.2525 31.9932 41.9444C32.8645 42.8959 33.5556 44.0266 34.0272 45.2717C34.4986 46.5168 34.7412 47.8518 34.7409 49.1999Z" fill="url(#paint1_linear_5_12)"/>
<path d="M56.1553 58.5V101.533C56.1553 102.882 55.913 104.218 55.442 105.464C54.9711 106.711 54.281 107.843 53.4109 108.797C52.5408 109.751 51.5078 110.507 50.3711 111.024C49.2342 111.54 48.0159 111.806 46.7854 111.806C45.5549 111.806 44.3364 111.54 43.1997 111.024C42.0628 110.507 41.0299 109.751 40.1598 108.797C39.2897 107.843 38.5995 106.711 38.1286 105.464C37.6578 104.218 37.4154 102.882 37.4154 101.533V58.5C37.4151 57.1502 37.6575 55.8136 38.1285 54.5666C38.5995 53.3194 39.2901 52.1863 40.1607 51.2319C41.0314 50.2774 42.0649 49.5203 43.2024 49.004C44.34 48.4876 45.5592 48.2219 46.7904 48.2222C47.1249 48.2222 47.4492 48.2444 47.7634 48.2767H47.7847C50.0835 48.5507 52.2092 49.7456 53.754 51.632C55.2988 53.5184 56.1539 55.9649 56.1553 58.5Z" fill="url(#paint2_linear_5_12)"/>
<path d="M77.6925 46.2666V89.3111C77.6925 92.0354 76.7053 94.6482 74.9481 96.5746C73.1908 98.5011 70.8076 99.5833 68.3225 99.5833C65.8375 99.5833 63.4542 98.5011 61.697 96.5746C59.9398 94.6482 58.9526 92.0354 58.9526 89.3111V46.2666C58.9526 44.9174 59.1951 43.5815 59.6664 42.3351C60.1377 41.0888 60.8284 39.9565 61.6991 39.003C62.5697 38.0495 63.6033 37.2935 64.7407 36.7782C65.878 36.2629 67.0969 35.9985 68.3276 35.9999C68.7143 35.9956 69.1006 36.0253 69.483 36.0888H69.5033C71.5641 36.3622 73.481 37.3875 74.9458 38.9999C75.8171 39.9536 76.5082 41.0863 76.9795 42.3333C77.4508 43.5802 77.6931 44.9168 77.6925 46.2666Z" fill="url(#paint3_linear_5_12)"/>
<path d="M99.1079 58.0099V101.044C99.1079 102.393 98.8655 103.729 98.3946 104.975C97.9237 106.222 97.2335 107.354 96.3635 108.308C95.4934 109.262 94.4604 110.018 93.3237 110.535C92.1868 111.051 90.9684 111.317 89.738 111.317C88.5075 111.317 87.289 111.051 86.1523 110.535C85.0154 110.018 83.9824 109.262 83.1124 108.308C82.2423 107.354 81.5521 106.222 81.0813 104.975C80.6104 103.729 80.368 102.393 80.368 101.044V58.0099C80.3678 56.6601 80.6103 55.3237 81.0814 54.0766C81.5524 52.8296 82.243 51.6964 83.1135 50.7421C83.9842 49.7877 85.0177 49.0307 86.1552 48.5142C87.2927 47.9978 88.5118 47.732 89.743 47.7321C90.983 47.7266 92.2108 47.9992 93.3512 48.5332H93.3613C93.3666 48.5396 93.3738 48.5436 93.3816 48.5443C94.4972 49.0554 95.5098 49.8031 96.3613 50.7443C97.235 51.6957 97.9278 52.8279 98.3994 54.0751C98.8708 55.3223 99.1117 56.6598 99.1079 58.0099Z" fill="url(#paint4_linear_5_12)"/>
<g style="mix-blend-mode:multiply" opacity="0.3">
<path d="M34.7409 61.5887V92.2442C34.7152 94.9502 33.7166 97.5358 31.9621 99.4393C30.2076 101.343 27.8389 102.411 25.3704 102.411C22.902 102.411 20.5332 101.343 18.7787 99.4393C17.0242 97.5358 16.0257 94.9502 16 92.2442V90.4776C16 90.4776 16.0203 90.732 16.0608 91.1987C16.0811 91.6764 16.1419 92.3776 16.2443 93.232C16.4169 94.2503 16.7167 95.2378 17.1351 96.1664C17.875 97.8161 19.0269 99.2014 20.4569 100.161C21.887 101.121 23.5362 101.616 25.2128 101.589C25.9732 101.58 26.7294 101.464 27.4628 101.244C29.0123 100.766 30.4093 99.8232 31.4966 98.522C32.6101 97.1981 33.3432 95.5441 33.6047 93.7664C33.625 93.5442 33.6757 93.3664 33.6858 93.1109L33.7274 92.3553C33.7466 91.9664 33.7365 91.3776 33.7466 90.8998C33.7466 89.8998 33.7568 88.8887 33.7669 87.8998C33.7669 85.9109 33.8277 83.9553 33.849 82.0553C33.9189 78.2664 34.0304 74.732 34.1622 71.6998C34.4064 65.6331 34.7409 61.5887 34.7409 61.5887Z" fill="black"/>
</g>
<g style="mix-blend-mode:overlay" opacity="0.6">
<path d="M29.8659 40.1889C29.5135 40.063 29.1548 39.9591 28.7916 39.8778C27.8552 39.6398 26.8936 39.5426 25.9334 39.5889C25.6315 39.6012 25.3305 39.6346 25.0324 39.6889C24.7184 39.7312 24.4071 39.7943 24.1 39.8778C22.0092 40.3962 20.1445 41.6869 18.8186 43.5333C18.3563 44.1543 17.9681 44.8371 17.6632 45.5656C17.3721 46.2708 17.1512 47.0084 17.0044 47.7656C16.9298 48.1508 16.8754 48.5402 16.8412 48.9322L16.8108 49.2322C16.8108 49.2433 16.8007 49.41 16.7905 49.4878C16.7804 49.6878 16.7703 49.8878 16.751 50.0767C16.7095 50.8544 16.6385 51.5878 16.5777 52.2656C16.4542 53.7789 16.2614 55.2846 16 56.7767V49.1989C16.0019 47.4167 16.4264 45.6657 17.232 44.1177C18.0375 42.5698 19.1964 41.278 20.5948 40.3693C21.9933 39.4606 23.5832 38.9662 25.2086 38.9346C26.834 38.9029 28.4389 39.3352 29.8659 40.1889Z" fill="white"/>
</g>
<g style="mix-blend-mode:multiply" opacity="0.3">
<path d="M56.1553 70.8432V101.533C56.1553 102.882 55.913 104.218 55.442 105.464C54.9711 106.711 54.281 107.843 53.4109 108.797C52.5408 109.751 51.5078 110.507 50.3711 111.024C49.2342 111.54 48.0159 111.805 46.7854 111.805C45.5549 111.805 44.3364 111.54 43.1997 111.024C42.0628 110.507 41.0299 109.751 40.1598 108.797C39.2897 107.843 38.5995 106.711 38.1286 105.464C37.6578 104.218 37.4154 102.882 37.4154 101.533V100.289C37.4154 100.289 37.4357 100.544 37.4762 101.01C37.5121 101.683 37.5969 102.352 37.7296 103.01C38.1873 105.298 39.3507 107.343 41.0235 108.8C42.1075 109.736 43.3732 110.386 44.7229 110.7C45.0678 110.776 45.4163 110.832 45.7668 110.867C46.1513 110.896 46.537 110.903 46.9222 110.889C47.6857 110.843 48.4414 110.697 49.1732 110.454C50.6891 109.909 52.0411 108.922 53.0844 107.599C54.1542 106.253 54.8382 104.591 55.0506 102.821C55.1104 102.364 55.1442 101.904 55.1519 101.443L55.1621 99.9421C55.1621 98.9421 55.1722 97.9421 55.1833 96.9543C55.1833 94.9877 55.2431 93.0432 55.2644 91.1543C55.3344 87.3977 55.4458 83.8877 55.5776 80.8766C55.8208 74.8554 56.1553 70.8432 56.1553 70.8432Z" fill="black"/>
</g>
<g style="mix-blend-mode:overlay" opacity="0.6">
<path d="M47.7634 48.2767C47.6722 48.3 47.3175 48.3556 46.76 48.4444C46.4458 48.5333 46.0617 48.6 45.6452 48.7333C45.1802 48.8821 44.7234 49.0598 44.2769 49.2656C43.7646 49.5139 43.27 49.804 42.7972 50.1333C42.2866 50.5041 41.8021 50.9163 41.3479 51.3667C40.8841 51.8597 40.4633 52.399 40.0911 52.9778C39.7081 53.5649 39.382 54.1942 39.1181 54.8556C38.8611 55.5178 38.6645 56.2063 38.5313 56.9111C38.4633 57.2634 38.4122 57.6196 38.3783 57.9778L38.3276 58.51L38.3073 59.0889C38.2364 60.6111 38.1249 62.0322 37.9931 63.2556C37.8697 64.6256 37.6768 65.9869 37.4154 67.3333V58.5C37.4151 57.1502 37.6575 55.8136 38.1285 54.5666C38.5995 53.3194 39.2901 52.1863 40.1607 51.2319C41.0314 50.2774 42.0649 49.5203 43.2024 49.004C44.34 48.4876 45.5592 48.2219 46.7904 48.2222C47.1249 48.2222 47.4492 48.2444 47.7634 48.2767Z" fill="white"/>
</g>
<g style="mix-blend-mode:multiply" opacity="0.3">
<path d="M77.6925 50.6667V89.311C77.6925 92.0354 76.7053 94.6482 74.9481 96.5747C73.1908 98.501 70.8076 99.5833 68.3225 99.5833C65.8375 99.5833 63.4542 98.501 61.697 96.5747C59.9398 94.6482 58.9526 92.0354 58.9526 89.311V88.4444C58.9526 88.4444 58.9729 88.7222 59.0134 89.2444C59.0683 89.992 59.187 90.7322 59.3681 91.4556C59.6597 92.5576 60.1189 93.5977 60.7263 94.5322C61.4884 95.7256 62.4817 96.7197 63.635 97.4433C64.9739 98.2954 66.4957 98.7407 68.0438 98.7333C68.8644 98.7434 69.6817 98.616 70.4671 98.3554C71.2937 98.104 72.08 97.7142 72.7982 97.2C74.2925 96.1241 75.4466 94.5678 76.1023 92.7444L76.3354 92.0556L76.4975 91.3322C76.5583 91.0888 76.5685 90.8554 76.609 90.6222C76.6525 90.3694 76.6729 90.1127 76.6698 89.8554C76.7205 88.8554 76.6698 87.6444 76.68 86.5556C76.6901 84.3111 76.7002 82.0666 76.7205 79.8554C76.7205 77.6443 76.7813 75.4778 76.8016 73.3778C76.8725 69.1667 76.984 65.2443 77.1158 61.8777C77.358 55.1443 77.6925 50.6667 77.6925 50.6667Z" fill="black"/>
</g>
<g style="mix-blend-mode:overlay" opacity="0.6">
<path d="M69.483 36.0888C69.3513 36.111 69.0168 36.1666 68.5202 36.2333C68.2161 36.2555 67.8208 36.3988 67.3952 36.4766C66.9282 36.6179 66.4682 36.7852 66.0168 36.9777C65.4987 37.2144 64.9973 37.493 64.5168 37.811C63.9925 38.1624 63.4977 38.564 63.0381 39.011C62.7938 39.2333 62.581 39.4999 62.359 39.7444C62.1563 40.0333 61.9222 40.2877 61.7398 40.5888C61.3437 41.1683 61.0072 41.7939 60.7364 42.4544C60.4566 43.1089 60.2425 43.7947 60.0979 44.4999C60.0573 44.8555 59.956 45.1222 59.9256 45.5444L59.8749 46.121L59.8648 46.2666V46.2777L59.8546 46.2877V46.3666L59.8445 46.6555C59.7735 48.1888 59.6621 49.6111 59.5303 50.8333C59.4072 52.2069 59.2143 53.5721 58.9526 54.9222V46.2666C58.9526 44.9174 59.1951 43.5815 59.6664 42.3351C60.1377 41.0888 60.8284 39.9565 61.6991 39.003C62.5697 38.0495 63.6033 37.2935 64.7407 36.7782C65.878 36.2629 67.0969 35.9985 68.3276 35.9999C68.7143 35.9956 69.1006 36.0253 69.483 36.0888Z" fill="white"/>
</g>
<g style="mix-blend-mode:overlay" opacity="0.6">
<path d="M93.3512 48.5332C93.2599 48.5099 92.8951 48.4321 92.3174 48.3554C91.9829 48.311 91.5775 48.2877 91.1214 48.2766C90.6131 48.2744 90.1054 48.3082 89.6011 48.3777C89.0192 48.4727 88.4436 48.6097 87.8782 48.7877C87.2689 49.0031 86.6786 49.2787 86.1147 49.611C84.9096 50.334 83.8619 51.3348 83.0437 52.5443C82.6251 53.1498 82.2715 53.8059 81.9897 54.4999C81.7181 55.1709 81.5109 55.8709 81.3714 56.5888C81.2956 56.9508 81.2447 57.3184 81.2194 57.6888L81.189 57.9666L81.1789 58.0221L81.1687 58.0654L81.1586 58.211C81.1485 58.3999 81.1383 58.5777 81.1282 58.7666C81.0775 59.4999 81.0167 60.1999 80.9457 60.8332C80.8227 62.2694 80.6298 63.6973 80.368 65.111V58.0099C80.3678 56.6601 80.6103 55.3237 81.0814 54.0766C81.5524 52.8296 82.243 51.6964 83.1135 50.7421C83.9842 49.7877 85.0177 49.0307 86.1552 48.5142C87.2927 47.9978 88.5118 47.732 89.743 47.7321C90.983 47.7266 92.2108 47.9992 93.3512 48.5332Z" fill="white"/>
</g>
<g style="mix-blend-mode:multiply" opacity="0.3">
<path d="M99.1079 73.4444V101.044C99.1079 102.393 98.8655 103.729 98.3946 104.975C97.9237 106.222 97.2335 107.354 96.3635 108.308C95.4934 109.262 94.4604 110.018 93.3237 110.535C92.1868 111.051 90.9684 111.317 89.738 111.317C88.5075 111.317 87.289 111.051 86.1523 110.535C85.0154 110.018 83.9824 109.262 83.1124 108.308C82.2423 107.354 81.5521 106.222 81.0813 104.975C80.6104 103.729 80.368 102.393 80.368 101.044C80.368 101.044 80.3984 101.278 80.4593 101.722C80.4848 101.986 80.5322 102.246 80.6011 102.5C80.6639 102.852 80.752 103.197 80.8647 103.533C81.3788 105.238 82.2991 106.761 83.5304 107.945C84.7617 109.129 86.2593 109.93 87.868 110.267C88.2025 110.333 88.5167 110.356 88.8511 110.4L89.4187 110.411H89.7937L89.9255 110.389C90.6402 110.348 91.3479 110.214 92.0336 109.989C93.4511 109.508 94.732 108.635 95.7532 107.454C96.2737 106.848 96.7231 106.173 97.091 105.444C97.4403 104.706 97.7026 103.922 97.8714 103.111C97.9618 102.717 98.0262 102.316 98.064 101.911L98.1045 101.222V101.044L98.1147 100.921V100.578C98.1147 99.6443 98.1248 98.71 98.1349 97.7889C98.1349 95.9556 98.1957 94.1333 98.216 92.3889C98.287 88.8778 98.3984 85.6 98.5302 82.8C98.7734 77.1767 99.1079 73.4444 99.1079 73.4444Z" fill="black"/>
</g>
</g>
</g>
</g>
<defs>
<filter id="filter0_i_5_12" x="244" y="9" width="42" height="44" filterUnits="userSpaceOnUse" color-interpolation-filters="sRGB">
<feFlood flood-opacity="0" result="BackgroundImageFix"/>
<feBlend mode="normal" in="SourceGraphic" in2="BackgroundImageFix" result="shape"/>
<feColorMatrix in="SourceAlpha" type="matrix" values="0 0 0 0 0 0 0 0 0 0 0 0 0 0 0 0 0 0 127 0" result="hardAlpha"/>
<feOffset dy="4"/>
<feGaussianBlur stdDeviation="2"/>
<feComposite in2="hardAlpha" operator="arithmetic" k2="-1" k3="1"/>
<feColorMatrix type="matrix" values="0 0 0 0 0 0 0 0 0 0 0 0 0 0 0 0 0 0 0.25 0"/>
<feBlend mode="normal" in2="shape" result="effect1_innerShadow_5_12"/>
</filter>
<filter id="filter1_d_5_12" x="108.4" y="20.8" width="167.919" height="95.62" filterUnits="userSpaceOnUse" color-interpolation-filters="sRGB">
<feFlood flood-opacity="0" result="BackgroundImageFix"/>
<feColorMatrix in="SourceAlpha" type="matrix" values="0 0 0 0 0 0 0 0 0 0 0 0 0 0 0 0 0 0 127 0" result="hardAlpha"/>
<feOffset dy="4"/>
<feGaussianBlur stdDeviation="2"/>
<feComposite in2="hardAlpha" operator="out"/>
<feColorMatrix type="matrix" values="0 0 0 0 0 0 0 0 0 0 0 0 0 0 0 0 0 0 0.25 0"/>
<feBlend mode="normal" in2="BackgroundImageFix" result="effect1_dropShadow_5_12"/>
<feBlend mode="normal" in="SourceGraphic" in2="effect1_dropShadow_5_12" result="shape"/>
</filter>
<filter id="filter2_d_5_12" x="12" y="36" width="91.1079" height="83.8056" filterUnits="userSpaceOnUse" color-interpolation-filters="sRGB">
<feFlood flood-opacity="0" result="BackgroundImageFix"/>
<feColorMatrix in="SourceAlpha" type="matrix" values="0 0 0 0 0 0 0 0 0 0 0 0 0 0 0 0 0 0 127 0" result="hardAlpha"/>
<feOffset dy="4"/>
<feGaussianBlur stdDeviation="2"/>
<feComposite in2="hardAlpha" operator="out"/>
<feColorMatrix type="matrix" values="0 0 0 0 0 0 0 0 0 0 0 0 0 0 0 0 0 0 0.25 0"/>
<feBlend mode="normal" in2="BackgroundImageFix" result="effect1_dropShadow_5_12"/>
<feBlend mode="normal" in="SourceGraphic" in2="effect1_dropShadow_5_12" result="shape"/>
</filter>
<linearGradient id="paint0_linear_5_12" x1="203.5" y1="21" x2="203.5" y2="145" gradientUnits="userSpaceOnUse">
<stop stop-color="#10B981"/>
<stop offset="0.9999" stop-color="#B6B910"/>
</linearGradient>
<linearGradient id="paint1_linear_5_12" x1="25.3704" y1="37.7271" x2="25.3704" y2="95.7457" gradientUnits="userSpaceOnUse">
<stop stop-color="#10B981"/>
<stop offset="0.967" stop-color="#FAFF06"/>
</linearGradient>
<linearGradient id="paint2_linear_5_12" x1="46.7854" y1="49.176" x2="46.7854" y2="113.586" gradientUnits="userSpaceOnUse">
<stop stop-color="#10B981"/>
<stop offset="0.0001" stop-color="#0EB77E"/>
<stop offset="0.979167" stop-color="#FAFF06"/>
</linearGradient>
<linearGradient id="paint3_linear_5_12" x1="68.3225" y1="37.7163" x2="68.3225" y2="95.8318" gradientUnits="userSpaceOnUse">
<stop stop-color="#65FF06"/>
<stop offset="0.967" stop-color="#FAFF06"/>
</linearGradient>
<linearGradient id="paint4_linear_5_12" x1="89.738" y1="49.1944" x2="89.738" y2="113.606" gradientUnits="userSpaceOnUse">
<stop stop-color="#10B981"/>
<stop offset="1" stop-color="#FAFF06"/>
</linearGradient>
<clipPath id="clip0_5_12">
<rect width="300" height="130" fill="white"/>
</clipPath>
</defs>
</svg>
